  0
SECTION
  2
HEADER
  9
$ACADVER
  1
AC1009
  9
$DWGCODEPAGE
  3
ansi_1252
  9
$INSBASE
 10
0.0
 20
0.0
 30
0.0
  9
$EXTMIN
 10
0.0
 20
-2.584
 30
0.0
  9
$EXTMAX
 10
1141.168
 20
837.653
 30
0.0
  9
$LIMMIN
 10
0.0
 20
0.0
  9
$LIMMAX
 10
12.0
 20
9.0
  9
$ORTHOMODE
 70
     0
  9
$REGENMODE
 70
     1
  9
$FILLMODE
 70
     1
  9
$QTEXTMODE
 70
     0
  9
$MIRRTEXT
 70
     1
  9
$DRAGMODE
 70
     2
  9
$LTSCALE
 40
1.0
  9
$OSMODE
 70
   511
  9
$ATTMODE
 70
     1
  9
$TEXTSIZE
 40
0.2
  9
$TRACEWID
 40
0.05
  9
$TEXTSTYLE
  7
STANDARD
  9
$CLAYER
  8
0
  9
$CELTYPE
  6
BYBLOCK
  9
$CECOLOR
 62
     2
  9
$DIMSCALE
 40
1.0
  9
$DIMASZ
 40
0.18
  9
$DIMEXO
 40
0.0625
  9
$DIMDLI
 40
0.38
  9
$DIMRND
 40
0.0
  9
$DIMDLE
 40
0.0
  9
$DIMEXE
 40
0.18
  9
$DIMTP
 40
0.0
  9
$DIMTM
 40
0.0
  9
$DIMTXT
 40
0.18
  9
$DIMCEN
 40
0.09
  9
$DIMTSZ
 40
0.0
  9
$DIMTOL
 70
     0
  9
$DIMLIM
 70
     0
  9
$DIMTIH
 70
     1
  9
$DIMTOH
 70
     1
  9
$DIMSE1
 70
     0
  9
$DIMSE2
 70
     0
  9
$DIMTAD
 70
     0
  9
$DIMZIN
 70
     0
  9
$DIMBLK
  1

  9
$DIMASO
 70
     1
  9
$DIMSHO
 70
     1
  9
$DIMPOST
  1

  9
$DIMAPOST
  1

  9
$DIMALT
 70
     0
  9
$DIMALTD
 70
     2
  9
$DIMALTF
 40
25.4
  9
$DIMLFAC
 40
1.0
  9
$DIMTOFL
 70
     0
  9
$DIMTVP
 40
0.0
  9
$DIMTIX
 70
     0
  9
$DIMSOXD
 70
     0
  9
$DIMSAH
 70
     0
  9
$DIMBLK1
  1

  9
$DIMBLK2
  1

  9
$DIMSTYLE
  2
STANDARD
  9
$DIMCLRD
 70
     0
  9
$DIMCLRE
 70
     0
  9
$DIMCLRT
 70
     0
  9
$DIMTFAC
 40
1.0
  9
$DIMGAP
 40
0.09
  9
$LUNITS
 70
     2
  9
$LUPREC
 70
     4
  9
$SKETCHINC
 40
0.1
  9
$FILLETRAD
 40
0.5
  9
$AUNITS
 70
     0
  9
$AUPREC
 70
     0
  9
$MENU
  1
.
  9
$ELEVATION
 40
0.0
  9
$PELEVATION
 40
0.0
  9
$THICKNESS
 40
0.0
  9
$LIMCHECK
 70
     0
  9
$CHAMFERA
 40
0.5
  9
$CHAMFERB
 40
0.5
  9
$SKPOLY
 70
     0
  9
$TDCREATE
 40
2456525.542983924
  9
$TDUPDATE
 40
2456525.542983935
  9
$TDINDWG
 40
0.0000000116
  9
$TDUSRTIMER
 40
2456696.554606979
  9
$USRTIMER
 70
     1
  9
$ANGBASE
 50
0.0
  9
$ANGDIR
 70
     0
  9
$PDMODE
 70
     0
  9
$PDSIZE
 40
0.0
  9
$PLINEWID
 40
0.0
  9
$COORDS
 70
     1
  9
$SPLFRAME
 70
     0
  9
$SPLINETYPE
 70
     6
  9
$SPLINESEGS
 70
     8
  9
$ATTDIA
 70
     0
  9
$ATTREQ
 70
     1
  9
$HANDLING
 70
     1
  9
$HANDSEED
  5
4DF
  9
$SURFTAB1
 70
     6
  9
$SURFTAB2
 70
     6
  9
$SURFTYPE
 70
     6
  9
$SURFU
 70
     6
  9
$SURFV
 70
     6
  9
$UCSNAME
  2

  9
$UCSORG
 10
0.0
 20
0.0
 30
0.0
  9
$UCSXDIR
 10
1.0
 20
0.0
 30
0.0
  9
$UCSYDIR
 10
0.0
 20
1.0
 30
0.0
  9
$PUCSNAME
  2

  9
$PUCSORG
 10
0.0
 20
0.0
 30
0.0
  9
$PUCSXDIR
 10
1.0
 20
0.0
 30
0.0
  9
$PUCSYDIR
 10
0.0
 20
1.0
 30
0.0
  9
$USERI1
 70
     0
  9
$USERI2
 70
     0
  9
$USERI3
 70
     0
  9
$USERI4
 70
     0
  9
$USERI5
 70
     0
  9
$USERR1
 40
0.0
  9
$USERR2
 40
0.0
  9
$USERR3
 40
0.0
  9
$USERR4
 40
0.0
  9
$USERR5
 40
0.0
  9
$WORLDVIEW
 70
     1
  9
$SHADEDGE
 70
     3
  9
$SHADEDIF
 70
    70
  9
$TILEMODE
 70
     1
  9
$MAXACTVP
 70
    64
  9
$PLIMCHECK
 70
     0
  9
$PEXTMIN
 10
1.000000000000000E+20
 20
1.000000000000000E+20
 30
1.000000000000000E+20
  9
$PEXTMAX
 10
-1.000000000000000E+20
 20
-1.000000000000000E+20
 30
-1.000000000000000E+20
  9
$PLIMMIN
 10
0.0
 20
0.0
  9
$PLIMMAX
 10
12.0
 20
9.0
  9
$UNITMODE
 70
     0
  9
$VISRETAIN
 70
     1
  9
$PLINEGEN
 70
     0
  9
$PSLTSCALE
 70
     1
  0
ENDSEC
  0
SECTION
  2
TABLES
  0
TABLE
  2
VPORT
 70
     1
  0
VPORT
  2
*ACTIVE
 70
     0
 10
0.0
 20
0.0
 11
1.0
 21
1.0
 12
212.4358634488188
 22
10.98222388074211
 13
0.0
 23
0.0
 14
0.5
 24
0.5
 15
0.5
 25
0.5
 16
0.0
 26
0.0
 36
1.0
 17
0.0
 27
0.0
 37
0.0
 40
523.7022304572561
 41
1.635593220338983
 42
50.0
 43
0.0
 44
0.0
 50
0.0
 51
0.0
 71
    16
 72
   100
 73
     1
 74
     3
 75
     0
 76
     0
 77
     0
 78
     0
  0
ENDTAB
  0
TABLE
  2
LTYPE
 70
     1
  0
LTYPE
  2
CONTINUOUS
 70
     0
  3
Solid line
 72
    65
 73
     0
 40
0.0
  0
ENDTAB
  0
TABLE
  2
LAYER
 70
     1
  0
LAYER
  2
0
 70
     0
 62
     7
  6
CONTINUOUS
  0
ENDTAB
  0
TABLE
  2
STYLE
 70
     2
  0
STYLE
  2
STANDARD
 70
     0
 40
0.0
 41
1.0
 50
0.0
 71
     0
 42
0.2
  3
txt
  4

  0
STYLE
  2
EXPLODED0
 70
     0
 40
0.2
 41
1.0
 50
0.0
 71
     0
 42
0.2
  3

  4

  0
ENDTAB
  0
TABLE
  2
VIEW
 70
     0
  0
ENDTAB
  0
TABLE
  2
UCS
 70
     0
  0
ENDTAB
  0
TABLE
  2
APPID
 70
     1
  0
APPID
  2
ACAD
 70
     0
  0
ENDTAB
  0
TABLE
  2
DIMSTYLE
 70
     1
  0
DIMSTYLE
  2
STANDARD
 70
     0
  3

  4

  5

  6

  7

 40
1.0
 41
0.18
 42
0.0625
 43
0.38
 44
0.18
 45
0.0
 46
0.0
 47
0.0
 48
0.0
140
0.18
141
0.09
142
0.0
143
25.4
144
1.0
145
0.0
146
1.0
147
0.09
 71
     0
 72
     0
 73
     1
 74
     1
 75
     0
 76
     0
 77
     0
 78
     0
170
     0
171
     2
172
     0
173
     0
174
     0
175
     0
176
     0
177
     0
178
     0
  0
ENDTAB
  0
ENDSEC
  0
SECTION
  2
BLOCKS
  0
BLOCK
  8
0
  2
$MODEL_SPACE
 70
     0
 10
0.0
 20
0.0
 30
0.0
  3
$MODEL_SPACE
  1

  0
ENDBLK
  5
37A
  8
0
  0
BLOCK
 67
     1
  8
0
  2
$PAPER_SPACE
 70
     0
 10
0.0
 20
0.0
 30
0.0
  3
$PAPER_SPACE
  1

  0
ENDBLK
  5
356
 67
     1
  8
0
  0
BLOCK
  8
0
  2
ARC
 70
     0
 10
0.0
 20
0.0
 30
0.0
  3
ARC
  1

  0
ARC
  5
3A5
  8
0
  6
BYBLOCK
 10
652.2594631478429
 20
458.8578425665859
 30
0.0
 40
96.37385535108956
 50
0.0
 51
90.0
  0
ENDBLK
  5
3A4
  8
0
  0
ENDSEC
  0
SECTION
  2
ENTITIES
  0
LINE
  5
38C
  8
0
  6
BYBLOCK
 62
     1
 10
-62.99286589414177
 20
237.5874088795047
 30
0.0
 11
-62.99286589414177
 21
-41.17137702848578
 31
0.0
  0
LINE
  5
38D
  8
0
  6
BYBLOCK
 62
     4
 10
-62.99286589414177
 20
-41.17137702848578
 30
0.0
 11
237.5277583189333
 21
-41.17137702848578
 31
0.0
  0
LINE
  5
38E
  8
0
  6
BYBLOCK
 62
     5
 10
237.5277583189333
 20
-41.17137702848578
 30
0.0
 11
237.5277583189333
 21
237.5874088795047
 31
0.0
  0
LINE
  5
38F
  8
0
  6
BYBLOCK
 62
     3
 10
237.5277583189333
 20
237.5874088795047
 30
0.0
 11
-62.99286589414177
 21
237.5874088795047
 31
0.0
  0
INSERT
  5
3A6
  8
0
  6
BYBLOCK
  2
ARC
 10
-555.9357566249616
 20
-362.4405575256746
 30
0.0
  0
INSERT
  5
3AF
  8
0
  6
BYBLOCK
 62
     2
  2
ARC
 10
555.2569775781213
 20
-555.8422076245729
 30
0.0
 50
90.0
  0
INSERT
  5
3B5
  8
0
  6
BYBLOCK
  2
ARC
 10
-555.9358972201491
 20
555.2748982243024
 30
0.0
 41
-0.9999999999999998
 42
0.9999999999999998
 50
180.0000175555741
  0
INSERT
  5
3BA
  8
0
  6
BYBLOCK
 62
     2
  2
ARC
 10
749.0
 20
555.0
 30
0.0
 50
180.0
  0
TEXT
  5
3C2
  8
0
  6
BYBLOCK
 10
-53.41751759932328
 20
-88.55924123038281
 30
0.0
 40
40.0
  1
Test.dxf
 72
     1
 11
86.58248240067672
 21
-88.55924123038281
 31
0.0
  0
CIRCLE
  5
477
  8
0
  6
BYBLOCK
 62
     2
 10
96.09281346224918
 20
97.24498621269754
 30
0.0
 40
84.28917470557712
  0
POLYLINE
  5
478
  8
0
  6
BYBLOCK
 62
     4
 66
     1
 10
0.0
 20
0.0
 30
0.0
 70
     1
  0
VERTEX
  5
48E
  8
0
  6
BYBLOCK
 62
     4
 10
59.95355542827389
 20
66.14214403786232
 30
0.0
  0
VERTEX
  5
48F
  8
0
  6
BYBLOCK
 62
     4
 10
63.34459660055487
 20
64.21300962254583
 30
0.0
  0
VERTEX
  5
490
  8
0
  6
BYBLOCK
 62
     4
 10
68.0672287192674
 20
63.81991751790341
 30
0.0
  0
VERTEX
  5
491
  8
0
  6
BYBLOCK
 62
     4
 10
73.93996368057195
 20
64.97797403306787
 30
0.0
  0
VERTEX
  5
492
  8
0
  6
BYBLOCK
 62
     4
 10
80.73711557337327
 20
67.64267570560702
 30
0.0
  0
VERTEX
  5
493
  8
0
  6
BYBLOCK
 62
     4
 10
88.19747366231776
 20
71.71161954462708
 30
0.0
  0
VERTEX
  5
494
  8
0
  6
BYBLOCK
 62
     4
 10
96.03434056986426
 20
77.02843832028454
 30
0.0
  0
VERTEX
  5
495
  8
0
  6
BYBLOCK
 62
     4
 10
103.9465498957214
 20
83.38880966873715
 30
0.0
  0
VERTEX
  5
496
  8
0
  6
BYBLOCK
 62
     4
 10
111.6300398727145
 20
90.54830808600128
 30
0.0
  0
VERTEX
  5
497
  8
0
  6
BYBLOCK
 62
     4
 10
118.7895382899786
 20
98.2317980629944
 30
0.0
  0
VERTEX
  5
498
  8
0
  6
BYBLOCK
 62
     4
 10
125.1499096384312
 20
106.1440073888515
 30
0.0
  0
VERTEX
  5
499
  8
0
  6
BYBLOCK
 62
     4
 10
130.4667284140887
 20
113.980874296398
 30
0.0
  0
VERTEX
  5
49A
  8
0
  6
BYBLOCK
 62
     4
 10
134.5356722531087
 20
121.4412323853425
 30
0.0
  0
VERTEX
  5
49B
  8
0
  6
BYBLOCK
 62
     4
 10
137.2003739256479
 20
128.2383842781438
 30
0.0
  0
VERTEX
  5
49C
  8
0
  6
BYBLOCK
 62
     4
 10
138.3584304408124
 20
134.1111192394484
 30
0.0
  0
VERTEX
  5
49D
  8
0
  6
BYBLOCK
 62
     4
 10
137.9653383361699
 20
138.8337513581609
 30
0.0
  0
VERTEX
  5
49E
  8
0
  6
BYBLOCK
 62
     4
 10
136.0362039208534
 20
142.2247925304419
 30
0.0
  0
VERTEX
  5
49F
  8
0
  6
BYBLOCK
 62
     4
 10
132.6451627485725
 20
144.1539269457583
 30
0.0
  0
VERTEX
  5
4A0
  8
0
  6
BYBLOCK
 62
     4
 10
127.9225306298599
 20
144.5470190504008
 30
0.0
  0
VERTEX
  5
4A1
  8
0
  6
BYBLOCK
 62
     4
 10
122.0497956685553
 20
143.3889625352363
 30
0.0
  0
VERTEX
  5
4A2
  8
0
  6
BYBLOCK
 62
     4
 10
115.252643775754
 20
140.7242608626972
 30
0.0
  0
VERTEX
  5
4A3
  8
0
  6
BYBLOCK
 62
     4
 10
107.7922856868095
 20
136.6553170236771
 30
0.0
  0
VERTEX
  5
4A4
  8
0
  6
BYBLOCK
 62
     4
 10
99.95541877926298
 20
131.3384982480196
 30
0.0
  0
VERTEX
  5
4A5
  8
0
  6
BYBLOCK
 62
     4
 10
92.04320945340588
 20
124.978126899567
 30
0.0
  0
VERTEX
  5
4A6
  8
0
  6
BYBLOCK
 62
     4
 10
84.35971947641275
 20
117.8186284823028
 30
0.0
  0
VERTEX
  5
4A7
  8
0
  6
BYBLOCK
 62
     4
 10
77.20022105914863
 20
110.1351385053097
 30
0.0
  0
VERTEX
  5
4A8
  8
0
  6
BYBLOCK
 62
     4
 10
70.83984971069601
 20
102.2229291794526
 30
0.0
  0
VERTEX
  5
4A9
  8
0
  6
BYBLOCK
 62
     4
 10
65.52303093503858
 20
94.38606227190607
 30
0.0
  0
VERTEX
  5
4AA
  8
0
  6
BYBLOCK
 62
     4
 10
61.45408709601853
 20
86.9257041829616
 30
0.0
  0
VERTEX
  5
4AB
  8
0
  6
BYBLOCK
 62
     4
 10
58.78938542347939
 20
80.12855229016026
 30
0.0
  0
VERTEX
  5
4AC
  8
0
  6
BYBLOCK
 62
     4
 10
57.63132890831496
 20
74.25581732885573
 30
0.0
  0
VERTEX
  5
4AD
  8
0
  6
BYBLOCK
 62
     4
 10
58.02442101295742
 20
69.53318521014322
 30
0.0
  0
SEQEND
  5
4AE
  8
0
  6
BYBLOCK
 62
     4
  0
POLYLINE
  5
480
  8
0
  6
BYBLOCK
 62
     2
 66
     1
 10
0.0
 20
0.0
 30
0.0
  0
VERTEX
  5
4AF
  8
0
  6
BYBLOCK
 62
     2
 10
-41.48997589516554
 20
156.1732780874148
 30
0.0
  0
VERTEX
  5
4B0
  8
0
  6
BYBLOCK
 62
     2
 10
-41.48997589516554
 20
215.137330669164
 30
0.0
 42
-1.0
  0
VERTEX
  5
4B1
  8
0
  6
BYBLOCK
 62
     2
 10
-41.48997589516554
 20
180.9001388475031
 30
0.0
  0
SEQEND
  5
4DE
  8
0
  6
BYBLOCK
 62
     2
  0
POLYLINE
  5
482
  8
0
  6
BYBLOCK
 62
     2
 66
     1
 10
0.0
 20
0.0
 30
0.0
  0
VERTEX
  5
4B2
  8
0
  6
BYBLOCK
 62
     2
 10
-14.22702685199118
 20
158.0753442997293
 30
0.0
  0
VERTEX
  5
4B3
  8
0
  6
BYBLOCK
 62
     2
 10
-10.88909292867196
 20
159.5728794016688
 30
0.0
  0
VERTEX
  5
4B4
  8
0
  6
BYBLOCK
 62
     2
 10
-7.586300295938281
 20
161.0682950918005
 30
0.0
  0
VERTEX
  5
4B5
  8
0
  6
BYBLOCK
 62
     2
 10
-4.353790244375647
 20
162.5594719583164
 30
0.0
  0
VERTEX
  5
4B6
  8
0
  6
BYBLOCK
 62
     2
 10
-1.22670406456959
 20
164.0442905894087
 30
0.0
  0
VERTEX
  5
4B7
  8
0
  6
BYBLOCK
 62
     2
 10
1.759816952894361
 20
165.5206315732696
 30
0.0
  0
VERTEX
  5
4B8
  8
0
  6
BYBLOCK
 62
     2
 10
4.570631517430686
 20
166.9863754980912
 30
0.0
  0
VERTEX
  5
4B9
  8
0
  6
BYBLOCK
 62
     2
 10
7.170598338453845
 20
168.4394029520656
 30
0.0
  0
VERTEX
  5
4BA
  8
0
  6
BYBLOCK
 62
     2
 10
9.524576125378324
 20
169.877594523385
 30
0.0
  0
VERTEX
  5
4BB
  8
0
  6
BYBLOCK
 62
     2
 10
11.59742358761859
 20
171.2988308002414
 30
0.0
  0
VERTEX
  5
4BC
  8
0
  6
BYBLOCK
 62
     2
 10
13.35399943458912
 20
172.7009923708271
 30
0.0
  0
VERTEX
  5
4BD
  8
0
  6
BYBLOCK
 62
     2
 10
14.75916237570439
 20
174.0819598233341
 30
0.0
  0
VERTEX
  5
4BE
  8
0
  6
BYBLOCK
 62
     2
 10
15.77777112037887
 20
175.4396137459547
 30
0.0
  0
VERTEX
  5
4BF
  8
0
  6
BYBLOCK
 62
     2
 10
16.37468437802703
 20
176.7718347268809
 30
0.0
  0
VERTEX
  5
4C0
  8
0
  6
BYBLOCK
 62
     2
 10
16.51476085806335
 20
178.0765033543048
 30
0.0
  0
VERTEX
  5
4C1
  8
0
  6
BYBLOCK
 62
     2
 10
16.16285926990231
 20
179.3515002164187
 30
0.0
  0
VERTEX
  5
4C2
  8
0
  6
BYBLOCK
 62
     2
 10
15.28425476847367
 20
180.5947374916528
 30
0.0
  0
VERTEX
  5
4C3
  8
0
  6
BYBLOCK
 62
     2
 10
13.88709322318152
 20
181.8073793950939
 30
0.0
  0
VERTEX
  5
4C4
  8
0
  6
BYBLOCK
 62
     2
 10
12.05901602196627
 20
182.9966204201541
 30
0.0
  0
VERTEX
  5
4C5
  8
0
  6
BYBLOCK
 62
     2
 10
9.896293576082691
 20
184.1703096306319
 30
0.0
  0
VERTEX
  5
4C6
  8
0
  6
BYBLOCK
 62
     2
 10
7.495196296785569
 20
185.3362960903256
 30
0.0
  0
VERTEX
  5
4C7
  8
0
  6
BYBLOCK
 62
     2
 10
4.951994595329667
 20
186.5024288630335
 30
0.0
  0
VERTEX
  5
4C8
  8
0
  6
BYBLOCK
 62
     2
 10
2.362958882969766
 20
187.6765570125543
 30
0.0
  0
VERTEX
  5
4C9
  8
0
  6
BYBLOCK
 62
     2
 10
-0.1756404290393667
 20
188.8665296026861
 30
0.0
  0
VERTEX
  5
4CA
  8
0
  6
BYBLOCK
 62
     2
 10
-2.567532929442952
 20
190.0801956972274
 30
0.0
  0
VERTEX
  5
4CB
  8
0
  6
BYBLOCK
 62
     2
 10
-4.716448206986218
 20
191.3254043599765
 30
0.0
  0
VERTEX
  5
4CC
  8
0
  6
BYBLOCK
 62
     2
 10
-6.526115850414392
 20
192.6100046547319
 30
0.0
  0
VERTEX
  5
4CD
  8
0
  6
BYBLOCK
 62
     2
 10
-7.900265448472696
 20
193.9418456452919
 30
0.0
  0
VERTEX
  5
4CE
  8
0
  6
BYBLOCK
 62
     2
 10
-8.743584723444627
 20
195.3286919739377
 30
0.0
  0
VERTEX
  5
4CF
  8
0
  6
BYBLOCK
 62
     2
 10
-9.015054296582871
 20
196.7735245145875
 30
0.0
  0
VERTEX
  5
4D0
  8
0
  6
BYBLOCK
 62
     2
 10
-8.756021267079483
 20
198.272066798877
 30
0.0
  0
VERTEX
  5
4D1
  8
0
  6
BYBLOCK
 62
     2
 10
-8.014713144265519
 20
199.819436122839
 30
0.0
  0
VERTEX
  5
4D2
  8
0
  6
BYBLOCK
 62
     2
 10
-6.839357437472037
 20
201.4107497825063
 30
0.0
  0
VERTEX
  5
4D3
  8
0
  6
BYBLOCK
 62
     2
 10
-5.278181656030096
 20
203.0411250739116
 30
0.0
  0
VERTEX
  5
4D4
  8
0
  6
BYBLOCK
 62
     2
 10
-3.379413309270751
 20
204.7056792930876
 30
0.0
  0
VERTEX
  5
4D5
  8
0
  6
BYBLOCK
 62
     2
 10
-1.191279906525061
 20
206.3995297360672
 30
0.0
  0
VERTEX
  5
4D6
  8
0
  6
BYBLOCK
 62
     2
 10
1.237991042875918
 20
208.117793698883
 30
0.0
  0
VERTEX
  5
4D7
  8
0
  6
BYBLOCK
 62
     2
 10
3.860172029601128
 20
209.8555884775679
 30
0.0
  0
VERTEX
  5
4D8
  8
0
  6
BYBLOCK
 62
     2
 10
6.627035544319509
 20
211.6080313681545
 30
0.0
  0
VERTEX
  5
4D9
  8
0
  6
BYBLOCK
 62
     2
 10
9.490354077700008
 20
213.3702396666756
 30
0.0
  0
VERTEX
  5
4DA
  8
0
  6
BYBLOCK
 62
     2
 10
12.40190012041165
 20
215.137330669164
 30
0.0
  0
SEQEND
  5
4DB
  8
0
  6
BYBLOCK
 62
     2
  0
TEXT
  5
483
  8
0
  6
CONTINUOUS
 62
     2
 10
129.9463018874044
 20
200.6217787130224
 30
0.0
 40
35.99999999999999
  1
Text
 50
330.0
  7
EXPLODED0
  0
ENDSEC
  0
EOF
