  0
SECTION
  2
HEADER
  9
$ACADVER
  1
AC1009
  9
$EXTMAX
 10
100.0
 20
100.0
 30
0.0
  9
$EXTMIN
 10
0.0
 20
0.0
 30
0.0
  9
$INSBASE
 10
0.0
 20
0.0
 30
0.0
  0
ENDSEC
  0
SECTION
  2
TABLES
  0
TABLE
  2
LTYPE
 70
19
  0
LTYPE
  2
CONTINUOUS
 70
0
  3
Solid
 72
65
 73
0
 40
0.0
  0
LTYPE
  2
DASHEDX2
 70
0
  3
Dashed (2x) ____  ____  ____  ____  ____  ____
 72
65
 73
2
 40
1.2
 49
1.0
 49
-0.2
  0
LTYPE
  2
PHANTOMX2
 70
0
  3
Phantom (2x)____________    ____    ____    ____________
 72
65
 73
6
 40
4.25
 49
2.5
 49
-0.25
 49
0.5
 49
-0.25
 49
0.5
 49
-0.25
  0
LTYPE
  2
DASHED2
 70
0
  3
Dashed (.5x) _ _ _ _ _ _ _ _ _ _ _ _ _ _
 72
65
 73
2
 40
0.3
 49
0.25
 49
-0.05
  0
LTYPE
  2
DOT2
 70
0
  3
Dot (.5) . . . . . . . . . . . . . . . . . . . 
 72
65
 73
2
 40
0.1
 49
0.0
 49
-0.1
  0
LTYPE
  2
DOTX2
 70
0
  3
Dot (2x) .    .    .    .    .    .    .    . 
 72
65
 73
2
 40
0.4
 49
0.0
 49
-0.4
  0
LTYPE
  2
DASHED
 70
0
  3
Dashed __ __ __ __ __ __ __ __ __ __ __ __ __ _
 72
65
 73
2
 40
0.6
 49
0.5
 49
-0.1
  0
LTYPE
  2
CENTER2
 70
0
  3
Center (.5x) ____ _ ____ _ ____ _ ____ _ ____
 72
65
 73
4
 40
1.0
 49
0.625
 49
-0.125
 49
0.125
 49
-0.125
  0
LTYPE
  2
CENTERX2
 70
0
  3
Center (2x) ________  __  ________  __  ________
 72
65
 73
4
 40
3.5
 49
2.5
 49
-0.25
 49
0.5
 49
-0.25
  0
LTYPE
  2
DASHDOTX2
 70
0
  3
Dash dot (2x) ____  .  ____  .  ____  .  ____
 72
65
 73
4
 40
2.4
 49
2.0
 49
-0.2
 49
0.0
 49
-0.2
  0
LTYPE
  2
DIVIDEX2
 70
0
  3
Divide (2x) ____  . .  ____  . .  ____  . .  ____
 72
65
 73
6
 40
2.6
 49
2.0
 49
-0.2
 49
0.0
 49
-0.2
 49
0.0
 49
-0.2
  0
LTYPE
  2
DIVIDE2
 70
0
  3
Divide(.5x) _ . _ . _ . _ . _ . _ . _ . _
 72
65
 73
6
 40
0.8
 49
0.5
 49
-0.1
 49
0.0
 49
-0.1
 49
0.0
 49
-0.1
  0
LTYPE
  2
PHANTOM2
 70
0
  3
Phantom (.5x) ___ _ _ ___ _ _ ___ _ _ ___ _ _ ___
 72
65
 73
6
 40
1.25
 49
0.625
 49
-0.125
 49
0.125
 49
-0.125
 49
0.125
 49
-0.125
  0
LTYPE
  2
CENTER
 70
0
  3
Center ____ _ ____ _ ____ _ ____ _ ____ _ ____
 72
65
 73
4
 40
2.0
 49
1.25
 49
-0.25
 49
0.25
 49
-0.25
  0
LTYPE
  2
DASHDOT
 70
0
  3
Dash dot __ . __ . __ . __ . __ . __ . __ . __
 72
65
 73
4
 40
1.4
 49
1.0
 49
-0.2
 49
0.0
 49
-0.2
  0
LTYPE
  2
DOT
 70
0
  3
Dot .  .  .  .  .  .  .  .  .  .  .  .  .  .  .  .
 72
65
 73
2
 40
0.2
 49
0.0
 49
-0.2
  0
LTYPE
  2
DIVIDE
 70
0
  3
Divide __ . . __ . . __ . . __ . . __ . . __
 72
65
 73
6
 40
1.6
 49
1.0
 49
-0.2
 49
0.0
 49
-0.2
 49
0.0
 49
-0.2
  0
LTYPE
  2
PHANTOM
 70
0
  3
Phantom ______  __  __  ______  __  __  ______
 72
65
 73
6
 40
2.5
 49
1.25
 49
-0.25
 49
0.25
 49
-0.25
 49
0.25
 49
-0.25
  0
LTYPE
  2
DASHDOT2
 70
0
  3
Dash dot (.5x) _ . _ . _ . _ . _ . _ . _ . _
 72
65
 73
4
 40
0.7
 49
0.5
 49
-0.1
 49
0.0
 49
-0.1
  0
ENDTAB
  0
TABLE
  2
LAYER
 70
0
  0
ENDTAB
  0
TABLE
  2
STYLE
 70
0
  0
ENDTAB
  0
TABLE
  2
VIEW
 70
0
  0
ENDTAB
  0
TABLE
  2
APPID
 70
1
  0
APPID
  2
DXFWRITE
 70
0
  0
ENDTAB
  0
TABLE
  2
VPORT
 70
0
  0
ENDTAB
  0
TABLE
  2
UCS
 70
0
  0
ENDTAB
  0
ENDSEC
  0
SECTION
  2
BLOCKS
  0
ENDSEC
  0
SECTION
  2
ENTITIES
  0
VIEWPORT
  8
VIEWPORTS
 67
1
 10
0.0
 20
0.0
 30
0.0
 40
1.0
 41
1.0
 68
1
 69
1
1001
ACAD
1000
MVIEW
1002
{
1070
16
1010
0.0
1020
0.0
1030
0.0
1010
0.0
1020
0.0
1030
0.0
1040
0.0
1040
1.0
1040
0.0
1040
0.0
1040
50.0
1040
0.0
1040
0.0
1070
0
1070
100
1070
1
1070
3
1070
0
1070
0
1070
0
1070
0
1040
0.0
1040
0.0
1040
0.0
1040
0.1
1040
0.1
1040
0.1
1040
0.1
1070
0
1002
{
1002
}
1002
}
  0
LINE
 62
1
  8
0
 10
151.3737483672
 20
589.1666666667
 30
0.0
 11
151.3737483672
 21
90.58944159049997
 31
0.0
  0
LINE
 62
4
  8
0
 10
151.3737483672
 20
90.5894415905
 30
0.0
 11
688.8733590441
 21
90.5894415905
 31
0.0
  0
LINE
 62
5
  8
0
 10
688.8733590441
 20
90.5894415905
 30
0.0
 11
688.8733590441
 21
589.1666666667
 31
0.0
  0
LINE
 62
3
  8
0
 10
688.8733590441
 20
589.1666666667
 30
0.0
 11
151.37374836720005
 21
589.1666666667
 31
0.0
  0
POLYLINE
 62
0
  8
0
 66
1
 10
0.0
 20
0.0
 30
0.0
 70
8
  0
VERTEX
  8
0
 10
608.6917968008
 20
336.6752218577
 30
0.0
  0
VERTEX
  8
0
 10
608.1203933500828
 20
350.8122881905526
 30
0.0
  0
VERTEX
  8
0
 10
606.4357571113438
 20
364.63462279751826
 30
0.0
  0
VERTEX
  8
0
 10
603.6822492547014
 20
378.097864508478
 30
0.0
  0
VERTEX
  8
0
 10
599.9042309502746
 20
391.1576521533137
 30
0.0
  0
VERTEX
  8
0
 10
595.1460633681813
 20
403.76962456190626
 30
0.0
  0
VERTEX
  8
0
 10
589.4521076785406
 20
415.8894205641374
 30
0.0
  0
VERTEX
  8
0
 10
582.866725051471
 20
427.4726789898884
 30
0.0
  0
VERTEX
  8
0
 10
575.4342766570912
 20
438.4750386690408
 30
0.0
  0
VERTEX
  8
0
 10
567.1991236655198
 20
448.85213843147596
 30
0.0
  0
VERTEX
  8
0
 10
558.205627246875
 20
458.559617107075
 30
0.0
  0
VERTEX
  8
0
 10
548.4981485712759
 20
467.55311352571965
 30
0.0
  0
VERTEX
  8
0
 10
538.1210488088408
 20
475.7882665172912
 30
0.0
  0
VERTEX
  8
0
 10
527.1186891296885
 20
483.22071491167105
 30
0.0
  0
VERTEX
  8
0
 10
515.5354307039374
 20
489.80609753874063
 30
0.0
  0
VERTEX
  8
0
 10
503.41563470170627
 20
495.50005322838126
 30
0.0
  0
VERTEX
  8
0
 10
490.80366229311363
 20
500.2582208104744
 30
0.0
  0
VERTEX
  8
0
 10
477.74387464827805
 20
504.0362391149015
 30
0.0
  0
VERTEX
  8
0
 10
464.2806329373182
 20
506.7897469715439
 30
0.0
  0
VERTEX
  8
0
 10
450.45829833035265
 20
508.4743832102829
 30
0.0
  0
VERTEX
  8
0
 10
436.3212319975
 20
509.045786661
 30
0.0
  0
SEQEND
  0
POLYLINE
 62
0
  8
0
 66
1
 10
0.0
 20
0.0
 30
0.0
 70
8
  0
VERTEX
  8
0
 10
436.4561404864
 20
509.0457338669
 30
0.0
  0
VERTEX
  8
0
 10
422.3190741535473
 20
508.4743304161828
 30
0.0
  0
VERTEX
  8
0
 10
408.49673954658186
 20
506.78969417744383
 30
0.0
  0
VERTEX
  8
0
 10
395.03349783562186
 20
504.03618632080133
 30
0.0
  0
VERTEX
  8
0
 10
381.97371019078645
 20
500.2581680163745
 30
0.0
  0
VERTEX
  8
0
 10
369.3617377821937
 20
495.5000004342813
 30
0.0
  0
VERTEX
  8
0
 10
357.2419417799626
 20
489.8060447446406
 30
0.0
  0
VERTEX
  8
0
 10
345.65868335421146
 20
483.22066211757095
 30
0.0
  0
VERTEX
  8
0
 10
334.6563236750592
 20
475.78821372319123
 30
0.0
  0
VERTEX
  8
0
 10
324.2792239126242
 20
467.5530607316197
 30
0.0
  0
VERTEX
  8
0
 10
314.571745237025
 20
458.559564312975
 30
0.0
  0
VERTEX
  8
0
 10
305.5782488183803
 20
448.85208563737586
 30
0.0
  0
VERTEX
  8
0
 10
297.3430958268088
 20
438.4749858749408
 30
0.0
  0
VERTEX
  8
0
 10
289.9106474324289
 20
427.4726261957884
 30
0.0
  0
VERTEX
  8
0
 10
283.3252648053594
 20
415.88936777003744
 30
0.0
  0
VERTEX
  8
0
 10
277.6313091157187
 20
403.7695717678062
 30
0.0
  0
VERTEX
  8
0
 10
272.8731415336256
 20
391.1575993592136
 30
0.0
  0
VERTEX
  8
0
 10
269.0951232291985
 20
378.097811714378
 30
0.0
  0
VERTEX
  8
0
 10
266.3416153725562
 20
364.63457000341816
 30
0.0
  0
VERTEX
  8
0
 10
264.6569791338171
 20
350.81223539645265
 30
0.0
  0
VERTEX
  8
0
 10
264.0855756831
 20
336.6751690636
 30
0.0
  0
SEQEND
  0
POLYLINE
 62
0
  8
0
 66
1
 10
0.0
 20
0.0
 30
0.0
 70
8
  0
VERTEX
  8
0
 10
608.6917968008
 20
336.6752218577
 30
0.0
  0
VERTEX
  8
0
 10
608.1203976817163
 20
322.53815534976843
 30
0.0
  0
VERTEX
  8
0
 10
606.4357656781766
 20
308.71582022662784
 30
0.0
  0
VERTEX
  8
0
 10
603.6822619467066
 20
295.25257767198883
 30
0.0
  0
VERTEX
  8
0
 10
599.904247643833
 20
282.19278886956255
 30
0.0
  0
VERTEX
  8
0
 10
595.1460839260812
 20
269.5808150030594
 30
0.0
  0
VERTEX
  8
0
 10
589.4521319499781
 20
257.4610172561906
 30
0.0
  0
VERTEX
  8
0
 10
582.8667528720498
 20
245.8777568126669
 30
0.0
  0
VERTEX
  8
0
 10
575.4343078488224
 20
234.87539485619922
 30
0.0
  0
VERTEX
  8
0
 10
567.1991580368223
 20
224.49829257049834
 30
0.0
  0
VERTEX
  8
0
 10
558.2056645925751
 20
214.79081113927504
 30
0.0
  0
VERTEX
  8
0
 10
548.4981886726075
 20
205.79731174624024
 30
0.0
  0
VERTEX
  8
0
 10
538.1210914334456
 20
197.5621555751048
 30
0.0
  0
VERTEX
  8
0
 10
527.1187340316156
 20
190.12970380957955
 30
0.0
  0
VERTEX
  8
0
 10
515.5354776236438
 20
183.54431763337539
 30
0.0
  0
VERTEX
  8
0
 10
503.4156833660562
 20
177.85035823020314
 30
0.0
  0
VERTEX
  8
0
 10
490.8037124153792
 20
173.09218678377363
 30
0.0
  0
VERTEX
  8
0
 10
477.74392592813876
 20
169.31416447779768
 30
0.0
  0
VERTEX
  8
0
 10
464.2806850608614
 20
166.5606524959862
 30
0.0
  0
VERTEX
  8
0
 10
450.45835097007307
 20
164.87601202205002
 30
0.0
  0
VERTEX
  8
0
 10
436.3212848123
 20
164.3046042397
 30
0.0
  0
SEQEND
  0
POLYLINE
 62
0
  8
0
 66
1
 10
0.0
 20
0.0
 30
0.0
 70
8
  0
VERTEX
  8
0
 10
264.6961938625
 20
336.1831392184
 30
0.0
  0
VERTEX
  8
0
 10
265.26759731321715
 20
322.04607288556156
 30
0.0
  0
VERTEX
  8
0
 10
266.9522335519563
 20
308.22373827860895
 30
0.0
  0
VERTEX
  8
0
 10
269.70574140859856
 20
294.7604965676605
 30
0.0
  0
VERTEX
  8
0
 10
273.4837597130257
 20
281.7007089228353
 30
0.0
  0
VERTEX
  8
0
 10
278.2419272951187
 20
269.08873651425154
 30
0.0
  0
VERTEX
  8
0
 10
283.9358829847594
 20
256.96894051202827
 30
0.0
  0
VERTEX
  8
0
 10
290.52126561182894
 20
245.38568208628402
 30
0.0
  0
VERTEX
  8
0
 10
297.9537140062088
 20
234.3833224071376
 30
0.0
  0
VERTEX
  8
0
 10
306.18886699778045
 20
224.00622264470758
 30
0.0
  0
VERTEX
  8
0
 10
315.182363416425
 20
214.2987439691125
 30
0.0
  0
VERTEX
  8
0
 10
324.8898420920242
 20
205.30524755047125
 30
0.0
  0
VERTEX
  8
0
 10
335.2669418544592
 20
197.07009455890238
 30
0.0
  0
VERTEX
  8
0
 10
346.26930153361155
 20
189.63764616452463
 30
0.0
  0
VERTEX
  8
0
 10
357.8525599593627
 20
183.0522635374567
 30
0.0
  0
VERTEX
  8
0
 10
369.97235596159373
 20
177.3583078478172
 30
0.0
  0
VERTEX
  8
0
 10
382.5843283701865
 20
172.6001402657248
 30
0.0
  0
VERTEX
  8
0
 10
395.64411601502195
 20
168.8221219612982
 30
0.0
  0
VERTEX
  8
0
 10
409.10735772598184
 20
166.0686141046561
 30
0.0
  0
VERTEX
  8
0
 10
422.9296923329474
 20
164.38397786591713
 30
0.0
  0
VERTEX
  8
0
 10
437.0667586658
 20
163.8125744152
 30
0.0
  0
SEQEND
  0
LINE
 62
0
  8
0
 10
192.3473337526
 20
5.8333333333
 30
0.0
 11
192.3473337526
 21
77.3757923022
 31
0.0
  0
LINE
 62
0
  8
0
 10
168.4998474296
 20
77.3757923022
 30
0.0
 11
216.1948200756
 21
77.3757923022
 31
0.0
  0
LINE
 62
0
  8
0
 10
240.0423063985
 20
29.6808196563
 30
0.0
 11
275.813535883
 21
29.6808196563
 31
0.0
  0
LINE
 62
0
  8
0
 10
275.813535883
 20
29.6808196563
 30
0.0
 11
287.7372790445
 21
41.6045628178
 31
0.0
  0
LINE
 62
0
  8
0
 10
287.7372790445
 20
41.6045628178
 30
0.0
 11
275.813535883
 21
53.5283059793
 31
0.0
  0
LINE
 62
0
  8
0
 10
275.813535883
 20
53.5283059793
 30
0.0
 11
251.96604956
 21
53.5283059793
 31
0.0
  0
LINE
 62
0
  8
0
 10
251.96604956
 20
53.5283059793
 30
0.0
 11
240.0423063985
 21
41.6045628178
 31
0.0
  0
LINE
 62
0
  8
0
 10
240.0423063985
 20
41.6045628178
 30
0.0
 11
240.0423063985
 21
17.7570764948
 31
0.0
  0
LINE
 62
0
  8
0
 10
240.0423063985
 20
17.7570764948
 30
0.0
 11
251.96604956
 21
5.833333333300001
 31
0.0
  0
LINE
 62
0
  8
0
 10
251.96604956
 20
5.8333333333
 30
0.0
 11
275.813535883
 21
5.8333333333
 31
0.0
  0
LINE
 62
0
  8
0
 10
311.5847653674
 20
5.8333333333
 30
0.0
 11
347.3559948519
 21
5.8333333333
 31
0.0
  0
LINE
 62
0
  8
0
 10
347.3559948519
 20
5.8333333333
 30
0.0
 11
359.2797380134
 21
17.7570764948
 31
0.0
  0
LINE
 62
0
  8
0
 10
359.2797380134
 20
17.7570764948
 30
0.0
 11
347.3559948519
 21
29.6808196563
 31
0.0
  0
LINE
 62
0
  8
0
 10
347.3559948519
 20
29.6808196563
 30
0.0
 11
323.5085085289
 21
29.6808196563
 31
0.0
  0
LINE
 62
0
  8
0
 10
323.5085085289
 20
29.6808196563
 30
0.0
 11
311.5847653674
 21
41.6045628178
 31
0.0
  0
LINE
 62
0
  8
0
 10
311.5847653674
 20
41.6045628178
 30
0.0
 11
323.5085085289
 21
53.5283059793
 31
0.0
  0
LINE
 62
0
  8
0
 10
323.5085085289
 20
53.5283059793
 30
0.0
 11
359.2797380134
 21
53.5283059793
 31
0.0
  0
LINE
 62
0
  8
0
 10
406.9747106593
 20
77.3757923022
 30
0.0
 11
406.9747106593
 21
17.757076494800003
 31
0.0
  0
LINE
 62
0
  8
0
 10
406.9747106593
 20
17.7570764948
 30
0.0
 11
418.8984538208
 21
5.833333333300001
 31
0.0
  0
LINE
 62
0
  8
0
 10
418.8984538208
 20
5.8333333333
 30
0.0
 11
430.8221969823
 21
17.7570764948
 31
0.0
  0
LINE
 62
0
  8
0
 10
383.1272243363
 20
53.5283059793
 30
0.0
 11
430.8221969823
 21
53.5283059793
 31
0.0
  0
LINE
 62
0
  8
0
 10
454.6696833052
 20
5.8333333333
 30
0.0
 11
454.6696833052
 21
17.7570764948
 31
0.0
  0
LINE
 62
0
  8
0
 10
526.2121422742
 20
77.3757923022
 30
0.0
 11
526.2121422742
 21
5.833333333300004
 31
0.0
  0
LINE
 62
0
  8
0
 10
526.2121422742
 20
29.6808196563
 30
0.0
 11
502.3646559512
 21
53.5283059793
 31
0.0
  0
LINE
 62
0
  8
0
 10
502.3646559512
 20
53.5283059793
 30
0.0
 11
490.4409127897
 21
53.5283059793
 31
0.0
  0
LINE
 62
0
  8
0
 10
490.4409127897
 20
53.5283059793
 30
0.0
 11
478.5171696282
 21
41.6045628178
 31
0.0
  0
LINE
 62
0
  8
0
 10
478.5171696282
 20
41.6045628178
 30
0.0
 11
478.5171696282
 21
17.7570764948
 31
0.0
  0
LINE
 62
0
  8
0
 10
478.5171696282
 20
17.7570764948
 30
0.0
 11
490.4409127897
 21
5.833333333300001
 31
0.0
  0
LINE
 62
0
  8
0
 10
490.4409127897
 20
5.8333333333
 30
0.0
 11
502.3646559512
 21
5.8333333333
 31
0.0
  0
LINE
 62
0
  8
0
 10
502.3646559512
 20
5.8333333333
 30
0.0
 11
526.2121422742
 21
29.6808196563
 31
0.0
  0
LINE
 62
0
  8
0
 10
550.0596285971
 20
5.8333333333
 30
0.0
 11
597.7546012431
 21
53.5283059793
 31
0.0
  0
LINE
 62
0
  8
0
 10
550.0596285971
 20
53.5283059793
 30
0.0
 11
597.7546012431
 21
5.833333333299997
 31
0.0
  0
LINE
 62
0
  8
0
 10
633.5258307275
 20
5.8333333333
 30
0.0
 11
633.5258307275
 21
65.4520491408
 31
0.0
  0
LINE
 62
0
  8
0
 10
633.5258307275
 20
65.4520491408
 30
0.0
 11
645.449573889
 21
77.3757923022
 31
0.0
  0
LINE
 62
0
  8
0
 10
645.449573889
 20
77.3757923022
 30
0.0
 11
657.3733170505
 21
77.3757923022
 31
0.0
  0
LINE
 62
0
  8
0
 10
657.3733170505
 20
77.3757923022
 30
0.0
 11
669.297060212
 21
65.4520491408
 31
0.0
  0
LINE
 62
0
  8
0
 10
621.602087566
 20
41.6045628178
 30
0.0
 11
657.3733170505
 21
41.6045628178
 31
0.0
  0
POLYLINE
 62
2
  8
0
 66
1
 10
0.0
 20
0.0
 30
0.0
 70
8
  0
VERTEX
  8
0
 10
285.1518949922
 20
338.1556162857
 30
0.0
  0
VERTEX
  8
0
 10
285.6516480124514
 20
325.79124993747945
 30
0.0
  0
VERTEX
  8
0
 10
287.12504136924366
 20
313.70214991882045
 30
0.0
  0
VERTEX
  8
0
 10
289.5332765066332
 20
301.9271147856658
 30
0.0
  0
VERTEX
  8
0
 10
292.8375548686769
 20
290.5049430939593
 30
0.0
  0
VERTEX
  8
0
 10
296.9990778994313
 20
279.4744333996437
 30
0.0
  0
VERTEX
  8
0
 10
301.97904704295325
 20
268.87438425866276
 30
0.0
  0
VERTEX
  8
0
 10
307.73866374329936
 20
258.74359422695954
 30
0.0
  0
VERTEX
  8
0
 10
314.23912944452644
 20
249.12086186047756
 30
0.0
  0
VERTEX
  8
0
 10
321.44164559069117
 20
240.04498571515998
 30
0.0
  0
VERTEX
  8
0
 10
329.30741362585
 20
231.55476434694998
 30
0.0
  0
VERTEX
  8
0
 10
337.79763499406
 20
223.68899631179104
 30
0.0
  0
VERTEX
  8
0
 10
346.8735111393776
 20
216.48648016562635
 30
0.0
  0
VERTEX
  8
0
 10
356.49624350585964
 20
209.98601446439932
 30
0.0
  0
VERTEX
  8
0
 10
366.62703353756285
 20
204.2263977640532
 30
0.0
  0
VERTEX
  8
0
 10
377.22708267854375
 20
199.24642862053125
 30
0.0
  0
VERTEX
  8
0
 10
388.2575923728593
 20
195.08490558977678
 30
0.0
  0
VERTEX
  8
0
 10
399.6797640645659
 20
191.78062722773313
 30
0.0
  0
VERTEX
  8
0
 10
411.45479919772043
 20
189.3723920903436
 30
0.0
  0
VERTEX
  8
0
 10
423.5438992163796
 20
187.89899873355142
 30
0.0
  0
VERTEX
  8
0
 10
435.9082655646
 20
187.3992457133
 30
0.0
  0
SEQEND
  0
POLYLINE
 62
2
  8
0
 66
1
 10
0.0
 20
0.0
 30
0.0
 70
8
  0
VERTEX
  8
0
 10
435.9082655646
 20
187.3992457133
 30
0.0
  0
VERTEX
  8
0
 10
448.27263191283396
 20
187.89899873355142
 30
0.0
  0
VERTEX
  8
0
 10
460.36173193150404
 20
189.3723920903436
 30
0.0
  0
VERTEX
  8
0
 10
472.1367670646666
 20
191.78062722773313
 30
0.0
  0
VERTEX
  8
0
 10
483.55893875637935
 20
195.08490558977684
 30
0.0
  0
VERTEX
  8
0
 10
494.5894484506984
 20
199.24642862053125
 30
0.0
  0
VERTEX
  8
0
 10
505.18949759168135
 20
204.2263977640532
 30
0.0
  0
VERTEX
  8
0
 10
515.3202876233846
 20
209.98601446439932
 30
0.0
  0
VERTEX
  8
0
 10
524.9430199898657
 20
216.4864801656264
 30
0.0
  0
VERTEX
  8
0
 10
534.018896135181
 20
223.6889963117911
 30
0.0
  0
VERTEX
  8
0
 10
542.5091175033875
 20
231.55476434694998
 30
0.0
  0
VERTEX
  8
0
 10
550.3748855385425
 20
240.04498571515995
 30
0.0
  0
VERTEX
  8
0
 10
557.5774016847024
 20
249.1208618604776
 30
0.0
  0
VERTEX
  8
0
 10
564.0778673859245
 20
258.74359422695966
 30
0.0
  0
VERTEX
  8
0
 10
569.8374840862657
 20
268.8743842586628
 30
0.0
  0
VERTEX
  8
0
 10
574.8174532297828
 20
279.4744333996438
 30
0.0
  0
VERTEX
  8
0
 10
578.9789762605328
 20
290.50494309395924
 30
0.0
  0
VERTEX
  8
0
 10
582.2832546225726
 20
301.9271147856658
 30
0.0
  0
VERTEX
  8
0
 10
584.691489759959
 20
313.7021499188204
 30
0.0
  0
VERTEX
  8
0
 10
586.1648831167493
 20
325.7912499374795
 30
0.0
  0
VERTEX
  8
0
 10
586.664636137
 20
338.1556162857
 30
0.0
  0
SEQEND
  0
POLYLINE
 62
2
  8
0
 66
1
 10
0.0
 20
0.0
 30
0.0
 70
8
  0
VERTEX
  8
0
 10
586.664636137
 20
338.1556162857
 30
0.0
  0
VERTEX
  8
0
 10
586.1648831167491
 20
350.5199826339346
 30
0.0
  0
VERTEX
  8
0
 10
584.6914897599592
 20
362.60908265260673
 30
0.0
  0
VERTEX
  8
0
 10
582.2832546225727
 20
374.38411778577273
 30
0.0
  0
VERTEX
  8
0
 10
578.978976260533
 20
385.8062894774897
 30
0.0
  0
VERTEX
  8
0
 10
574.8174532297828
 20
396.83679917181405
 30
0.0
  0
VERTEX
  8
0
 10
569.8374840862656
 20
407.4368483128029
 30
0.0
  0
VERTEX
  8
0
 10
564.0778673859245
 20
417.5676383445128
 30
0.0
  0
VERTEX
  8
0
 10
557.5774016847025
 20
427.1903707110008
 30
0.0
  0
VERTEX
  8
0
 10
550.3748855385425
 20
436.26624685632345
 30
0.0
  0
VERTEX
  8
0
 10
542.5091175033875
 20
444.75646822453757
 30
0.0
  0
VERTEX
  8
0
 10
534.018896135181
 20
452.6222362596999
 30
0.0
  0
VERTEX
  8
0
 10
524.9430199898657
 20
459.82475240586723
 30
0.0
  0
VERTEX
  8
0
 10
515.3202876233847
 20
466.32521810709636
 30
0.0
  0
VERTEX
  8
0
 10
505.1894975916813
 20
472.0848348074441
 30
0.0
  0
VERTEX
  8
0
 10
494.58944845069846
 20
477.0648039509672
 30
0.0
  0
VERTEX
  8
0
 10
483.55893875637923
 20
481.2263269817224
 30
0.0
  0
VERTEX
  8
0
 10
472.1367670646666
 20
484.5306053437665
 30
0.0
  0
VERTEX
  8
0
 10
460.361731931504
 20
486.9388404811564
 30
0.0
  0
VERTEX
  8
0
 10
448.27263191283396
 20
488.4122338379486
 30
0.0
  0
VERTEX
  8
0
 10
435.9082655646
 20
488.9119868582
 30
0.0
  0
SEQEND
  0
POLYLINE
 62
2
  8
0
 66
1
 10
0.0
 20
0.0
 30
0.0
 70
8
  0
VERTEX
  8
0
 10
435.9082655646
 20
488.9119868582
 30
0.0
  0
VERTEX
  8
0
 10
423.54389921637954
 20
488.4122338379485
 30
0.0
  0
VERTEX
  8
0
 10
411.4547991977205
 20
486.9388404811564
 30
0.0
  0
VERTEX
  8
0
 10
399.67976406456586
 20
484.5306053437665
 30
0.0
  0
VERTEX
  8
0
 10
388.25759237285934
 20
481.2263269817225
 30
0.0
  0
VERTEX
  8
0
 10
377.22708267854375
 20
477.0648039509672
 30
0.0
  0
VERTEX
  8
0
 10
366.6270335375628
 20
472.0848348074441
 30
0.0
  0
VERTEX
  8
0
 10
356.4962435058596
 20
466.32521810709625
 30
0.0
  0
VERTEX
  8
0
 10
346.8735111393776
 20
459.82475240586723
 30
0.0
  0
VERTEX
  8
0
 10
337.79763499406
 20
452.6222362596999
 30
0.0
  0
VERTEX
  8
0
 10
329.30741362585
 20
444.7564682245375
 30
0.0
  0
VERTEX
  8
0
 10
321.4416455906911
 20
436.26624685632345
 30
0.0
  0
VERTEX
  8
0
 10
314.23912944452644
 20
427.1903707110008
 30
0.0
  0
VERTEX
  8
0
 10
307.73866374329936
 20
417.5676383445129
 30
0.0
  0
VERTEX
  8
0
 10
301.9790470429532
 20
407.43684831280285
 30
0.0
  0
VERTEX
  8
0
 10
296.9990778994313
 20
396.83679917181405
 30
0.0
  0
VERTEX
  8
0
 10
292.8375548686769
 20
385.8062894774896
 30
0.0
  0
VERTEX
  8
0
 10
289.5332765066332
 20
374.3841177857727
 30
0.0
  0
VERTEX
  8
0
 10
287.1250413692436
 20
362.60908265260673
 30
0.0
  0
VERTEX
  8
0
 10
285.65164801245146
 20
350.51998263393466
 30
0.0
  0
VERTEX
  8
0
 10
285.1518949922
 20
338.1556162857
 30
0.0
  0
SEQEND
  0
POLYLINE
 62
4
  8
0
 66
1
 10
0.0
 20
0.0
 30
0.0
 70
1
  0
VERTEX
  8
0
 10
371.2709809381
 20
282.526271033
 30
0.0
  0
VERTEX
  8
0
 10
377.3360665363
 20
279.0758955392
 30
0.0
  0
VERTEX
  8
0
 10
385.7827844008
 20
278.372826145
 30
0.0
  0
VERTEX
  8
0
 10
396.2865319009
 20
280.444081413
 30
0.0
  0
VERTEX
  8
0
 10
408.4436559108
 20
285.2100641648
 30
0.0
  0
VERTEX
  8
0
 10
421.7869649726
 20
292.487620356
 30
0.0
  0
VERTEX
  8
0
 10
435.803683202
 20
301.9970775836
 30
0.0
  0
VERTEX
  8
0
 10
449.9551559782
 20
313.3729927392
 30
0.0
  0
VERTEX
  8
0
 10
463.6975501387
 20
326.1781957831
 30
0.0
  0
VERTEX
  8
0
 10
476.5027531825
 20
339.9205899435
 30
0.0
  0
VERTEX
  8
0
 10
487.8786683381
 20
354.0720627197
 30
0.0
  0
VERTEX
  8
0
 10
497.3881255657
 20
368.0887809491
 30
0.0
  0
VERTEX
  8
0
 10
504.6656817569
 20
381.4320900109
 30
0.0
  0
VERTEX
  8
0
 10
509.4316645087
 20
393.5892140208
 30
0.0
  0
VERTEX
  8
0
 10
511.5029197767
 20
404.092961521
 30
0.0
  0
VERTEX
  8
0
 10
510.7998503826
 20
412.5396793854
 30
0.0
  0
VERTEX
  8
0
 10
507.3494748887
 20
418.6047649837
 30
0.0
  0
VERTEX
  8
0
 10
501.2843892905
 20
422.0551404775
 30
0.0
  0
VERTEX
  8
0
 10
492.837671426
 20
422.7582098717
 30
0.0
  0
VERTEX
  8
0
 10
482.3339239259
 20
420.6869546037
 30
0.0
  0
VERTEX
  8
0
 10
470.176799916
 20
415.9209718519
 30
0.0
  0
VERTEX
  8
0
 10
456.8334908542
 20
408.6434156606
 30
0.0
  0
VERTEX
  8
0
 10
442.8167726248
 20
399.1339584331
 30
0.0
  0
VERTEX
  8
0
 10
428.6652998486
 20
387.7580432775
 30
0.0
  0
VERTEX
  8
0
 10
414.9229056881
 20
374.9528402336
 30
0.0
  0
VERTEX
  8
0
 10
402.1177026442
 20
361.2104460732
 30
0.0
  0
VERTEX
  8
0
 10
390.7417874887
 20
347.058973297
 30
0.0
  0
VERTEX
  8
0
 10
381.2323302611
 20
333.0422550675
 30
0.0
  0
VERTEX
  8
0
 10
373.9547740698
 20
319.6989460057
 30
0.0
  0
VERTEX
  8
0
 10
369.188791318
 20
307.5418219958
 30
0.0
  0
VERTEX
  8
0
 10
367.11753605
 20
297.0380744957
 30
0.0
  0
VERTEX
  8
0
 10
367.8206054442
 20
288.5913566312
 30
0.0
  0
SEQEND
  0
LINE
 62
2
  8
0
 10
189.8329890039
 20
443.5524888746
 30
0.0
 11
189.8329890039
 21
549.0133216864
 31
0.0
  0
POLYLINE
 62
2
  8
0
 66
1
 10
0.0
 20
0.0
 30
0.0
 70
8
  0
VERTEX
  8
0
 10
189.8329890039
 20
549.0133216864
 30
0.0
  0
VERTEX
  8
0
 10
192.34411326094045
 20
548.9118250228158
 30
0.0
  0
VERTEX
  8
0
 10
194.7993326751567
 20
548.6125881922184
 30
0.0
  0
VERTEX
  8
0
 10
197.19076750631598
 20
548.1234909348402
 30
0.0
  0
VERTEX
  8
0
 10
199.51053801418564
 20
547.4524129909146
 30
0.0
  0
VERTEX
  8
0
 10
201.75076445853284
 20
546.6072341006735
 30
0.0
  0
VERTEX
  8
0
 10
203.90356709912487
 20
545.5958340043501
 30
0.0
  0
VERTEX
  8
0
 10
205.96106619572913
 20
544.426092442177
 30
0.0
  0
VERTEX
  8
0
 10
207.91538200811283
 20
543.1058891543873
 30
0.0
  0
VERTEX
  8
0
 10
209.75863479604322
 20
541.6431038812133
 30
0.0
  0
VERTEX
  8
0
 10
211.4829448192875
 20
540.0456163628876
 30
0.0
  0
VERTEX
  8
0
 10
213.0804323376131
 20
538.3213063396432
 30
0.0
  0
VERTEX
  8
0
 10
214.5432176107872
 20
536.4780535517128
 30
0.0
  0
VERTEX
  8
0
 10
215.8634208985771
 20
534.5237377393291
 30
0.0
  0
VERTEX
  8
0
 10
217.03316246075008
 20
532.4662386427249
 30
0.0
  0
VERTEX
  8
0
 10
218.04456255707342
 20
530.3134360021328
 30
0.0
  0
VERTEX
  8
0
 10
218.8897414473144
 20
528.0732095577857
 30
0.0
  0
VERTEX
  8
0
 10
219.56081939124024
 20
525.7534390499161
 30
0.0
  0
VERTEX
  8
0
 10
220.0499166486183
 20
523.3620042187567
 30
0.0
  0
VERTEX
  8
0
 10
220.3491534792158
 20
520.9067848045405
 30
0.0
  0
VERTEX
  8
0
 10
220.4506501428
 20
518.3956605475
 30
0.0
  0
SEQEND
  0
POLYLINE
 62
2
  8
0
 66
1
 10
0.0
 20
0.0
 30
0.0
 70
8
  0
VERTEX
  8
0
 10
220.4506501428
 20
518.3956605475
 30
0.0
  0
VERTEX
  8
0
 10
220.34915347921574
 20
515.8845362904596
 30
0.0
  0
VERTEX
  8
0
 10
220.04991664861834
 20
513.4293168762434
 30
0.0
  0
VERTEX
  8
0
 10
219.56081939124022
 20
511.037882045084
 30
0.0
  0
VERTEX
  8
0
 10
218.88974144731444
 20
508.7181115372146
 30
0.0
  0
VERTEX
  8
0
 10
218.04456255707342
 20
506.4778850928672
 30
0.0
  0
VERTEX
  8
0
 10
217.03316246075008
 20
504.3250824522751
 30
0.0
  0
VERTEX
  8
0
 10
215.8634208985771
 20
502.2675833556708
 30
0.0
  0
VERTEX
  8
0
 10
214.54321761078722
 20
500.3132675432872
 30
0.0
  0
VERTEX
  8
0
 10
213.08043233761313
 20
498.470014755357
 30
0.0
  0
VERTEX
  8
0
 10
211.48294481928747
 20
496.74570473211253
 30
0.0
  0
VERTEX
  8
0
 10
209.75863479604317
 20
495.14821721378695
 30
0.0
  0
VERTEX
  8
0
 10
207.9153820081128
 20
493.6854319406128
 30
0.0
  0
VERTEX
  8
0
 10
205.96106619572913
 20
492.3652286528229
 30
0.0
  0
VERTEX
  8
0
 10
203.9035670991249
 20
491.1954870906499
 30
0.0
  0
VERTEX
  8
0
 10
201.7507644585328
 20
490.18408699432655
 30
0.0
  0
VERTEX
  8
0
 10
199.5105380141856
 20
489.33890810408565
 30
0.0
  0
VERTEX
  8
0
 10
197.19076750631598
 20
488.6678301601597
 30
0.0
  0
VERTEX
  8
0
 10
194.7993326751567
 20
488.17873290278175
 30
0.0
  0
VERTEX
  8
0
 10
192.34411326094047
 20
487.8794960721842
 30
0.0
  0
VERTEX
  8
0
 10
189.8329890039
 20
487.7779994086
 30
0.0
  0
SEQEND
  0
POLYLINE
 62
2
  8
0
 66
1
 10
0.0
 20
0.0
 30
0.0
 70
0
  0
VERTEX
  8
0
 10
238.5944493362
 20
446.9544512234
 30
0.0
  0
VERTEX
  8
0
 10
244.5645493549
 20
449.632884813
 30
0.0
  0
VERTEX
  8
0
 10
250.4717970152
 20
452.3075277043
 30
0.0
  0
VERTEX
  8
0
 10
256.2533399584
 20
454.974589199
 30
0.0
  0
VERTEX
  8
0
 10
261.8463258262
 20
457.6302785988
 30
0.0
  0
VERTEX
  8
0
 10
267.18790226
 20
460.2708052053
 30
0.0
  0
VERTEX
  8
0
 10
272.2152169013
 20
462.8923783204
 30
0.0
  0
VERTEX
  8
0
 10
276.8654173917
 20
465.4912072455
 30
0.0
  0
VERTEX
  8
0
 10
281.0756513725
 20
468.0635012825
 30
0.0
  0
VERTEX
  8
0
 10
284.7830664854
 20
470.6054697331
 30
0.0
  0
VERTEX
  8
0
 10
287.9248103719
 20
473.1133218989
 30
0.0
  0
VERTEX
  8
0
 10
290.4380306734
 20
475.5832670816
 30
0.0
  0
VERTEX
  8
0
 10
292.2598750314
 20
478.0115145829
 30
0.0
  0
VERTEX
  8
0
 10
293.3274910875
 20
480.3942737046
 30
0.0
  0
VERTEX
  8
0
 10
293.5780264831
 20
482.7277537482
 30
0.0
  0
VERTEX
  8
0
 10
292.9486288598
 20
485.0081640155
 30
0.0
  0
VERTEX
  8
0
 10
291.3771906975
 20
487.2317703093
 30
0.0
  0
VERTEX
  8
0
 10
288.8782813843
 20
489.4006548998
 30
0.0
  0
VERTEX
  8
0
 10
285.6086529303
 20
491.5276855808
 30
0.0
  0
VERTEX
  8
0
 10
281.7404908842
 20
493.6269008854
 30
0.0
  0
VERTEX
  8
0
 10
277.4459807945
 20
495.7123393467
 30
0.0
  0
VERTEX
  8
0
 10
272.8973082101
 20
497.7980394978
 30
0.0
  0
VERTEX
  8
0
 10
268.2666586796
 20
499.8980398718
 30
0.0
  0
VERTEX
  8
0
 10
263.7262177517
 20
502.0263790019
 30
0.0
  0
VERTEX
  8
0
 10
259.448170975
 20
504.1970954212
 30
0.0
  0
VERTEX
  8
0
 10
255.6047038982
 20
506.4242276627
 30
0.0
  0
VERTEX
  8
0
 10
252.36800207
 20
508.7218142597
 30
0.0
  0
VERTEX
  8
0
 10
249.9102510391
 20
511.1038937452
 30
0.0
  0
VERTEX
  8
0
 10
248.4019226734
 20
513.5843536593
 30
0.0
  0
VERTEX
  8
0
 10
247.9163826535
 20
516.1685254782
 30
0.0
  0
VERTEX
  8
0
 10
248.3796791506
 20
518.8487604754
 30
0.0
  0
VERTEX
  8
0
 10
249.7055542996
 20
521.6163256346
 30
0.0
  0
VERTEX
  8
0
 10
251.8077502353
 20
524.4624879397
 30
0.0
  0
VERTEX
  8
0
 10
254.6000090925
 20
527.3785143744
 30
0.0
  0
VERTEX
  8
0
 10
257.9960730059
 20
530.3556719226
 30
0.0
  0
VERTEX
  8
0
 10
261.9096841106
 20
533.385227568
 30
0.0
  0
VERTEX
  8
0
 10
266.2545845411
 20
536.4584482944
 30
0.0
  0
VERTEX
  8
0
 10
270.9445164324
 20
539.5666010857
 30
0.0
  0
VERTEX
  8
0
 10
275.8932219193
 20
542.7009529256
 30
0.0
  0
VERTEX
  8
0
 10
281.0144431365
 20
545.8527707979
 30
0.0
  0
VERTEX
  8
0
 10
286.2219222189
 20
549.0133216864
 30
0.0
  0
SEQEND
  0
LINE
 62
2
  8
0
 10
531.3067424195
 20
577.280140213
 30
0.0
 11
568.4812945692
 21
555.8174025223
 31
0.0
  0
LINE
 62
2
  8
0
 10
549.8940184944
 20
566.5487713677
 30
0.0
 11
517.6999119583
 21
510.786943143
 31
0.0
  0
POLYLINE
 62
2
  8
0
 66
1
 10
0.0
 20
0.0
 30
0.0
 70
0
  0
VERTEX
  8
0
 10
583.3715485667
 20
483.4927066833
 30
0.0
  0
VERTEX
  8
0
 10
574.9947928752
 20
481.2481617606
 30
0.0
  0
VERTEX
  8
0
 10
568.1510898759
 20
481.6589419914
 30
0.0
  0
SEQEND
  0
LINE
 62
2
  8
0
 10
568.1510898759
 20
481.6589419914
 30
0.0
 11
560.1851144152
 21
486.258100068
 31
0.0
  0
POLYLINE
 62
2
  8
0
 66
1
 10
0.0
 20
0.0
 30
0.0
 70
0
  0
VERTEX
  8
0
 10
560.1851144152
 20
486.258100068
 30
0.0
  0
VERTEX
  8
0
 10
556.4075168003
 20
491.9795306059
 30
0.0
  0
VERTEX
  8
0
 10
554.1629718776
 20
500.3562862974
 30
0.0
  0
VERTEX
  8
0
 10
556.1068048006
 20
509.8553144502
 30
0.0
  0
SEQEND
  0
LINE
 62
2
  8
0
 10
556.1068048006
 20
509.8553144502
 30
0.0
 11
559.172910185
 21
515.1659647573
 31
0.0
  0
POLYLINE
 62
2
  8
0
 66
1
 10
0.0
 20
0.0
 30
0.0
 70
0
  0
VERTEX
  8
0
 10
559.172910185
 20
515.1659647573
 30
0.0
  0
VERTEX
  8
0
 10
566.4273934151
 20
521.5988875258
 30
0.0
  0
VERTEX
  8
0
 10
574.8041491066
 20
523.8434324485
 30
0.0
  0
VERTEX
  8
0
 10
581.6478521059
 20
523.4326522177
 30
0.0
  0
SEQEND
  0
LINE
 62
2
  8
0
 10
581.6478521059
 20
523.4326522177
 30
0.0
 11
589.6138275666
 21
518.8334941411
 31
0.0
  0
POLYLINE
 62
2
  8
0
 66
1
 10
0.0
 20
0.0
 30
0.0
 70
0
  0
VERTEX
  8
0
 10
589.6138275666
 20
518.8334941411
 30
0.0
  0
VERTEX
  8
0
 10
593.3914251815
 20
513.1120636032
 30
0.0
  0
VERTEX
  8
0
 10
594.5136976428
 20
508.9236857575
 30
0.0
  0
VERTEX
  8
0
 10
594.102917412
 20
502.0799827582
 30
0.0
  0
SEQEND
  0
LINE
 62
2
  8
0
 10
594.102917412
 20
502.0799827582
 30
0.0
 11
591.0368120276
 21
496.7693324511
 31
0.0
  0
LINE
 62
2
  8
0
 10
591.0368120276
 20
496.7693324511
 30
0.0
 11
559.172910185
 21
515.1659647573
 31
0.0
  0
LINE
 62
2
  8
0
 10
645.3756557912
 20
486.6393876051
 30
0.0
 11
594.7043414114
 21
466.3284150695
 31
0.0
  0
LINE
 62
2
  8
0
 10
616.1670791021
 20
503.5029672192
 30
0.0
 11
623.9129181005
 21
449.4648354554
 31
0.0
  0
LINE
 62
2
  8
0
 10
658.652281559
 20
478.9741241442
 30
0.0
 11
677.2395576339
 21
468.2427552988
 31
0.0
  0
POLYLINE
 62
2
  8
0
 66
1
 10
0.0
 20
0.0
 30
0.0
 70
0
  0
VERTEX
  8
0
 10
677.349625865
 20
492.9622421425
 30
0.0
  0
VERTEX
  8
0
 10
651.2877300977
 20
447.8217145321
 30
0.0
  0
VERTEX
  8
0
 10
649.3438971747
 20
438.3226863792
 30
0.0
  0
VERTEX
  8
0
 10
653.1214947896
 20
432.6012558413
 30
0.0
  0
SEQEND
  0
LINE
 62
2
  8
0
 10
653.1214947896
 20
432.6012558413
 30
0.0
 11
658.4321450967
 21
429.5351504569
 31
0.0
  0
ENDSEC
  0
EOF
