  0
SECTION
  2
HEADER
  9
$ACADVER
  1
AC1009
  9
$EXTMAX
 10
100.0
 20
100.0
 30
0.0
  9
$EXTMIN
 10
0.0
 20
0.0
 30
0.0
  9
$INSBASE
 10
0.0
 20
0.0
 30
0.0
  0
ENDSEC
  0
SECTION
  2
TABLES
  0
TABLE
  2
LTYPE
 70
19
  0
LTYPE
  2
CONTINUOUS
 70
0
  3
Solid
 72
65
 73
0
 40
0.0
  0
LTYPE
  2
DASHEDX2
 70
0
  3
Dashed (2x) ____  ____  ____  ____  ____  ____
 72
65
 73
2
 40
1.2
 49
1.0
 49
-0.2
  0
LTYPE
  2
PHANTOMX2
 70
0
  3
Phantom (2x)____________    ____    ____    ____________
 72
65
 73
6
 40
4.25
 49
2.5
 49
-0.25
 49
0.5
 49
-0.25
 49
0.5
 49
-0.25
  0
LTYPE
  2
DASHED2
 70
0
  3
Dashed (.5x) _ _ _ _ _ _ _ _ _ _ _ _ _ _
 72
65
 73
2
 40
0.3
 49
0.25
 49
-0.05
  0
LTYPE
  2
DOT2
 70
0
  3
Dot (.5) . . . . . . . . . . . . . . . . . . . 
 72
65
 73
2
 40
0.1
 49
0.0
 49
-0.1
  0
LTYPE
  2
DOTX2
 70
0
  3
Dot (2x) .    .    .    .    .    .    .    . 
 72
65
 73
2
 40
0.4
 49
0.0
 49
-0.4
  0
LTYPE
  2
DASHED
 70
0
  3
Dashed __ __ __ __ __ __ __ __ __ __ __ __ __ _
 72
65
 73
2
 40
0.6
 49
0.5
 49
-0.1
  0
LTYPE
  2
CENTER2
 70
0
  3
Center (.5x) ____ _ ____ _ ____ _ ____ _ ____
 72
65
 73
4
 40
1.0
 49
0.625
 49
-0.125
 49
0.125
 49
-0.125
  0
LTYPE
  2
CENTERX2
 70
0
  3
Center (2x) ________  __  ________  __  ________
 72
65
 73
4
 40
3.5
 49
2.5
 49
-0.25
 49
0.5
 49
-0.25
  0
LTYPE
  2
DASHDOTX2
 70
0
  3
Dash dot (2x) ____  .  ____  .  ____  .  ____
 72
65
 73
4
 40
2.4
 49
2.0
 49
-0.2
 49
0.0
 49
-0.2
  0
LTYPE
  2
DIVIDEX2
 70
0
  3
Divide (2x) ____  . .  ____  . .  ____  . .  ____
 72
65
 73
6
 40
2.6
 49
2.0
 49
-0.2
 49
0.0
 49
-0.2
 49
0.0
 49
-0.2
  0
LTYPE
  2
DIVIDE2
 70
0
  3
Divide(.5x) _ . _ . _ . _ . _ . _ . _ . _
 72
65
 73
6
 40
0.8
 49
0.5
 49
-0.1
 49
0.0
 49
-0.1
 49
0.0
 49
-0.1
  0
LTYPE
  2
PHANTOM2
 70
0
  3
Phantom (.5x) ___ _ _ ___ _ _ ___ _ _ ___ _ _ ___
 72
65
 73
6
 40
1.25
 49
0.625
 49
-0.125
 49
0.125
 49
-0.125
 49
0.125
 49
-0.125
  0
LTYPE
  2
CENTER
 70
0
  3
Center ____ _ ____ _ ____ _ ____ _ ____ _ ____
 72
65
 73
4
 40
2.0
 49
1.25
 49
-0.25
 49
0.25
 49
-0.25
  0
LTYPE
  2
DASHDOT
 70
0
  3
Dash dot __ . __ . __ . __ . __ . __ . __ . __
 72
65
 73
4
 40
1.4
 49
1.0
 49
-0.2
 49
0.0
 49
-0.2
  0
LTYPE
  2
DOT
 70
0
  3
Dot .  .  .  .  .  .  .  .  .  .  .  .  .  .  .  .
 72
65
 73
2
 40
0.2
 49
0.0
 49
-0.2
  0
LTYPE
  2
DIVIDE
 70
0
  3
Divide __ . . __ . . __ . . __ . . __ . . __
 72
65
 73
6
 40
1.6
 49
1.0
 49
-0.2
 49
0.0
 49
-0.2
 49
0.0
 49
-0.2
  0
LTYPE
  2
PHANTOM
 70
0
  3
Phantom ______  __  __  ______  __  __  ______
 72
65
 73
6
 40
2.5
 49
1.25
 49
-0.25
 49
0.25
 49
-0.25
 49
0.25
 49
-0.25
  0
LTYPE
  2
DASHDOT2
 70
0
  3
Dash dot (.5x) _ . _ . _ . _ . _ . _ . _ . _
 72
65
 73
4
 40
0.7
 49
0.5
 49
-0.1
 49
0.0
 49
-0.1
  0
ENDTAB
  0
TABLE
  2
LAYER
 70
0
  0
ENDTAB
  0
TABLE
  2
STYLE
 70
0
  0
ENDTAB
  0
TABLE
  2
VIEW
 70
0
  0
ENDTAB
  0
TABLE
  2
APPID
 70
1
  0
APPID
  2
DXFWRITE
 70
0
  0
ENDTAB
  0
TABLE
  2
VPORT
 70
0
  0
ENDTAB
  0
TABLE
  2
UCS
 70
0
  0
ENDTAB
  0
ENDSEC
  0
SECTION
  2
BLOCKS
  0
ENDSEC
  0
SECTION
  2
ENTITIES
  0
VIEWPORT
  8
VIEWPORTS
 67
1
 10
0.0
 20
0.0
 30
0.0
 40
1.0
 41
1.0
 68
1
 69
1
1001
ACAD
1000
MVIEW
1002
{
1070
16
1010
0.0
1020
0.0
1030
0.0
1010
0.0
1020
0.0
1030
0.0
1040
0.0
1040
1.0
1040
0.0
1040
0.0
1040
50.0
1040
0.0
1040
0.0
1070
0
1070
100
1070
1
1070
3
1070
0
1070
0
1070
0
1070
0
1040
0.0
1040
0.0
1040
0.0
1040
0.1
1040
0.1
1040
0.1
1040
0.1
1070
0
1002
{
1002
}
1002
}
  0
POLYLINE
 62
0
  8
0
 66
1
 10
0.0
 20
0.0
 30
0.0
 70
8
  0
VERTEX
  8
0
 10
415.406
 20
-194.875
 30
0.0
  0
VERTEX
  8
0
 10
415.0768759999999
 20
-186.73202809999998
 30
0.0
  0
VERTEX
  8
0
 10
414.10653800000006
 20
-178.77034680000006
 30
0.0
  0
VERTEX
  8
0
 10
412.520537
 20
-171.0155077
 30
0.0
  0
VERTEX
  8
0
 10
410.3444240000002
 20
-163.49306240000004
 30
0.0
  0
VERTEX
  8
0
 10
407.60375
 20
-156.22856249999998
 30
0.0
  0
VERTEX
  8
0
 10
404.324066
 20
-149.2475596
 30
0.0
  0
VERTEX
  8
0
 10
400.5309229999999
 20
-142.57560529999998
 30
0.0
  0
VERTEX
  8
0
 10
396.249872
 20
-136.23825119999998
 30
0.0
  0
VERTEX
  8
0
 10
391.5064640000001
 20
-130.26104890000002
 30
0.0
  0
VERTEX
  8
0
 10
386.32625
 20
-124.66955000000002
 30
0.0
  0
VERTEX
  8
0
 10
380.734781
 20
-119.48930610000002
 30
0.0
  0
VERTEX
  8
0
 10
374.757608
 20
-114.7458688
 30
0.0
  0
VERTEX
  8
0
 10
368.42028199999993
 20
-110.46478970000001
 30
0.0
  0
VERTEX
  8
0
 10
361.74835399999995
 20
-106.67162040000001
 30
0.0
  0
VERTEX
  8
0
 10
354.767375
 20
-103.3919125
 30
0.0
  0
VERTEX
  8
0
 10
347.50289599999996
 20
-100.65121760000001
 30
0.0
  0
VERTEX
  8
0
 10
339.980468
 20
-98.4750873
 30
0.0
  0
VERTEX
  8
0
 10
332.225642
 20
-96.88907320000001
 30
0.0
  0
VERTEX
  8
0
 10
324.263969
 20
-95.9187269
 30
0.0
  0
VERTEX
  8
0
 10
316.121
 20
-95.5896
 30
0.0
  0
SEQEND
  0
POLYLINE
 62
0
  8
0
 66
1
 10
0.0
 20
0.0
 30
0.0
 70
8
  0
VERTEX
  8
0
 10
316.199
 20
-95.5897
 30
0.0
  0
VERTEX
  8
0
 10
308.05602374999995
 20
-95.91882617499998
 30
0.0
  0
VERTEX
  8
0
 10
300.09433
 20
-96.8891704
 30
0.0
  0
VERTEX
  8
0
 10
292.33947125
 20
-98.47518122499999
 30
0.0
  0
VERTEX
  8
0
 10
284.81700000000006
 20
-100.65130720000002
 30
0.0
  0
VERTEX
  8
0
 10
277.55246875
 20
-103.39199687499999
 30
0.0
  0
VERTEX
  8
0
 10
270.57142999999996
 20
-106.6716988
 30
0.0
  0
VERTEX
  8
0
 10
263.89943624999995
 20
-110.46486152499999
 30
0.0
  0
VERTEX
  8
0
 10
257.56204
 20
-114.7459336
 30
0.0
  0
VERTEX
  8
0
 10
251.58479375000007
 20
-119.48936357500003
 30
0.0
  0
VERTEX
  8
0
 10
245.99325000000002
 20
-124.6696
 30
0.0
  0
VERTEX
  8
0
 10
240.81296125000003
 20
-130.26109142500002
 30
0.0
  0
VERTEX
  8
0
 10
236.06947999999997
 20
-136.2382864
 30
0.0
  0
VERTEX
  8
0
 10
231.78835875000001
 20
-142.575633475
 30
0.0
  0
VERTEX
  8
0
 10
227.99515000000002
 20
-149.2475812
 30
0.0
  0
VERTEX
  8
0
 10
224.71540625
 20
-156.228578125
 30
0.0
  0
VERTEX
  8
0
 10
221.97468000000003
 20
-163.49307280000002
 30
0.0
  0
VERTEX
  8
0
 10
219.79852375
 20
-171.015513775
 30
0.0
  0
VERTEX
  8
0
 10
218.21249000000003
 20
-178.77034960000003
 30
0.0
  0
VERTEX
  8
0
 10
217.24213125
 20
-186.73202882500001
 30
0.0
  0
VERTEX
  8
0
 10
216.913
 20
-194.875
 30
0.0
  0
SEQEND
  0
POLYLINE
 62
0
  8
0
 66
1
 10
0.0
 20
0.0
 30
0.0
 70
8
  0
VERTEX
  8
0
 10
415.406
 20
-194.875
 30
0.0
  0
VERTEX
  8
0
 10
415.0768759999999
 20
-203.01797624999998
 30
0.0
  0
VERTEX
  8
0
 10
414.10653800000006
 20
-210.97967000000006
 30
0.0
  0
VERTEX
  8
0
 10
412.520537
 20
-218.73452874999995
 30
0.0
  0
VERTEX
  8
0
 10
410.3444240000002
 20
-226.25700000000006
 30
0.0
  0
VERTEX
  8
0
 10
407.60375
 20
-233.52153125
 30
0.0
  0
VERTEX
  8
0
 10
404.324066
 20
-240.50257
 30
0.0
  0
VERTEX
  8
0
 10
400.5309229999999
 20
-247.17456374999995
 30
0.0
  0
VERTEX
  8
0
 10
396.249872
 20
-253.51196
 30
0.0
  0
VERTEX
  8
0
 10
391.5064640000001
 20
-259.48920625000005
 30
0.0
  0
VERTEX
  8
0
 10
386.32625
 20
-265.08074999999997
 30
0.0
  0
VERTEX
  8
0
 10
380.734781
 20
-270.26103875
 30
0.0
  0
VERTEX
  8
0
 10
374.757608
 20
-275.00452
 30
0.0
  0
VERTEX
  8
0
 10
368.42028199999993
 20
-279.28564124999997
 30
0.0
  0
VERTEX
  8
0
 10
361.74835399999995
 20
-283.07885
 30
0.0
  0
VERTEX
  8
0
 10
354.767375
 20
-286.35859374999995
 30
0.0
  0
VERTEX
  8
0
 10
347.50289599999996
 20
-289.09932000000003
 30
0.0
  0
VERTEX
  8
0
 10
339.980468
 20
-291.27547625
 30
0.0
  0
VERTEX
  8
0
 10
332.225642
 20
-292.86151
 30
0.0
  0
VERTEX
  8
0
 10
324.263969
 20
-293.83186875
 30
0.0
  0
VERTEX
  8
0
 10
316.121
 20
-294.161
 30
0.0
  0
SEQEND
  0
POLYLINE
 62
0
  8
0
 66
1
 10
0.0
 20
0.0
 30
0.0
 70
8
  0
VERTEX
  8
0
 10
217.265
 20
-195.159
 30
0.0
  0
VERTEX
  8
0
 10
217.59413112499996
 20
-203.301833625
 30
0.0
  0
VERTEX
  8
0
 10
218.564489
 20
-211.26339900000002
 30
0.0
  0
VERTEX
  8
0
 10
220.15052037499996
 20
-219.018142875
 30
0.0
  0
VERTEX
  8
0
 10
222.32667200000003
 20
-226.54051200000004
 30
0.0
  0
VERTEX
  8
0
 10
225.06739062499997
 20
-233.804953125
 30
0.0
  0
VERTEX
  8
0
 10
228.34712299999998
 20
-240.785913
 30
0.0
  0
VERTEX
  8
0
 10
232.14031587499994
 20
-247.45783837499997
 30
0.0
  0
VERTEX
  8
0
 10
236.42141600000002
 20
-253.795176
 30
0.0
  0
VERTEX
  8
0
 10
241.16487012500002
 20
-259.77237262500006
 30
0.0
  0
VERTEX
  8
0
 10
246.34512499999997
 20
-265.363875
 30
0.0
  0
VERTEX
  8
0
 10
251.936627375
 20
-270.54412987500007
 30
0.0
  0
VERTEX
  8
0
 10
257.913824
 20
-275.28758400000004
 30
0.0
  0
VERTEX
  8
0
 10
264.251161625
 20
-279.568684125
 30
0.0
  0
VERTEX
  8
0
 10
270.923087
 20
-283.36187700000005
 30
0.0
  0
VERTEX
  8
0
 10
277.90404687499995
 20
-286.64160937500003
 30
0.0
  0
VERTEX
  8
0
 10
285.168488
 20
-289.38232800000003
 30
0.0
  0
VERTEX
  8
0
 10
292.690857125
 20
-291.558479625
 30
0.0
  0
VERTEX
  8
0
 10
300.445601
 20
-293.144511
 30
0.0
  0
VERTEX
  8
0
 10
308.40716637500003
 20
-294.114868875
 30
0.0
  0
VERTEX
  8
0
 10
316.55
 20
-294.444
 30
0.0
  0
SEQEND
  0
POLYLINE
 62
2
  8
0
 66
1
 10
0.0
 20
0.0
 30
0.0
 70
8
  0
VERTEX
  8
0
 10
229.047
 20
-194.022
 30
0.0
  0
VERTEX
  8
0
 10
229.33486024999996
 20
-201.14387524999998
 30
0.0
  0
VERTEX
  8
0
 10
230.18354200000005
 20
-208.10720200000003
 30
0.0
  0
VERTEX
  8
0
 10
231.57069675000002
 20
-214.88963174999995
 30
0.0
  0
VERTEX
  8
0
 10
233.47397600000005
 20
-221.468816
 30
0.0
  0
VERTEX
  8
0
 10
235.87103125000002
 20
-227.82240625
 30
0.0
  0
VERTEX
  8
0
 10
238.73951399999999
 20
-233.928054
 30
0.0
  0
VERTEX
  8
0
 10
242.05707574999994
 20
-239.76341074999996
 30
0.0
  0
VERTEX
  8
0
 10
245.80136800000002
 20
-245.30612800000006
 30
0.0
  0
VERTEX
  8
0
 10
249.95004225000005
 20
-250.53385725000007
 30
0.0
  0
VERTEX
  8
0
 10
254.48075000000003
 20
-255.42425
 30
0.0
  0
VERTEX
  8
0
 10
259.37114275
 20
-259.95495775000006
 30
0.0
  0
VERTEX
  8
0
 10
264.59887200000003
 20
-264.103632
 30
0.0
  0
VERTEX
  8
0
 10
270.14158925
 20
-267.84792425
 30
0.0
  0
VERTEX
  8
0
 10
275.976946
 20
-271.165486
 30
0.0
  0
VERTEX
  8
0
 10
282.08259375
 20
-274.03396875
 30
0.0
  0
VERTEX
  8
0
 10
288.436184
 20
-276.43102400000004
 30
0.0
  0
VERTEX
  8
0
 10
295.01536825
 20
-278.33430325
 30
0.0
  0
VERTEX
  8
0
 10
301.797798
 20
-279.72145800000004
 30
0.0
  0
VERTEX
  8
0
 10
308.76112475
 20
-280.57013975
 30
0.0
  0
VERTEX
  8
0
 10
315.883
 20
-280.858
 30
0.0
  0
SEQEND
  0
POLYLINE
 62
2
  8
0
 66
1
 10
0.0
 20
0.0
 30
0.0
 70
8
  0
VERTEX
  8
0
 10
315.883
 20
-280.858
 30
0.0
  0
VERTEX
  8
0
 10
323.00487525
 20
-280.57013974999995
 30
0.0
  0
VERTEX
  8
0
 10
329.9682020000001
 20
-279.72145800000004
 30
0.0
  0
VERTEX
  8
0
 10
336.75063174999997
 20
-278.33430324999995
 30
0.0
  0
VERTEX
  8
0
 10
343.3298160000001
 20
-276.43102400000004
 30
0.0
  0
VERTEX
  8
0
 10
349.6834062500001
 20
-274.03396875000004
 30
0.0
  0
VERTEX
  8
0
 10
355.789054
 20
-271.16548599999993
 30
0.0
  0
VERTEX
  8
0
 10
361.62441075
 20
-267.84792425
 30
0.0
  0
VERTEX
  8
0
 10
367.167128
 20
-264.10363200000006
 30
0.0
  0
VERTEX
  8
0
 10
372.3948572500001
 20
-259.95495775000006
 30
0.0
  0
VERTEX
  8
0
 10
377.28525
 20
-255.42424999999997
 30
0.0
  0
VERTEX
  8
0
 10
381.81595775000005
 20
-250.53385725
 30
0.0
  0
VERTEX
  8
0
 10
385.964632
 20
-245.30612799999997
 30
0.0
  0
VERTEX
  8
0
 10
389.70892424999994
 20
-239.76341075
 30
0.0
  0
VERTEX
  8
0
 10
393.026486
 20
-233.92805399999997
 30
0.0
  0
VERTEX
  8
0
 10
395.89496875
 20
-227.82240625000003
 30
0.0
  0
VERTEX
  8
0
 10
398.292024
 20
-221.468816
 30
0.0
  0
VERTEX
  8
0
 10
400.19530324999994
 20
-214.88963174999998
 30
0.0
  0
VERTEX
  8
0
 10
401.582458
 20
-208.10720200000003
 30
0.0
  0
VERTEX
  8
0
 10
402.43113975000006
 20
-201.14387524999998
 30
0.0
  0
VERTEX
  8
0
 10
402.719
 20
-194.022
 30
0.0
  0
SEQEND
  0
POLYLINE
 62
2
  8
0
 66
1
 10
0.0
 20
0.0
 30
0.0
 70
8
  0
VERTEX
  8
0
 10
402.719
 20
-194.022
 30
0.0
  0
VERTEX
  8
0
 10
402.43113974999994
 20
-186.90013199999999
 30
0.0
  0
VERTEX
  8
0
 10
401.58245800000003
 20
-179.93682600000002
 30
0.0
  0
VERTEX
  8
0
 10
400.19530324999994
 20
-173.15442899999996
 30
0.0
  0
VERTEX
  8
0
 10
398.29202400000014
 20
-166.57528800000003
 30
0.0
  0
VERTEX
  8
0
 10
395.89496875000003
 20
-160.22175000000001
 30
0.0
  0
VERTEX
  8
0
 10
393.0264859999999
 20
-154.11616199999997
 30
0.0
  0
VERTEX
  8
0
 10
389.70892424999994
 20
-148.28087099999996
 30
0.0
  0
VERTEX
  8
0
 10
385.964632
 20
-142.738224
 30
0.0
  0
VERTEX
  8
0
 10
381.8159577500001
 20
-137.51056800000003
 30
0.0
  0
VERTEX
  8
0
 10
377.28525
 20
-132.62024999999997
 30
0.0
  0
VERTEX
  8
0
 10
372.39485725000003
 20
-128.089617
 30
0.0
  0
VERTEX
  8
0
 10
367.16712799999993
 20
-123.94101599999998
 30
0.0
  0
VERTEX
  8
0
 10
361.62441075
 20
-120.19679399999998
 30
0.0
  0
VERTEX
  8
0
 10
355.78905399999996
 20
-116.87929799999998
 30
0.0
  0
VERTEX
  8
0
 10
349.68340625
 20
-114.010875
 30
0.0
  0
VERTEX
  8
0
 10
343.32981600000005
 20
-111.613872
 30
0.0
  0
VERTEX
  8
0
 10
336.75063174999997
 20
-109.710636
 30
0.0
  0
VERTEX
  8
0
 10
329.968202
 20
-108.32351399999999
 30
0.0
  0
VERTEX
  8
0
 10
323.00487525
 20
-107.474853
 30
0.0
  0
VERTEX
  8
0
 10
315.883
 20
-107.187
 30
0.0
  0
SEQEND
  0
POLYLINE
 62
2
  8
0
 66
1
 10
0.0
 20
0.0
 30
0.0
 70
8
  0
VERTEX
  8
0
 10
315.883
 20
-107.187
 30
0.0
  0
VERTEX
  8
0
 10
308.7611247499999
 20
-107.474853
 30
0.0
  0
VERTEX
  8
0
 10
301.79779800000006
 20
-108.32351400000002
 30
0.0
  0
VERTEX
  8
0
 10
295.01536824999994
 20
-109.710636
 30
0.0
  0
VERTEX
  8
0
 10
288.4361840000001
 20
-111.61387200000001
 30
0.0
  0
VERTEX
  8
0
 10
282.08259375
 20
-114.010875
 30
0.0
  0
VERTEX
  8
0
 10
275.976946
 20
-116.879298
 30
0.0
  0
VERTEX
  8
0
 10
270.14158925
 20
-120.19679399999998
 30
0.0
  0
VERTEX
  8
0
 10
264.59887200000003
 20
-123.94101600000002
 30
0.0
  0
VERTEX
  8
0
 10
259.37114275000005
 20
-128.08961700000003
 30
0.0
  0
VERTEX
  8
0
 10
254.48075
 20
-132.62025
 30
0.0
  0
VERTEX
  8
0
 10
249.95004225000002
 20
-137.510568
 30
0.0
  0
VERTEX
  8
0
 10
245.801368
 20
-142.738224
 30
0.0
  0
VERTEX
  8
0
 10
242.05707575
 20
-148.280871
 30
0.0
  0
VERTEX
  8
0
 10
238.73951399999999
 20
-154.116162
 30
0.0
  0
VERTEX
  8
0
 10
235.87103125000002
 20
-160.22175
 30
0.0
  0
VERTEX
  8
0
 10
233.47397600000002
 20
-166.575288
 30
0.0
  0
VERTEX
  8
0
 10
231.57069675
 20
-173.154429
 30
0.0
  0
VERTEX
  8
0
 10
230.183542
 20
-179.93682600000002
 30
0.0
  0
VERTEX
  8
0
 10
229.33486025000002
 20
-186.900132
 30
0.0
  0
VERTEX
  8
0
 10
229.047
 20
-194.022
 30
0.0
  0
SEQEND
  0
POLYLINE
 62
2
  8
0
 66
1
 10
0.0
 20
0.0
 30
0.0
 70
8
  0
VERTEX
  8
0
 10
174.144
 20
-72.5683
 30
0.0
  0
VERTEX
  8
0
 10
175.59041349999998
 20
-72.62676204999998
 30
0.0
  0
VERTEX
  8
0
 10
177.004628
 20
-72.79912239999999
 30
0.0
  0
VERTEX
  8
0
 10
178.38210449999997
 20
-73.08084234999998
 30
0.0
  0
VERTEX
  8
0
 10
179.71830400000005
 20
-73.46738320000001
 30
0.0
  0
VERTEX
  8
0
 10
181.0086875
 20
-73.95420625
 30
0.0
  0
VERTEX
  8
0
 10
182.248716
 20
-74.53677279999998
 30
0.0
  0
VERTEX
  8
0
 10
183.43385049999998
 20
-75.21054414999998
 30
0.0
  0
VERTEX
  8
0
 10
184.559552
 20
-75.9709816
 30
0.0
  0
VERTEX
  8
0
 10
185.62128150000004
 20
-76.81354645000002
 30
0.0
  0
VERTEX
  8
0
 10
186.6145
 20
-77.7337
 30
0.0
  0
VERTEX
  8
0
 10
187.5346685
 20
-78.72690355
 30
0.0
  0
VERTEX
  8
0
 10
188.377248
 20
-79.78861839999999
 30
0.0
  0
VERTEX
  8
0
 10
189.1376995
 20
-80.91430584999999
 30
0.0
  0
VERTEX
  8
0
 10
189.811484
 20
-82.09942720000001
 30
0.0
  0
VERTEX
  8
0
 10
190.39406250000002
 20
-83.33944375
 30
0.0
  0
VERTEX
  8
0
 10
190.880896
 20
-84.62981680000001
 30
0.0
  0
VERTEX
  8
0
 10
191.2674455
 20
-85.96600765
 30
0.0
  0
VERTEX
  8
0
 10
191.549172
 20
-87.3434776
 30
0.0
  0
VERTEX
  8
0
 10
191.72153649999998
 20
-88.75768795
 30
0.0
  0
VERTEX
  8
0
 10
191.78
 20
-90.2041
 30
0.0
  0
SEQEND
  0
POLYLINE
 62
2
  8
0
 66
1
 10
0.0
 20
0.0
 30
0.0
 70
8
  0
VERTEX
  8
0
 10
191.78
 20
-90.2041
 30
0.0
  0
VERTEX
  8
0
 10
191.72153649999998
 20
-91.650512775
 30
0.0
  0
VERTEX
  8
0
 10
191.54917200000003
 20
-93.0647252
 30
0.0
  0
VERTEX
  8
0
 10
191.26744549999998
 20
-94.442198425
 30
0.0
  0
VERTEX
  8
0
 10
190.88089600000004
 20
-95.77839360000003
 30
0.0
  0
VERTEX
  8
0
 10
190.39406250000002
 20
-97.06877187500001
 30
0.0
  0
VERTEX
  8
0
 10
189.81148399999998
 20
-98.3087944
 30
0.0
  0
VERTEX
  8
0
 10
189.13769949999994
 20
-99.49392232499997
 30
0.0
  0
VERTEX
  8
0
 10
188.377248
 20
-100.61961680000002
 30
0.0
  0
VERTEX
  8
0
 10
187.53466850000007
 20
-101.68133897500003
 30
0.0
  0
VERTEX
  8
0
 10
186.6145
 20
-102.67455
 30
0.0
  0
VERTEX
  8
0
 10
185.6212815
 20
-103.59471102500001
 30
0.0
  0
VERTEX
  8
0
 10
184.559552
 20
-104.4372832
 30
0.0
  0
VERTEX
  8
0
 10
183.43385049999998
 20
-105.197727675
 30
0.0
  0
VERTEX
  8
0
 10
182.248716
 20
-105.8715056
 30
0.0
  0
VERTEX
  8
0
 10
181.0086875
 20
-106.45407812500001
 30
0.0
  0
VERTEX
  8
0
 10
179.718304
 20
-106.94090640000002
 30
0.0
  0
VERTEX
  8
0
 10
178.38210449999997
 20
-107.327451575
 30
0.0
  0
VERTEX
  8
0
 10
177.00462800000003
 20
-107.6091748
 30
0.0
  0
VERTEX
  8
0
 10
175.5904135
 20
-107.78153722500001
 30
0.0
  0
VERTEX
  8
0
 10
174.144
 20
-107.84
 30
0.0
  0
SEQEND
  0
LINE
 62
1
  8
0
 10
151.991
 20
-49.44
 30
0.0
 11
151.991
 21
-336.62
 31
0.0
  0
LINE
 62
4
  8
0
 10
151.991
 20
-336.62
 30
0.0
 11
461.591
 21
-336.62
 31
0.0
  0
LINE
 62
5
  8
0
 10
461.591
 20
-336.62
 30
0.0
 11
461.591
 21
-49.44
 31
0.0
  0
LINE
 62
3
  8
0
 10
461.591
 20
-49.44
 30
0.0
 11
151.99099999999999
 21
-49.44
 31
0.0
  0
LINE
 62
0
  8
0
 10
175.592
 20
-385.44
 30
0.0
 11
175.592
 21
-344.232
 31
0.0
  0
LINE
 62
0
  8
0
 10
161.856
 20
-344.232
 30
0.0
 11
189.328
 21
-344.232
 31
0.0
  0
LINE
 62
0
  8
0
 10
203.064
 20
-371.704
 30
0.0
 11
223.669
 21
-371.704
 31
0.0
  0
LINE
 62
0
  8
0
 10
223.669
 20
-371.704
 30
0.0
 11
230.537
 21
-364.836
 31
0.0
  0
LINE
 62
0
  8
0
 10
230.537
 20
-364.836
 30
0.0
 11
223.669
 21
-357.968
 31
0.0
  0
LINE
 62
0
  8
0
 10
223.669
 20
-357.968
 30
0.0
 11
209.932
 21
-357.968
 31
0.0
  0
LINE
 62
0
  8
0
 10
209.932
 20
-357.968
 30
0.0
 11
203.064
 21
-364.836
 31
0.0
  0
LINE
 62
0
  8
0
 10
203.064
 20
-364.836
 30
0.0
 11
203.064
 21
-378.572
 31
0.0
  0
LINE
 62
0
  8
0
 10
203.064
 20
-378.572
 30
0.0
 11
209.932
 21
-385.44
 31
0.0
  0
LINE
 62
0
  8
0
 10
209.932
 20
-385.44
 30
0.0
 11
223.669
 21
-385.44
 31
0.0
  0
LINE
 62
0
  8
0
 10
244.273
 20
-385.44
 30
0.0
 11
264.877
 21
-385.44
 31
0.0
  0
LINE
 62
0
  8
0
 10
264.877
 20
-385.44
 30
0.0
 11
271.745
 21
-378.572
 31
0.0
  0
LINE
 62
0
  8
0
 10
271.745
 20
-378.572
 30
0.0
 11
264.877
 21
-371.704
 31
0.0
  0
LINE
 62
0
  8
0
 10
264.877
 20
-371.704
 30
0.0
 11
251.141
 21
-371.704
 31
0.0
  0
LINE
 62
0
  8
0
 10
251.141
 20
-371.704
 30
0.0
 11
244.273
 21
-364.836
 31
0.0
  0
LINE
 62
0
  8
0
 10
244.273
 20
-364.836
 30
0.0
 11
251.141
 21
-357.968
 31
0.0
  0
LINE
 62
0
  8
0
 10
251.141
 20
-357.968
 30
0.0
 11
271.745
 21
-357.968
 31
0.0
  0
LINE
 62
0
  8
0
 10
299.217
 20
-344.232
 30
0.0
 11
299.217
 21
-378.572
 31
0.0
  0
LINE
 62
0
  8
0
 10
299.217
 20
-378.572
 30
0.0
 11
306.086
 21
-385.44
 31
0.0
  0
LINE
 62
0
  8
0
 10
306.086
 20
-385.44
 30
0.0
 11
312.954
 21
-378.572
 31
0.0
  0
LINE
 62
0
  8
0
 10
285.481
 20
-357.968
 30
0.0
 11
312.954
 21
-357.968
 31
0.0
  0
LINE
 62
0
  8
0
 10
326.69
 20
-385.44
 30
0.0
 11
326.69
 21
-378.572
 31
0.0
  0
LINE
 62
0
  8
0
 10
367.898
 20
-344.232
 30
0.0
 11
367.898
 21
-385.44
 31
0.0
  0
LINE
 62
0
  8
0
 10
367.898
 20
-371.704
 30
0.0
 11
354.162
 21
-357.968
 31
0.0
  0
LINE
 62
0
  8
0
 10
354.162
 20
-357.968
 30
0.0
 11
347.294
 21
-357.968
 31
0.0
  0
LINE
 62
0
  8
0
 10
347.294
 20
-357.968
 30
0.0
 11
340.426
 21
-364.836
 31
0.0
  0
LINE
 62
0
  8
0
 10
340.426
 20
-364.836
 30
0.0
 11
340.426
 21
-378.572
 31
0.0
  0
LINE
 62
0
  8
0
 10
340.426
 20
-378.572
 30
0.0
 11
347.294
 21
-385.44
 31
0.0
  0
LINE
 62
0
  8
0
 10
347.294
 20
-385.44
 30
0.0
 11
354.162
 21
-385.44
 31
0.0
  0
LINE
 62
0
  8
0
 10
354.162
 20
-385.44
 30
0.0
 11
367.898
 21
-371.704
 31
0.0
  0
LINE
 62
0
  8
0
 10
381.634
 20
-385.44
 30
0.0
 11
409.107
 21
-357.968
 31
0.0
  0
LINE
 62
0
  8
0
 10
381.634
 20
-357.968
 30
0.0
 11
409.107
 21
-385.44
 31
0.0
  0
LINE
 62
0
  8
0
 10
429.711
 20
-385.44
 30
0.0
 11
429.711
 21
-351.1
 31
0.0
  0
LINE
 62
0
  8
0
 10
429.711
 20
-351.1
 30
0.0
 11
436.579
 21
-344.232
 31
0.0
  0
LINE
 62
0
  8
0
 10
436.579
 20
-344.232
 30
0.0
 11
443.447
 21
-344.232
 31
0.0
  0
LINE
 62
0
  8
0
 10
443.447
 20
-344.232
 30
0.0
 11
450.315
 21
-351.1
 31
0.0
  0
LINE
 62
0
  8
0
 10
422.843
 20
-364.836
 30
0.0
 11
443.447
 21
-364.836
 31
0.0
  0
LINE
 62
4
  8
0
 10
278.652
 20
-226.065
 30
0.0
 11
282.146
 21
-228.052
 31
0.0
  0
LINE
 62
4
  8
0
 10
282.146
 20
-228.052
 30
0.0
 11
287.011
 21
-228.457
 31
0.0
  0
LINE
 62
4
  8
0
 10
287.011
 20
-228.457
 30
0.0
 11
293.061
 21
-227.264
 31
0.0
  0
LINE
 62
4
  8
0
 10
293.061
 20
-227.264
 30
0.0
 11
300.064
 21
-224.519
 31
0.0
  0
LINE
 62
4
  8
0
 10
300.064
 20
-224.519
 30
0.0
 11
307.749
 21
-220.327
 31
0.0
  0
LINE
 62
4
  8
0
 10
307.749
 20
-220.327
 30
0.0
 11
315.823
 21
-214.85
 31
0.0
  0
LINE
 62
4
  8
0
 10
315.823
 20
-214.85
 30
0.0
 11
323.974
 21
-208.297
 31
0.0
  0
LINE
 62
4
  8
0
 10
323.974
 20
-208.297
 30
0.0
 11
331.89
 21
-200.921
 31
0.0
  0
LINE
 62
4
  8
0
 10
331.89
 20
-200.921
 30
0.0
 11
339.266
 21
-193.006
 31
0.0
  0
LINE
 62
4
  8
0
 10
339.266
 20
-193.006
 30
0.0
 11
345.818
 21
-184.854
 31
0.0
  0
LINE
 62
4
  8
0
 10
345.818
 20
-184.854
 30
0.0
 11
351.296
 21
-176.781
 31
0.0
  0
LINE
 62
4
  8
0
 10
351.296
 20
-176.781
 30
0.0
 11
355.487
 21
-169.095
 31
0.0
  0
LINE
 62
4
  8
0
 10
355.487
 20
-169.095
 30
0.0
 11
358.233
 21
-162.093
 31
0.0
  0
LINE
 62
4
  8
0
 10
358.233
 20
-162.093
 30
0.0
 11
359.426
 21
-156.042
 31
0.0
  0
LINE
 62
4
  8
0
 10
359.426
 20
-156.042
 30
0.0
 11
359.021
 21
-151.177
 31
0.0
  0
LINE
 62
4
  8
0
 10
359.021
 20
-151.177
 30
0.0
 11
357.033
 21
-147.684
 31
0.0
  0
LINE
 62
4
  8
0
 10
357.033
 20
-147.684
 30
0.0
 11
353.54
 21
-145.696
 31
0.0
  0
LINE
 62
4
  8
0
 10
353.54
 20
-145.696
 30
0.0
 11
348.674
 21
-145.291
 31
0.0
  0
LINE
 62
4
  8
0
 10
348.674
 20
-145.291
 30
0.0
 11
342.624
 21
-146.484
 31
0.0
  0
LINE
 62
4
  8
0
 10
342.624
 20
-146.484
 30
0.0
 11
335.622
 21
-149.23
 31
0.0
  0
LINE
 62
4
  8
0
 10
335.622
 20
-149.23
 30
0.0
 11
327.936
 21
-153.421
 31
0.0
  0
LINE
 62
4
  8
0
 10
327.936
 20
-153.421
 30
0.0
 11
319.862
 21
-158.899
 31
0.0
  0
LINE
 62
4
  8
0
 10
319.862
 20
-158.899
 30
0.0
 11
311.711
 21
-165.451
 31
0.0
  0
LINE
 62
4
  8
0
 10
311.711
 20
-165.451
 30
0.0
 11
303.796
 21
-172.827
 31
0.0
  0
LINE
 62
4
  8
0
 10
303.796
 20
-172.827
 30
0.0
 11
296.42
 21
-180.743
 31
0.0
  0
LINE
 62
4
  8
0
 10
296.42
 20
-180.743
 30
0.0
 11
289.867
 21
-188.894
 31
0.0
  0
LINE
 62
4
  8
0
 10
289.867
 20
-188.894
 30
0.0
 11
284.39
 21
-196.968
 31
0.0
  0
LINE
 62
4
  8
0
 10
284.39
 20
-196.968
 30
0.0
 11
280.198
 21
-204.653
 31
0.0
  0
LINE
 62
4
  8
0
 10
280.198
 20
-204.653
 30
0.0
 11
277.453
 21
-211.656
 31
0.0
  0
LINE
 62
4
  8
0
 10
277.453
 20
-211.656
 30
0.0
 11
276.26
 21
-217.706
 31
0.0
  0
LINE
 62
4
  8
0
 10
276.26
 20
-217.706
 30
0.0
 11
276.665
 21
-222.571
 31
0.0
  0
LINE
 62
4
  8
0
 10
276.665
 20
-222.571
 30
0.0
 11
278.652
 21
-226.065
 31
0.0
  0
LINE
 62
2
  8
0
 10
174.144
 20
-133.314
 30
0.0
 11
174.144
 21
-72.5683
 31
0.0
  0
LINE
 62
2
  8
0
 10
202.23
 20
-131.354
 30
0.0
 11
205.669
 21
-129.811
 31
0.0
  0
LINE
 62
2
  8
0
 10
205.669
 20
-129.811
 30
0.0
 11
209.072
 21
-128.271
 31
0.0
  0
LINE
 62
2
  8
0
 10
209.072
 20
-128.271
 30
0.0
 11
212.402
 21
-126.735
 31
0.0
  0
LINE
 62
2
  8
0
 10
212.402
 20
-126.735
 30
0.0
 11
215.623
 21
-125.205
 31
0.0
  0
LINE
 62
2
  8
0
 10
215.623
 20
-125.205
 30
0.0
 11
218.7
 21
-123.684
 31
0.0
  0
LINE
 62
2
  8
0
 10
218.7
 20
-123.684
 30
0.0
 11
221.596
 21
-122.174
 31
0.0
  0
LINE
 62
2
  8
0
 10
221.596
 20
-122.174
 30
0.0
 11
224.274
 21
-120.677
 31
0.0
  0
LINE
 62
2
  8
0
 10
224.274
 20
-120.677
 30
0.0
 11
226.7
 21
-119.195
 31
0.0
  0
LINE
 62
2
  8
0
 10
226.7
 20
-119.195
 30
0.0
 11
228.835
 21
-117.731
 31
0.0
  0
LINE
 62
2
  8
0
 10
228.835
 20
-117.731
 30
0.0
 11
230.645
 21
-116.287
 31
0.0
  0
LINE
 62
2
  8
0
 10
230.645
 20
-116.287
 30
0.0
 11
232.092
 21
-114.864
 31
0.0
  0
LINE
 62
2
  8
0
 10
232.092
 20
-114.864
 30
0.0
 11
233.142
 21
-113.465
 31
0.0
  0
LINE
 62
2
  8
0
 10
233.142
 20
-113.465
 30
0.0
 11
233.757
 21
-112.093
 31
0.0
  0
LINE
 62
2
  8
0
 10
233.757
 20
-112.093
 30
0.0
 11
233.901
 21
-110.749
 31
0.0
  0
LINE
 62
2
  8
0
 10
233.901
 20
-110.749
 30
0.0
 11
233.538
 21
-109.435
 31
0.0
  0
LINE
 62
2
  8
0
 10
233.538
 20
-109.435
 30
0.0
 11
232.633
 21
-108.155
 31
0.0
  0
LINE
 62
2
  8
0
 10
232.633
 20
-108.155
 30
0.0
 11
231.194
 21
-106.905
 31
0.0
  0
LINE
 62
2
  8
0
 10
231.194
 20
-106.905
 30
0.0
 11
229.311
 21
-105.68
 31
0.0
  0
LINE
 62
2
  8
0
 10
229.311
 20
-105.68
 30
0.0
 11
227.083
 21
-104.471
 31
0.0
  0
LINE
 62
2
  8
0
 10
227.083
 20
-104.471
 30
0.0
 11
224.609
 21
-103.27
 31
0.0
  0
LINE
 62
2
  8
0
 10
224.609
 20
-103.27
 30
0.0
 11
221.989
 21
-102.068
 31
0.0
  0
LINE
 62
2
  8
0
 10
221.989
 20
-102.068
 30
0.0
 11
219.322
 21
-100.859
 31
0.0
  0
LINE
 62
2
  8
0
 10
219.322
 20
-100.859
 30
0.0
 11
216.706
 21
-99.6328
 31
0.0
  0
LINE
 62
2
  8
0
 10
216.706
 20
-99.6328
 30
0.0
 11
214.242
 21
-98.3825
 31
0.0
  0
LINE
 62
2
  8
0
 10
214.242
 20
-98.3825
 30
0.0
 11
212.028
 21
-97.0996
 31
0.0
  0
LINE
 62
2
  8
0
 10
212.028
 20
-97.0996
 30
0.0
 11
210.164
 21
-95.7762
 31
0.0
  0
LINE
 62
2
  8
0
 10
210.164
 20
-95.7762
 30
0.0
 11
208.748
 21
-94.4042
 31
0.0
  0
LINE
 62
2
  8
0
 10
208.748
 20
-94.4042
 30
0.0
 11
207.88
 21
-92.9754
 31
0.0
  0
LINE
 62
2
  8
0
 10
207.88
 20
-92.9754
 30
0.0
 11
207.6
 21
-91.4869
 31
0.0
  0
LINE
 62
2
  8
0
 10
207.6
 20
-91.4869
 30
0.0
 11
207.867
 21
-89.9431
 31
0.0
  0
LINE
 62
2
  8
0
 10
207.867
 20
-89.9431
 30
0.0
 11
208.63
 21
-88.349
 31
0.0
  0
LINE
 62
2
  8
0
 10
208.63
 20
-88.349
 30
0.0
 11
209.841
 21
-86.7096
 31
0.0
  0
LINE
 62
2
  8
0
 10
209.841
 20
-86.7096
 30
0.0
 11
211.45
 21
-85.03
 31
0.0
  0
LINE
 62
2
  8
0
 10
211.45
 20
-85.03
 30
0.0
 11
213.406
 21
-83.3151
 31
0.0
  0
LINE
 62
2
  8
0
 10
213.406
 20
-83.3151
 30
0.0
 11
215.66
 21
-81.5701
 31
0.0
  0
LINE
 62
2
  8
0
 10
215.66
 20
-81.5701
 30
0.0
 11
218.163
 21
-79.7999
 31
0.0
  0
LINE
 62
2
  8
0
 10
218.163
 20
-79.7999
 30
0.0
 11
220.864
 21
-78.0096
 31
0.0
  0
LINE
 62
2
  8
0
 10
220.864
 20
-78.0096
 30
0.0
 11
223.714
 21
-76.2043
 31
0.0
  0
LINE
 62
2
  8
0
 10
223.714
 20
-76.2043
 30
0.0
 11
226.664
 21
-74.3888
 31
0.0
  0
LINE
 62
2
  8
0
 10
226.664
 20
-74.3888
 30
0.0
 11
229.664
 21
-72.5683
 31
0.0
  0
LINE
 62
2
  8
0
 10
370.833
 20
-56.2866
 30
0.0
 11
392.245
 21
-68.6492
 31
0.0
  0
LINE
 62
2
  8
0
 10
381.539
 20
-62.4679
 30
0.0
 11
362.995
 21
-94.5867
 31
0.0
  0
LINE
 62
2
  8
0
 10
400.822
 20
-110.308
 30
0.0
 11
395.997
 21
-111.601
 31
0.0
  0
LINE
 62
2
  8
0
 10
395.997
 20
-111.601
 30
0.0
 11
392.055
 21
-111.364
 31
0.0
  0
LINE
 62
2
  8
0
 10
392.055
 20
-111.364
 30
0.0
 11
387.467
 21
-108.715
 31
0.0
  0
LINE
 62
2
  8
0
 10
387.467
 20
-108.715
 30
0.0
 11
385.291
 21
-105.42
 31
0.0
  0
LINE
 62
2
  8
0
 10
385.291
 20
-105.42
 30
0.0
 11
383.998
 21
-100.595
 31
0.0
  0
LINE
 62
2
  8
0
 10
383.998
 20
-100.595
 30
0.0
 11
385.118
 21
-95.1233
 31
0.0
  0
LINE
 62
2
  8
0
 10
385.118
 20
-95.1233
 30
0.0
 11
386.884
 21
-92.0644
 31
0.0
  0
LINE
 62
2
  8
0
 10
386.884
 20
-92.0644
 30
0.0
 11
391.062
 21
-88.359
 31
0.0
  0
LINE
 62
2
  8
0
 10
391.062
 20
-88.359
 30
0.0
 11
395.887
 21
-87.0662
 31
0.0
  0
LINE
 62
2
  8
0
 10
395.887
 20
-87.0662
 30
0.0
 11
399.829
 21
-87.3028
 31
0.0
  0
LINE
 62
2
  8
0
 10
399.829
 20
-87.3028
 30
0.0
 11
404.418
 21
-89.9519
 31
0.0
  0
LINE
 62
2
  8
0
 10
404.418
 20
-89.9519
 30
0.0
 11
406.593
 21
-93.2475
 31
0.0
  0
LINE
 62
2
  8
0
 10
406.593
 20
-93.2475
 30
0.0
 11
407.24
 21
-95.66
 31
0.0
  0
LINE
 62
2
  8
0
 10
407.24
 20
-95.66
 30
0.0
 11
407.003
 21
-99.6019
 31
0.0
  0
LINE
 62
2
  8
0
 10
407.003
 20
-99.6019
 30
0.0
 11
405.237
 21
-102.661
 31
0.0
  0
LINE
 62
2
  8
0
 10
405.237
 20
-102.661
 30
0.0
 11
386.884
 21
-92.0644
 31
0.0
  0
LINE
 62
2
  8
0
 10
436.536
 20
-108.496
 30
0.0
 11
407.35
 21
-120.195
 31
0.0
  0
LINE
 62
2
  8
0
 10
419.712
 20
-98.7823
 30
0.0
 11
424.174
 21
-129.908
 31
0.0
  0
LINE
 62
2
  8
0
 10
444.184
 20
-112.911
 30
0.0
 11
454.89
 21
-119.092
 31
0.0
  0
LINE
 62
2
  8
0
 10
454.953
 20
-104.854
 30
0.0
 11
439.942
 21
-130.855
 31
0.0
  0
LINE
 62
2
  8
0
 10
439.942
 20
-130.855
 30
0.0
 11
438.822
 21
-136.326
 31
0.0
  0
LINE
 62
2
  8
0
 10
438.822
 20
-136.326
 30
0.0
 11
440.998
 21
-139.622
 31
0.0
  0
LINE
 62
2
  8
0
 10
440.998
 20
-139.622
 30
0.0
 11
444.057
 21
-141.388
 31
0.0
  0
ENDSEC
  0
EOF
