  0
SECTION
  2
HEADER
  9
$ACADVER
  1
AC1009
  9
$EXTMAX
 10
100.0
 20
100.0
 30
0.0
  9
$EXTMIN
 10
0.0
 20
0.0
 30
0.0
  9
$INSBASE
 10
0.0
 20
0.0
 30
0.0
  0
ENDSEC
  0
SECTION
  2
TABLES
  0
TABLE
  2
LTYPE
 70
19
  0
LTYPE
  2
CONTINUOUS
 70
0
  3
Solid
 72
65
 73
0
 40
0.0
  0
LTYPE
  2
DASHEDX2
 70
0
  3
Dashed (2x) ____  ____  ____  ____  ____  ____
 72
65
 73
2
 40
1.2
 49
1.0
 49
-0.2
  0
LTYPE
  2
PHANTOMX2
 70
0
  3
Phantom (2x)____________    ____    ____    ____________
 72
65
 73
6
 40
4.25
 49
2.5
 49
-0.25
 49
0.5
 49
-0.25
 49
0.5
 49
-0.25
  0
LTYPE
  2
DASHED2
 70
0
  3
Dashed (.5x) _ _ _ _ _ _ _ _ _ _ _ _ _ _
 72
65
 73
2
 40
0.3
 49
0.25
 49
-0.05
  0
LTYPE
  2
DOT2
 70
0
  3
Dot (.5) . . . . . . . . . . . . . . . . . . . 
 72
65
 73
2
 40
0.1
 49
0.0
 49
-0.1
  0
LTYPE
  2
DOTX2
 70
0
  3
Dot (2x) .    .    .    .    .    .    .    . 
 72
65
 73
2
 40
0.4
 49
0.0
 49
-0.4
  0
LTYPE
  2
DASHED
 70
0
  3
Dashed __ __ __ __ __ __ __ __ __ __ __ __ __ _
 72
65
 73
2
 40
0.6
 49
0.5
 49
-0.1
  0
LTYPE
  2
CENTER2
 70
0
  3
Center (.5x) ____ _ ____ _ ____ _ ____ _ ____
 72
65
 73
4
 40
1.0
 49
0.625
 49
-0.125
 49
0.125
 49
-0.125
  0
LTYPE
  2
CENTERX2
 70
0
  3
Center (2x) ________  __  ________  __  ________
 72
65
 73
4
 40
3.5
 49
2.5
 49
-0.25
 49
0.5
 49
-0.25
  0
LTYPE
  2
DASHDOTX2
 70
0
  3
Dash dot (2x) ____  .  ____  .  ____  .  ____
 72
65
 73
4
 40
2.4
 49
2.0
 49
-0.2
 49
0.0
 49
-0.2
  0
LTYPE
  2
DIVIDEX2
 70
0
  3
Divide (2x) ____  . .  ____  . .  ____  . .  ____
 72
65
 73
6
 40
2.6
 49
2.0
 49
-0.2
 49
0.0
 49
-0.2
 49
0.0
 49
-0.2
  0
LTYPE
  2
DIVIDE2
 70
0
  3
Divide(.5x) _ . _ . _ . _ . _ . _ . _ . _
 72
65
 73
6
 40
0.8
 49
0.5
 49
-0.1
 49
0.0
 49
-0.1
 49
0.0
 49
-0.1
  0
LTYPE
  2
PHANTOM2
 70
0
  3
Phantom (.5x) ___ _ _ ___ _ _ ___ _ _ ___ _ _ ___
 72
65
 73
6
 40
1.25
 49
0.625
 49
-0.125
 49
0.125
 49
-0.125
 49
0.125
 49
-0.125
  0
LTYPE
  2
CENTER
 70
0
  3
Center ____ _ ____ _ ____ _ ____ _ ____ _ ____
 72
65
 73
4
 40
2.0
 49
1.25
 49
-0.25
 49
0.25
 49
-0.25
  0
LTYPE
  2
DASHDOT
 70
0
  3
Dash dot __ . __ . __ . __ . __ . __ . __ . __
 72
65
 73
4
 40
1.4
 49
1.0
 49
-0.2
 49
0.0
 49
-0.2
  0
LTYPE
  2
DOT
 70
0
  3
Dot .  .  .  .  .  .  .  .  .  .  .  .  .  .  .  .
 72
65
 73
2
 40
0.2
 49
0.0
 49
-0.2
  0
LTYPE
  2
DIVIDE
 70
0
  3
Divide __ . . __ . . __ . . __ . . __ . . __
 72
65
 73
6
 40
1.6
 49
1.0
 49
-0.2
 49
0.0
 49
-0.2
 49
0.0
 49
-0.2
  0
LTYPE
  2
PHANTOM
 70
0
  3
Phantom ______  __  __  ______  __  __  ______
 72
65
 73
6
 40
2.5
 49
1.25
 49
-0.25
 49
0.25
 49
-0.25
 49
0.25
 49
-0.25
  0
LTYPE
  2
DASHDOT2
 70
0
  3
Dash dot (.5x) _ . _ . _ . _ . _ . _ . _ . _
 72
65
 73
4
 40
0.7
 49
0.5
 49
-0.1
 49
0.0
 49
-0.1
  0
ENDTAB
  0
TABLE
  2
LAYER
 70
0
  0
ENDTAB
  0
TABLE
  2
STYLE
 70
0
  0
ENDTAB
  0
TABLE
  2
VIEW
 70
0
  0
ENDTAB
  0
TABLE
  2
APPID
 70
1
  0
APPID
  2
DXFWRITE
 70
0
  0
ENDTAB
  0
TABLE
  2
VPORT
 70
0
  0
ENDTAB
  0
TABLE
  2
UCS
 70
0
  0
ENDTAB
  0
ENDSEC
  0
SECTION
  2
BLOCKS
  0
ENDSEC
  0
SECTION
  2
ENTITIES
  0
VIEWPORT
  8
VIEWPORTS
 67
1
 10
0.0
 20
0.0
 30
0.0
 40
1.0
 41
1.0
 68
1
 69
1
1001
ACAD
1000
MVIEW
1002
{
1070
16
1010
0.0
1020
0.0
1030
0.0
1010
0.0
1020
0.0
1030
0.0
1040
0.0
1040
1.0
1040
0.0
1040
0.0
1040
50.0
1040
0.0
1040
0.0
1070
0
1070
100
1070
1
1070
3
1070
0
1070
0
1070
0
1070
0
1040
0.0
1040
0.0
1040
0.0
1040
0.1
1040
0.1
1040
0.1
1040
0.1
1070
0
1002
{
1002
}
1002
}
  0
LINE
 62
1
  8
0
 10
-62.99286589414177
 20
237.5874088795047
 30
0.0
 11
-62.99286589414177
 21
-41.17137702848581
 31
0.0
  0
LINE
 62
4
  8
0
 10
-62.99286589414177
 20
-41.17137702848578
 30
0.0
 11
237.52775831893328
 21
-41.17137702848578
 31
0.0
  0
LINE
 62
5
  8
0
 10
237.5277583189333
 20
-41.17137702848578
 30
0.0
 11
237.5277583189333
 21
237.58740887950472
 31
0.0
  0
LINE
 62
3
  8
0
 10
237.5277583189333
 20
237.5874088795047
 30
0.0
 11
-62.992865894141744
 21
237.5874088795047
 31
0.0
  0
ARC
 62
-1
  8
0
 10
96.32370652288125
 20
96.41728504091128
 30
0.0
 40
96.37385535108956
 50
0.0
 51
90.0
  0
ARC
 62
-1
  8
0
 10
96.39913501153552
 20
96.41725552327
 30
0.0
 40
96.37385535108956
 50
90.0
 51
180.0
  0
ARC
 62
-1
  8
0
210
0.0
220
0.0
230
-1.0
 10
-96.32342533244082
 20
96.41685580376247
 30
0.0
 40
96.37385535108953
 50
180.00001755557406
 51
270.00001755557406
  0
ARC
 62
-1
  8
0
 10
96.7405368521571
 20
96.14215743341418
 30
0.0
 40
96.37385535108956
 50
179.99999999999997
 51
-90.00000000000007
  0
TEXT
 62
6
  8
0
 10
-53.41751759932328
 20
-88.55924123038281
 30
0.0
 40
40.0
  1
Test.dxf
  0
CIRCLE
 62
2
  8
0
 10
96.09281346224918
 20
97.24498621269754
 30
0.0
 40
84.28917470557712
  0
POLYLINE
 62
4
  8
0
 66
1
 10
0.0
 20
0.0
 30
0.0
 70
1
  0
VERTEX
  8
0
 10
59.95355542827389
 20
66.14214403786232
 30
0.0
  0
VERTEX
  8
0
 10
63.34459660055487
 20
64.21300962254583
 30
0.0
  0
VERTEX
  8
0
 10
68.0672287192674
 20
63.81991751790341
 30
0.0
  0
VERTEX
  8
0
 10
73.93996368057195
 20
64.97797403306787
 30
0.0
  0
VERTEX
  8
0
 10
80.73711557337327
 20
67.64267570560702
 30
0.0
  0
VERTEX
  8
0
 10
88.19747366231776
 20
71.71161954462708
 30
0.0
  0
VERTEX
  8
0
 10
96.03434056986426
 20
77.02843832028454
 30
0.0
  0
VERTEX
  8
0
 10
103.9465498957214
 20
83.38880966873715
 30
0.0
  0
VERTEX
  8
0
 10
111.6300398727145
 20
90.54830808600128
 30
0.0
  0
VERTEX
  8
0
 10
118.7895382899786
 20
98.2317980629944
 30
0.0
  0
VERTEX
  8
0
 10
125.1499096384312
 20
106.1440073888515
 30
0.0
  0
VERTEX
  8
0
 10
130.4667284140887
 20
113.980874296398
 30
0.0
  0
VERTEX
  8
0
 10
134.5356722531087
 20
121.4412323853425
 30
0.0
  0
VERTEX
  8
0
 10
137.2003739256479
 20
128.2383842781438
 30
0.0
  0
VERTEX
  8
0
 10
138.3584304408124
 20
134.1111192394484
 30
0.0
  0
VERTEX
  8
0
 10
137.9653383361699
 20
138.8337513581609
 30
0.0
  0
VERTEX
  8
0
 10
136.0362039208534
 20
142.2247925304419
 30
0.0
  0
VERTEX
  8
0
 10
132.6451627485725
 20
144.1539269457583
 30
0.0
  0
VERTEX
  8
0
 10
127.9225306298599
 20
144.5470190504008
 30
0.0
  0
VERTEX
  8
0
 10
122.0497956685553
 20
143.3889625352363
 30
0.0
  0
VERTEX
  8
0
 10
115.252643775754
 20
140.7242608626972
 30
0.0
  0
VERTEX
  8
0
 10
107.7922856868095
 20
136.6553170236771
 30
0.0
  0
VERTEX
  8
0
 10
99.95541877926298
 20
131.3384982480196
 30
0.0
  0
VERTEX
  8
0
 10
92.04320945340588
 20
124.978126899567
 30
0.0
  0
VERTEX
  8
0
 10
84.35971947641275
 20
117.8186284823028
 30
0.0
  0
VERTEX
  8
0
 10
77.20022105914863
 20
110.1351385053097
 30
0.0
  0
VERTEX
  8
0
 10
70.83984971069601
 20
102.2229291794526
 30
0.0
  0
VERTEX
  8
0
 10
65.52303093503858
 20
94.38606227190607
 30
0.0
  0
VERTEX
  8
0
 10
61.45408709601853
 20
86.9257041829616
 30
0.0
  0
VERTEX
  8
0
 10
58.78938542347939
 20
80.12855229016026
 30
0.0
  0
VERTEX
  8
0
 10
57.63132890831496
 20
74.25581732885573
 30
0.0
  0
VERTEX
  8
0
 10
58.02442101295742
 20
69.53318521014322
 30
0.0
  0
SEQEND
  0
POLYLINE
 62
2
  8
0
 66
1
 10
0.0
 20
0.0
 30
0.0
 70
0
  0
VERTEX
  8
0
 10
-41.48997589516554
 20
156.1732780874148
 30
0.0
  0
VERTEX
  8
0
 10
-41.48997589516554
 20
215.137330669164
 30
0.0
 42
0.9999999999999999
  0
VERTEX
  8
0
 10
-41.48997589516554
 20
180.9001388475031
 30
0.0
  0
SEQEND
  0
POLYLINE
 62
2
  8
0
 66
1
 10
0.0
 20
0.0
 30
0.0
 70
0
  0
VERTEX
  8
0
 10
-14.22702685199118
 20
158.0753442997293
 30
0.0
  0
VERTEX
  8
0
 10
-10.88909292867196
 20
159.5728794016688
 30
0.0
  0
VERTEX
  8
0
 10
-7.586300295938281
 20
161.0682950918005
 30
0.0
  0
VERTEX
  8
0
 10
-4.353790244375647
 20
162.5594719583164
 30
0.0
  0
VERTEX
  8
0
 10
-1.22670406456959
 20
164.0442905894087
 30
0.0
  0
VERTEX
  8
0
 10
1.759816952894361
 20
165.5206315732696
 30
0.0
  0
VERTEX
  8
0
 10
4.570631517430686
 20
166.9863754980912
 30
0.0
  0
VERTEX
  8
0
 10
7.170598338453845
 20
168.4394029520656
 30
0.0
  0
VERTEX
  8
0
 10
9.524576125378324
 20
169.877594523385
 30
0.0
  0
VERTEX
  8
0
 10
11.59742358761859
 20
171.2988308002414
 30
0.0
  0
VERTEX
  8
0
 10
13.35399943458912
 20
172.7009923708271
 30
0.0
  0
VERTEX
  8
0
 10
14.75916237570439
 20
174.0819598233341
 30
0.0
  0
VERTEX
  8
0
 10
15.77777112037887
 20
175.4396137459547
 30
0.0
  0
VERTEX
  8
0
 10
16.37468437802703
 20
176.7718347268809
 30
0.0
  0
VERTEX
  8
0
 10
16.51476085806335
 20
178.0765033543048
 30
0.0
  0
VERTEX
  8
0
 10
16.16285926990231
 20
179.3515002164187
 30
0.0
  0
VERTEX
  8
0
 10
15.28425476847367
 20
180.5947374916528
 30
0.0
  0
VERTEX
  8
0
 10
13.88709322318152
 20
181.8073793950939
 30
0.0
  0
VERTEX
  8
0
 10
12.05901602196627
 20
182.9966204201541
 30
0.0
  0
VERTEX
  8
0
 10
9.896293576082691
 20
184.1703096306319
 30
0.0
  0
VERTEX
  8
0
 10
7.495196296785569
 20
185.3362960903256
 30
0.0
  0
VERTEX
  8
0
 10
4.951994595329667
 20
186.5024288630335
 30
0.0
  0
VERTEX
  8
0
 10
2.362958882969766
 20
187.6765570125543
 30
0.0
  0
VERTEX
  8
0
 10
-0.1756404290393667
 20
188.8665296026861
 30
0.0
  0
VERTEX
  8
0
 10
-2.567532929442952
 20
190.0801956972274
 30
0.0
  0
VERTEX
  8
0
 10
-4.716448206986218
 20
191.3254043599765
 30
0.0
  0
VERTEX
  8
0
 10
-6.526115850414392
 20
192.6100046547319
 30
0.0
  0
VERTEX
  8
0
 10
-7.900265448472696
 20
193.9418456452919
 30
0.0
  0
VERTEX
  8
0
 10
-8.743584723444627
 20
195.3286919739377
 30
0.0
  0
VERTEX
  8
0
 10
-9.015054296582871
 20
196.7735245145875
 30
0.0
  0
VERTEX
  8
0
 10
-8.756021267079483
 20
198.272066798877
 30
0.0
  0
VERTEX
  8
0
 10
-8.014713144265519
 20
199.819436122839
 30
0.0
  0
VERTEX
  8
0
 10
-6.839357437472037
 20
201.4107497825063
 30
0.0
  0
VERTEX
  8
0
 10
-5.278181656030096
 20
203.0411250739116
 30
0.0
  0
VERTEX
  8
0
 10
-3.379413309270751
 20
204.7056792930876
 30
0.0
  0
VERTEX
  8
0
 10
-1.191279906525061
 20
206.3995297360672
 30
0.0
  0
VERTEX
  8
0
 10
1.237991042875918
 20
208.117793698883
 30
0.0
  0
VERTEX
  8
0
 10
3.860172029601128
 20
209.8555884775679
 30
0.0
  0
VERTEX
  8
0
 10
6.627035544319509
 20
211.6080313681545
 30
0.0
  0
VERTEX
  8
0
 10
9.490354077700008
 20
213.3702396666756
 30
0.0
  0
VERTEX
  8
0
 10
12.40190012041165
 20
215.137330669164
 30
0.0
  0
SEQEND
  0
TEXT
 62
2
  8
0
 10
129.9463018874044
 20
200.6217787130224
 30
0.0
 40
35.99999999999999
  1
Text
  0
ENDSEC
  0
EOF
