  0
SECTION
  2
HEADER
  9
$ACADVER
  1
AC1009
  9
$EXTMIN
 10
0.0
 20
0.0
 30
0.0
  9
$EXTMAX
 10
100.0
 20
100.0
 30
0.0
  9
$INSBASE
 10
0.0
 20
0.0
 30
0.0
  0
ENDSEC
  0
SECTION
  2
TABLES
  0
TABLE
  2
LTYPE
 70
19
  0
LTYPE
  2
PHANTOM
 70
0
  3
Phantom ______  __  __  ______  __  __  ______
 72
65
 73
6
 40
2.5
 49
1.25
 49
-0.25
 49
0.25
 49
-0.25
 49
0.25
 49
-0.25
  0
LTYPE
  2
DOT2
 70
0
  3
Dot (.5) . . . . . . . . . . . . . . . . . . . 
 72
65
 73
2
 40
0.1
 49
0.0
 49
-0.1
  0
LTYPE
  2
DIVIDE
 70
0
  3
Divide __ . . __ . . __ . . __ . . __ . . __
 72
65
 73
6
 40
1.6
 49
1.0
 49
-0.2
 49
0.0
 49
-0.2
 49
0.0
 49
-0.2
  0
LTYPE
  2
DIVIDEX2
 70
0
  3
Divide (2x) ____  . .  ____  . .  ____  . .  ____
 72
65
 73
6
 40
2.6
 49
2.0
 49
-0.2
 49
0.0
 49
-0.2
 49
0.0
 49
-0.2
  0
LTYPE
  2
CENTER
 70
0
  3
Center ____ _ ____ _ ____ _ ____ _ ____ _ ____
 72
65
 73
4
 40
2.0
 49
1.25
 49
-0.25
 49
0.25
 49
-0.25
  0
LTYPE
  2
DASHDOT
 70
0
  3
Dash dot __ . __ . __ . __ . __ . __ . __ . __
 72
65
 73
4
 40
1.4
 49
1.0
 49
-0.2
 49
0.0
 49
-0.2
  0
LTYPE
  2
CENTERX2
 70
0
  3
Center (2x) ________  __  ________  __  ________
 72
65
 73
4
 40
3.5
 49
2.5
 49
-0.25
 49
0.5
 49
-0.25
  0
LTYPE
  2
PHANTOMX2
 70
0
  3
Phantom (2x)____________    ____    ____    ____________
 72
65
 73
6
 40
4.25
 49
2.5
 49
-0.25
 49
0.5
 49
-0.25
 49
0.5
 49
-0.25
  0
LTYPE
  2
CONTINUOUS
 70
0
  3
Solid
 72
65
 73
0
 40
0.0
  0
LTYPE
  2
PHANTOM2
 70
0
  3
Phantom (.5x) ___ _ _ ___ _ _ ___ _ _ ___ _ _ ___
 72
65
 73
6
 40
1.25
 49
0.625
 49
-0.125
 49
0.125
 49
-0.125
 49
0.125
 49
-0.125
  0
LTYPE
  2
DASHED
 70
0
  3
Dashed __ __ __ __ __ __ __ __ __ __ __ __ __ _
 72
65
 73
2
 40
0.6
 49
0.5
 49
-0.1
  0
LTYPE
  2
DASHED2
 70
0
  3
Dashed (.5x) _ _ _ _ _ _ _ _ _ _ _ _ _ _
 72
65
 73
2
 40
0.3
 49
0.25
 49
-0.05
  0
LTYPE
  2
DASHDOT2
 70
0
  3
Dash dot (.5x) _ . _ . _ . _ . _ . _ . _ . _
 72
65
 73
4
 40
0.7
 49
0.5
 49
-0.1
 49
0.0
 49
-0.1
  0
LTYPE
  2
DOTX2
 70
0
  3
Dot (2x) .    .    .    .    .    .    .    . 
 72
65
 73
2
 40
0.4
 49
0.0
 49
-0.4
  0
LTYPE
  2
DIVIDE2
 70
0
  3
Divide(.5x) _ . _ . _ . _ . _ . _ . _ . _
 72
65
 73
6
 40
0.8
 49
0.5
 49
-0.1
 49
0.0
 49
-0.1
 49
0.0
 49
-0.1
  0
LTYPE
  2
CENTER2
 70
0
  3
Center (.5x) ____ _ ____ _ ____ _ ____ _ ____
 72
65
 73
4
 40
1.0
 49
0.625
 49
-0.125
 49
0.125
 49
-0.125
  0
LTYPE
  2
DASHDOTX2
 70
0
  3
Dash dot (2x) ____  .  ____  .  ____  .  ____
 72
65
 73
4
 40
2.4
 49
2.0
 49
-0.2
 49
0.0
 49
-0.2
  0
LTYPE
  2
DOT
 70
0
  3
Dot .  .  .  .  .  .  .  .  .  .  .  .  .  .  .  .
 72
65
 73
2
 40
0.2
 49
0.0
 49
-0.2
  0
LTYPE
  2
DASHEDX2
 70
0
  3
Dashed (2x) ____  ____  ____  ____  ____  ____
 72
65
 73
2
 40
1.2
 49
1.0
 49
-0.2
  0
ENDTAB
  0
TABLE
  2
LAYER
 70
0
  0
ENDTAB
  0
TABLE
  2
STYLE
 70
0
  0
ENDTAB
  0
TABLE
  2
VIEW
 70
0
  0
ENDTAB
  0
TABLE
  2
APPID
 70
1
  0
APPID
  2
DXFWRITE
 70
0
  0
ENDTAB
  0
TABLE
  2
VPORT
 70
0
  0
ENDTAB
  0
TABLE
  2
UCS
 70
0
  0
ENDTAB
  0
ENDSEC
  0
SECTION
  2
BLOCKS
  0
ENDSEC
  0
SECTION
  2
ENTITIES
  0
VIEWPORT
  8
VIEWPORTS
 67
1
 10
0.0
 20
0.0
 30
0.0
 40
1.0
 41
1.0
 68
1
 69
1
1001
ACAD
1000
MVIEW
1002
{
1070
16
1010
0.0
1020
0.0
1030
0.0
1010
0.0
1020
0.0
1030
0.0
1040
0.0
1040
1.0
1040
0.0
1040
0.0
1040
50.0
1040
0.0
1040
0.0
1070
0
1070
100
1070
1
1070
3
1070
0
1070
0
1070
0
1070
0
1040
0.0
1040
0.0
1040
0.0
1040
0.1
1040
0.1
1040
0.1
1040
0.1
1070
0
1002
{
1002
}
1002
}
  0
LINE
  8
0
 10
-62.993
 20
237.587
 30
0.0
 11
-62.993
 21
-41.171
 31
0.0
  0
LINE
  8
0
 10
-62.993
 20
-41.171
 30
0.0
 11
237.528
 21
-41.171
 31
0.0
  0
LINE
  8
0
 10
237.528
 20
-41.171
 30
0.0
 11
237.528
 21
237.587
 31
0.0
  0
LINE
  8
0
 10
237.528
 20
237.587
 30
0.0
 11
-62.993
 21
237.587
 31
0.0
  0
ARC
  8
0
 10
96.324
 20
96.417
 30
0.0
 40
96.374
 50
0.0
 51
90.0
  0
ARC
  8
0
 10
96.399
 20
96.417
 30
0.0
 40
96.374
 50
90.0
 51
180.0
  0
ARC
  8
0
 10
-1208.195
 20
96.417
 30
0.0
 40
96.374
 50
180.0
 51
-90.0
  0
ARC
  8
0
 10
96.741
 20
96.142
 30
0.0
 40
96.374
 50
180.0
 51
-90.0
  0
CIRCLE
  8
0
 10
96.093
 20
97.245
 30
0.0
 40
84.2891747056
  0
POLYLINE
  8
0
 66
1
 10
0.0
 20
0.0
 30
0.0
 70
1
  0
VERTEX
  8
0
 10
59.954
 20
66.142
 30
0.0
  0
VERTEX
  8
0
 10
63.345
 20
64.213
 30
0.0
  0
VERTEX
  8
0
 10
68.067
 20
63.82
 30
0.0
  0
VERTEX
  8
0
 10
73.94
 20
64.978
 30
0.0
  0
VERTEX
  8
0
 10
80.737
 20
67.643
 30
0.0
  0
VERTEX
  8
0
 10
88.197
 20
71.712
 30
0.0
  0
VERTEX
  8
0
 10
96.034
 20
77.028
 30
0.0
  0
VERTEX
  8
0
 10
103.947
 20
83.389
 30
0.0
  0
VERTEX
  8
0
 10
111.63
 20
90.548
 30
0.0
  0
VERTEX
  8
0
 10
118.79
 20
98.232
 30
0.0
  0
VERTEX
  8
0
 10
125.15
 20
106.144
 30
0.0
  0
VERTEX
  8
0
 10
130.467
 20
113.981
 30
0.0
  0
VERTEX
  8
0
 10
134.536
 20
121.441
 30
0.0
  0
VERTEX
  8
0
 10
137.2
 20
128.238
 30
0.0
  0
VERTEX
  8
0
 10
138.358
 20
134.111
 30
0.0
  0
VERTEX
  8
0
 10
137.965
 20
138.834
 30
0.0
  0
VERTEX
  8
0
 10
136.036
 20
142.225
 30
0.0
  0
VERTEX
  8
0
 10
132.645
 20
144.154
 30
0.0
  0
VERTEX
  8
0
 10
127.923
 20
144.547
 30
0.0
  0
VERTEX
  8
0
 10
122.05
 20
143.389
 30
0.0
  0
VERTEX
  8
0
 10
115.253
 20
140.724
 30
0.0
  0
VERTEX
  8
0
 10
107.792
 20
136.655
 30
0.0
  0
VERTEX
  8
0
 10
99.955
 20
131.338
 30
0.0
  0
VERTEX
  8
0
 10
92.043
 20
124.978
 30
0.0
  0
VERTEX
  8
0
 10
84.36
 20
117.819
 30
0.0
  0
VERTEX
  8
0
 10
77.2
 20
110.135
 30
0.0
  0
VERTEX
  8
0
 10
70.84
 20
102.223
 30
0.0
  0
VERTEX
  8
0
 10
65.523
 20
94.386
 30
0.0
  0
VERTEX
  8
0
 10
61.454
 20
86.926
 30
0.0
  0
VERTEX
  8
0
 10
58.789
 20
80.129
 30
0.0
  0
VERTEX
  8
0
 10
57.631
 20
74.256
 30
0.0
  0
VERTEX
  8
0
 10
58.024
 20
69.533
 30
0.0
  0
SEQEND
  0
POLYLINE
  8
0
 66
1
 10
0.0
 20
0.0
 30
0.0
 70
0
  0
VERTEX
  8
0
 10
-41.49
 20
156.173
 30
0.0
  0
VERTEX
  8
0
 10
-41.49
 20
215.137
 30
0.0
 42
1.0
  0
VERTEX
  8
0
 10
-41.49
 20
180.9
 30
0.0
  0
SEQEND
  0
POLYLINE
  8
0
 66
1
 10
0.0
 20
0.0
 30
0.0
 70
0
  0
VERTEX
  8
0
 10
-14.227
 20
158.075
 30
0.0
  0
VERTEX
  8
0
 10
-10.889
 20
159.573
 30
0.0
  0
VERTEX
  8
0
 10
-7.586
 20
161.068
 30
0.0
  0
VERTEX
  8
0
 10
-4.354
 20
162.559
 30
0.0
  0
VERTEX
  8
0
 10
-1.227
 20
164.044
 30
0.0
  0
VERTEX
  8
0
 10
1.76
 20
165.521
 30
0.0
  0
VERTEX
  8
0
 10
4.571
 20
166.986
 30
0.0
  0
VERTEX
  8
0
 10
7.171
 20
168.439
 30
0.0
  0
VERTEX
  8
0
 10
9.525
 20
169.878
 30
0.0
  0
VERTEX
  8
0
 10
11.597
 20
171.299
 30
0.0
  0
VERTEX
  8
0
 10
13.354
 20
172.701
 30
0.0
  0
VERTEX
  8
0
 10
14.759
 20
174.082
 30
0.0
  0
VERTEX
  8
0
 10
15.778
 20
175.44
 30
0.0
  0
VERTEX
  8
0
 10
16.375
 20
176.772
 30
0.0
  0
VERTEX
  8
0
 10
16.515
 20
178.077
 30
0.0
  0
VERTEX
  8
0
 10
16.163
 20
179.352
 30
0.0
  0
VERTEX
  8
0
 10
15.284
 20
180.595
 30
0.0
  0
VERTEX
  8
0
 10
13.887
 20
181.807
 30
0.0
  0
VERTEX
  8
0
 10
12.059
 20
182.997
 30
0.0
  0
VERTEX
  8
0
 10
9.896
 20
184.17
 30
0.0
  0
VERTEX
  8
0
 10
7.495
 20
185.336
 30
0.0
  0
VERTEX
  8
0
 10
4.952
 20
186.502
 30
0.0
  0
VERTEX
  8
0
 10
2.363
 20
187.677
 30
0.0
  0
VERTEX
  8
0
 10
-0.176
 20
188.867
 30
0.0
  0
VERTEX
  8
0
 10
-2.568
 20
190.08
 30
0.0
  0
VERTEX
  8
0
 10
-4.716
 20
191.325
 30
0.0
  0
VERTEX
  8
0
 10
-6.526
 20
192.61
 30
0.0
  0
VERTEX
  8
0
 10
-7.9
 20
193.942
 30
0.0
  0
VERTEX
  8
0
 10
-8.744
 20
195.329
 30
0.0
  0
VERTEX
  8
0
 10
-9.015
 20
196.774
 30
0.0
  0
VERTEX
  8
0
 10
-8.756
 20
198.272
 30
0.0
  0
VERTEX
  8
0
 10
-8.015
 20
199.819
 30
0.0
  0
VERTEX
  8
0
 10
-6.839
 20
201.411
 30
0.0
  0
VERTEX
  8
0
 10
-5.278
 20
203.041
 30
0.0
  0
VERTEX
  8
0
 10
-3.379
 20
204.706
 30
0.0
  0
VERTEX
  8
0
 10
-1.191
 20
206.4
 30
0.0
  0
VERTEX
  8
0
 10
1.238
 20
208.118
 30
0.0
  0
VERTEX
  8
0
 10
3.86
 20
209.856
 30
0.0
  0
VERTEX
  8
0
 10
6.627
 20
211.608
 30
0.0
  0
VERTEX
  8
0
 10
9.49
 20
213.37
 30
0.0
  0
VERTEX
  8
0
 10
12.402
 20
215.137
 30
0.0
  0
SEQEND
  0
ENDSEC
  0
EOF
