  0
SECTION
  2
HEADER
  9
$ACADVER
  1
AC1009
  9
$EXTMIN
 10
0.0
 20
0.0
 30
0.0
  9
$EXTMAX
 10
100.0
 20
100.0
 30
0.0
  9
$INSBASE
 10
0.0
 20
0.0
 30
0.0
  0
ENDSEC
  0
SECTION
  2
TABLES
  0
TABLE
  2
LTYPE
 70
19
  0
LTYPE
  2
PHANTOM
 70
0
  3
Phantom ______  __  __  ______  __  __  ______
 72
65
 73
6
 40
2.5
 49
1.25
 49
-0.25
 49
0.25
 49
-0.25
 49
0.25
 49
-0.25
  0
LTYPE
  2
DOT2
 70
0
  3
Dot (.5) . . . . . . . . . . . . . . . . . . . 
 72
65
 73
2
 40
0.1
 49
0.0
 49
-0.1
  0
LTYPE
  2
DIVIDE
 70
0
  3
Divide __ . . __ . . __ . . __ . . __ . . __
 72
65
 73
6
 40
1.6
 49
1.0
 49
-0.2
 49
0.0
 49
-0.2
 49
0.0
 49
-0.2
  0
LTYPE
  2
DIVIDEX2
 70
0
  3
Divide (2x) ____  . .  ____  . .  ____  . .  ____
 72
65
 73
6
 40
2.6
 49
2.0
 49
-0.2
 49
0.0
 49
-0.2
 49
0.0
 49
-0.2
  0
LTYPE
  2
CENTER
 70
0
  3
Center ____ _ ____ _ ____ _ ____ _ ____ _ ____
 72
65
 73
4
 40
2.0
 49
1.25
 49
-0.25
 49
0.25
 49
-0.25
  0
LTYPE
  2
DASHDOT
 70
0
  3
Dash dot __ . __ . __ . __ . __ . __ . __ . __
 72
65
 73
4
 40
1.4
 49
1.0
 49
-0.2
 49
0.0
 49
-0.2
  0
LTYPE
  2
CENTERX2
 70
0
  3
Center (2x) ________  __  ________  __  ________
 72
65
 73
4
 40
3.5
 49
2.5
 49
-0.25
 49
0.5
 49
-0.25
  0
LTYPE
  2
PHANTOMX2
 70
0
  3
Phantom (2x)____________    ____    ____    ____________
 72
65
 73
6
 40
4.25
 49
2.5
 49
-0.25
 49
0.5
 49
-0.25
 49
0.5
 49
-0.25
  0
LTYPE
  2
CONTINUOUS
 70
0
  3
Solid
 72
65
 73
0
 40
0.0
  0
LTYPE
  2
PHANTOM2
 70
0
  3
Phantom (.5x) ___ _ _ ___ _ _ ___ _ _ ___ _ _ ___
 72
65
 73
6
 40
1.25
 49
0.625
 49
-0.125
 49
0.125
 49
-0.125
 49
0.125
 49
-0.125
  0
LTYPE
  2
DASHED
 70
0
  3
Dashed __ __ __ __ __ __ __ __ __ __ __ __ __ _
 72
65
 73
2
 40
0.6
 49
0.5
 49
-0.1
  0
LTYPE
  2
DASHED2
 70
0
  3
Dashed (.5x) _ _ _ _ _ _ _ _ _ _ _ _ _ _
 72
65
 73
2
 40
0.3
 49
0.25
 49
-0.05
  0
LTYPE
  2
DASHDOT2
 70
0
  3
Dash dot (.5x) _ . _ . _ . _ . _ . _ . _ . _
 72
65
 73
4
 40
0.7
 49
0.5
 49
-0.1
 49
0.0
 49
-0.1
  0
LTYPE
  2
DOTX2
 70
0
  3
Dot (2x) .    .    .    .    .    .    .    . 
 72
65
 73
2
 40
0.4
 49
0.0
 49
-0.4
  0
LTYPE
  2
DIVIDE2
 70
0
  3
Divide(.5x) _ . _ . _ . _ . _ . _ . _ . _
 72
65
 73
6
 40
0.8
 49
0.5
 49
-0.1
 49
0.0
 49
-0.1
 49
0.0
 49
-0.1
  0
LTYPE
  2
CENTER2
 70
0
  3
Center (.5x) ____ _ ____ _ ____ _ ____ _ ____
 72
65
 73
4
 40
1.0
 49
0.625
 49
-0.125
 49
0.125
 49
-0.125
  0
LTYPE
  2
DASHDOTX2
 70
0
  3
Dash dot (2x) ____  .  ____  .  ____  .  ____
 72
65
 73
4
 40
2.4
 49
2.0
 49
-0.2
 49
0.0
 49
-0.2
  0
LTYPE
  2
DOT
 70
0
  3
Dot .  .  .  .  .  .  .  .  .  .  .  .  .  .  .  .
 72
65
 73
2
 40
0.2
 49
0.0
 49
-0.2
  0
LTYPE
  2
DASHEDX2
 70
0
  3
Dashed (2x) ____  ____  ____  ____  ____  ____
 72
65
 73
2
 40
1.2
 49
1.0
 49
-0.2
  0
ENDTAB
  0
TABLE
  2
LAYER
 70
0
  0
ENDTAB
  0
TABLE
  2
STYLE
 70
0
  0
ENDTAB
  0
TABLE
  2
VIEW
 70
0
  0
ENDTAB
  0
TABLE
  2
APPID
 70
1
  0
APPID
  2
DXFWRITE
 70
0
  0
ENDTAB
  0
TABLE
  2
VPORT
 70
0
  0
ENDTAB
  0
TABLE
  2
UCS
 70
0
  0
ENDTAB
  0
ENDSEC
  0
SECTION
  2
BLOCKS
  0
ENDSEC
  0
SECTION
  2
ENTITIES
  0
VIEWPORT
  8
VIEWPORTS
 67
1
 10
0.0
 20
0.0
 30
0.0
 40
1.0
 41
1.0
 68
1
 69
1
1001
ACAD
1000
MVIEW
1002
{
1070
16
1010
0.0
1020
0.0
1030
0.0
1010
0.0
1020
0.0
1030
0.0
1040
0.0
1040
1.0
1040
0.0
1040
0.0
1040
50.0
1040
0.0
1040
0.0
1070
0
1070
100
1070
1
1070
3
1070
0
1070
0
1070
0
1070
0
1040
0.0
1040
0.0
1040
0.0
1040
0.1
1040
0.1
1040
0.1
1040
0.1
1070
0
1002
{
1002
}
1002
}
  0
LINE
  8
0
 10
151.373748367
 20
589.166666667
 30
0.0
 11
151.373748367
 21
151.373748367
 31
0.0
  0
LINE
  8
0
 10
151.373748367
 20
90.5894415905
 30
0.0
 11
688.873359044
 21
688.873359044
 31
0.0
  0
LINE
  8
0
 10
688.873359044
 20
90.5894415905
 30
0.0
 11
688.873359044
 21
688.873359044
 31
0.0
  0
LINE
  8
0
 10
688.873359044
 20
589.166666667
 30
0.0
 11
151.373748367
 21
151.373748367
 31
0.0
  0
LINE
  8
0
 10
192.347333753
 20
5.8333333333
 30
0.0
 11
192.347333753
 21
192.347333753
 31
0.0
  0
LINE
  8
0
 10
168.49984743
 20
77.3757923022
 30
0.0
 11
216.194820076
 21
216.194820076
 31
0.0
  0
LINE
  8
0
 10
240.042306398
 20
29.6808196563
 30
0.0
 11
275.813535883
 21
275.813535883
 31
0.0
  0
LINE
  8
0
 10
275.813535883
 20
29.6808196563
 30
0.0
 11
287.737279044
 21
287.737279044
 31
0.0
  0
LINE
  8
0
 10
287.737279044
 20
41.6045628178
 30
0.0
 11
275.813535883
 21
275.813535883
 31
0.0
  0
LINE
  8
0
 10
275.813535883
 20
53.5283059793
 30
0.0
 11
251.96604956
 21
251.96604956
 31
0.0
  0
LINE
  8
0
 10
251.96604956
 20
53.5283059793
 30
0.0
 11
240.042306398
 21
240.042306398
 31
0.0
  0
LINE
  8
0
 10
240.042306398
 20
41.6045628178
 30
0.0
 11
240.042306398
 21
240.042306398
 31
0.0
  0
LINE
  8
0
 10
240.042306398
 20
17.7570764948
 30
0.0
 11
251.96604956
 21
251.96604956
 31
0.0
  0
LINE
  8
0
 10
251.96604956
 20
5.8333333333
 30
0.0
 11
275.813535883
 21
275.813535883
 31
0.0
  0
LINE
  8
0
 10
311.584765367
 20
5.8333333333
 30
0.0
 11
347.355994852
 21
347.355994852
 31
0.0
  0
LINE
  8
0
 10
347.355994852
 20
5.8333333333
 30
0.0
 11
359.279738013
 21
359.279738013
 31
0.0
  0
LINE
  8
0
 10
359.279738013
 20
17.7570764948
 30
0.0
 11
347.355994852
 21
347.355994852
 31
0.0
  0
LINE
  8
0
 10
347.355994852
 20
29.6808196563
 30
0.0
 11
323.508508529
 21
323.508508529
 31
0.0
  0
LINE
  8
0
 10
323.508508529
 20
29.6808196563
 30
0.0
 11
311.584765367
 21
311.584765367
 31
0.0
  0
LINE
  8
0
 10
311.584765367
 20
41.6045628178
 30
0.0
 11
323.508508529
 21
323.508508529
 31
0.0
  0
LINE
  8
0
 10
323.508508529
 20
53.5283059793
 30
0.0
 11
359.279738013
 21
359.279738013
 31
0.0
  0
LINE
  8
0
 10
406.974710659
 20
77.3757923022
 30
0.0
 11
406.974710659
 21
406.974710659
 31
0.0
  0
LINE
  8
0
 10
406.974710659
 20
17.7570764948
 30
0.0
 11
418.898453821
 21
418.898453821
 31
0.0
  0
LINE
  8
0
 10
418.898453821
 20
5.8333333333
 30
0.0
 11
430.822196982
 21
430.822196982
 31
0.0
  0
LINE
  8
0
 10
383.127224336
 20
53.5283059793
 30
0.0
 11
430.822196982
 21
430.822196982
 31
0.0
  0
LINE
  8
0
 10
454.669683305
 20
5.8333333333
 30
0.0
 11
454.669683305
 21
454.669683305
 31
0.0
  0
LINE
  8
0
 10
526.212142274
 20
77.3757923022
 30
0.0
 11
526.212142274
 21
526.212142274
 31
0.0
  0
LINE
  8
0
 10
526.212142274
 20
29.6808196563
 30
0.0
 11
502.364655951
 21
502.364655951
 31
0.0
  0
LINE
  8
0
 10
502.364655951
 20
53.5283059793
 30
0.0
 11
490.44091279
 21
490.44091279
 31
0.0
  0
LINE
  8
0
 10
490.44091279
 20
53.5283059793
 30
0.0
 11
478.517169628
 21
478.517169628
 31
0.0
  0
LINE
  8
0
 10
478.517169628
 20
41.6045628178
 30
0.0
 11
478.517169628
 21
478.517169628
 31
0.0
  0
LINE
  8
0
 10
478.517169628
 20
17.7570764948
 30
0.0
 11
490.44091279
 21
490.44091279
 31
0.0
  0
LINE
  8
0
 10
490.44091279
 20
5.8333333333
 30
0.0
 11
502.364655951
 21
502.364655951
 31
0.0
  0
LINE
  8
0
 10
502.364655951
 20
5.8333333333
 30
0.0
 11
526.212142274
 21
526.212142274
 31
0.0
  0
LINE
  8
0
 10
550.059628597
 20
5.8333333333
 30
0.0
 11
597.754601243
 21
597.754601243
 31
0.0
  0
LINE
  8
0
 10
550.059628597
 20
53.5283059793
 30
0.0
 11
597.754601243
 21
597.754601243
 31
0.0
  0
LINE
  8
0
 10
633.525830727
 20
5.8333333333
 30
0.0
 11
633.525830727
 21
633.525830727
 31
0.0
  0
LINE
  8
0
 10
633.525830727
 20
65.4520491408
 30
0.0
 11
645.449573889
 21
645.449573889
 31
0.0
  0
LINE
  8
0
 10
645.449573889
 20
77.3757923022
 30
0.0
 11
657.37331705
 21
657.37331705
 31
0.0
  0
LINE
  8
0
 10
657.37331705
 20
77.3757923022
 30
0.0
 11
669.297060212
 21
669.297060212
 31
0.0
  0
LINE
  8
0
 10
621.602087566
 20
41.6045628178
 30
0.0
 11
657.37331705
 21
657.37331705
 31
0.0
  0
POLYLINE
  8
0
 66
1
 10
0.0
 20
0.0
 30
0.0
 70
0
  0
VERTEX
  8
0
 10
371.270980938
 20
282.526271033
 30
0.0
  0
VERTEX
  8
0
 10
377.336066536
 20
377.336066536
 30
0.0
  0
VERTEX
  8
0
 10
385.782784401
 20
385.782784401
 30
0.0
  0
VERTEX
  8
0
 10
396.286531901
 20
396.286531901
 30
0.0
  0
VERTEX
  8
0
 10
408.443655911
 20
408.443655911
 30
0.0
  0
VERTEX
  8
0
 10
421.786964973
 20
421.786964973
 30
0.0
  0
VERTEX
  8
0
 10
435.803683202
 20
435.803683202
 30
0.0
  0
VERTEX
  8
0
 10
449.955155978
 20
449.955155978
 30
0.0
  0
VERTEX
  8
0
 10
463.697550139
 20
463.697550139
 30
0.0
  0
VERTEX
  8
0
 10
476.502753182
 20
476.502753182
 30
0.0
  0
VERTEX
  8
0
 10
487.878668338
 20
487.878668338
 30
0.0
  0
VERTEX
  8
0
 10
497.388125566
 20
497.388125566
 30
0.0
  0
VERTEX
  8
0
 10
504.665681757
 20
504.665681757
 30
0.0
  0
VERTEX
  8
0
 10
509.431664509
 20
509.431664509
 30
0.0
  0
VERTEX
  8
0
 10
511.502919777
 20
511.502919777
 30
0.0
  0
VERTEX
  8
0
 10
510.799850383
 20
510.799850383
 30
0.0
  0
VERTEX
  8
0
 10
507.349474889
 20
507.349474889
 30
0.0
  0
VERTEX
  8
0
 10
501.28438929
 20
501.28438929
 30
0.0
  0
VERTEX
  8
0
 10
492.837671426
 20
492.837671426
 30
0.0
  0
VERTEX
  8
0
 10
482.333923926
 20
482.333923926
 30
0.0
  0
VERTEX
  8
0
 10
470.176799916
 20
470.176799916
 30
0.0
  0
VERTEX
  8
0
 10
456.833490854
 20
456.833490854
 30
0.0
  0
VERTEX
  8
0
 10
442.816772625
 20
442.816772625
 30
0.0
  0
VERTEX
  8
0
 10
428.665299849
 20
428.665299849
 30
0.0
  0
VERTEX
  8
0
 10
414.922905688
 20
414.922905688
 30
0.0
  0
VERTEX
  8
0
 10
402.117702644
 20
402.117702644
 30
0.0
  0
VERTEX
  8
0
 10
390.741787489
 20
390.741787489
 30
0.0
  0
VERTEX
  8
0
 10
381.232330261
 20
381.232330261
 30
0.0
  0
VERTEX
  8
0
 10
373.95477407
 20
373.95477407
 30
0.0
  0
VERTEX
  8
0
 10
369.188791318
 20
369.188791318
 30
0.0
  0
VERTEX
  8
0
 10
367.11753605
 20
367.11753605
 30
0.0
  0
VERTEX
  8
0
 10
367.820605444
 20
367.820605444
 30
0.0
  0
VERTEX
  8
0
 10
371.270980938
 20
371.270980938
 30
0.0
  0
SEQEND
  0
LINE
  8
0
 10
189.832989004
 20
443.552488875
 30
0.0
 11
189.832989004
 21
189.832989004
 31
0.0
  0
POLYLINE
  8
0
 66
1
 10
0.0
 20
0.0
 30
0.0
 70
0
  0
VERTEX
  8
0
 10
238.594449336
 20
446.954451223
 30
0.0
  0
VERTEX
  8
0
 10
244.564549355
 20
244.564549355
 30
0.0
  0
VERTEX
  8
0
 10
250.471797015
 20
250.471797015
 30
0.0
  0
VERTEX
  8
0
 10
256.253339958
 20
256.253339958
 30
0.0
  0
VERTEX
  8
0
 10
261.846325826
 20
261.846325826
 30
0.0
  0
VERTEX
  8
0
 10
267.18790226
 20
267.18790226
 30
0.0
  0
VERTEX
  8
0
 10
272.215216901
 20
272.215216901
 30
0.0
  0
VERTEX
  8
0
 10
276.865417392
 20
276.865417392
 30
0.0
  0
VERTEX
  8
0
 10
281.075651372
 20
281.075651372
 30
0.0
  0
VERTEX
  8
0
 10
284.783066485
 20
284.783066485
 30
0.0
  0
VERTEX
  8
0
 10
287.924810372
 20
287.924810372
 30
0.0
  0
VERTEX
  8
0
 10
290.438030673
 20
290.438030673
 30
0.0
  0
VERTEX
  8
0
 10
292.259875031
 20
292.259875031
 30
0.0
  0
VERTEX
  8
0
 10
293.327491087
 20
293.327491087
 30
0.0
  0
VERTEX
  8
0
 10
293.578026483
 20
293.578026483
 30
0.0
  0
VERTEX
  8
0
 10
292.94862886
 20
292.94862886
 30
0.0
  0
VERTEX
  8
0
 10
291.377190697
 20
291.377190697
 30
0.0
  0
VERTEX
  8
0
 10
288.878281384
 20
288.878281384
 30
0.0
  0
VERTEX
  8
0
 10
285.60865293
 20
285.60865293
 30
0.0
  0
VERTEX
  8
0
 10
281.740490884
 20
281.740490884
 30
0.0
  0
VERTEX
  8
0
 10
277.445980794
 20
277.445980794
 30
0.0
  0
VERTEX
  8
0
 10
272.89730821
 20
272.89730821
 30
0.0
  0
VERTEX
  8
0
 10
268.26665868
 20
268.26665868
 30
0.0
  0
VERTEX
  8
0
 10
263.726217752
 20
263.726217752
 30
0.0
  0
VERTEX
  8
0
 10
259.448170975
 20
259.448170975
 30
0.0
  0
VERTEX
  8
0
 10
255.604703898
 20
255.604703898
 30
0.0
  0
VERTEX
  8
0
 10
252.36800207
 20
252.36800207
 30
0.0
  0
VERTEX
  8
0
 10
249.910251039
 20
249.910251039
 30
0.0
  0
VERTEX
  8
0
 10
248.401922673
 20
248.401922673
 30
0.0
  0
VERTEX
  8
0
 10
247.916382653
 20
247.916382653
 30
0.0
  0
VERTEX
  8
0
 10
248.379679151
 20
248.379679151
 30
0.0
  0
VERTEX
  8
0
 10
249.7055543
 20
249.7055543
 30
0.0
  0
VERTEX
  8
0
 10
251.807750235
 20
251.807750235
 30
0.0
  0
VERTEX
  8
0
 10
254.600009092
 20
254.600009092
 30
0.0
  0
VERTEX
  8
0
 10
257.996073006
 20
257.996073006
 30
0.0
  0
VERTEX
  8
0
 10
261.909684111
 20
261.909684111
 30
0.0
  0
VERTEX
  8
0
 10
266.254584541
 20
266.254584541
 30
0.0
  0
VERTEX
  8
0
 10
270.944516432
 20
270.944516432
 30
0.0
  0
VERTEX
  8
0
 10
275.893221919
 20
275.893221919
 30
0.0
  0
VERTEX
  8
0
 10
281.014443137
 20
281.014443137
 30
0.0
  0
VERTEX
  8
0
 10
286.221922219
 20
286.221922219
 30
0.0
  0
SEQEND
  0
LINE
  8
0
 10
531.306742419
 20
577.280140213
 30
0.0
 11
568.481294569
 21
568.481294569
 31
0.0
  0
LINE
  8
0
 10
549.894018494
 20
566.548771368
 30
0.0
 11
517.699911958
 21
517.699911958
 31
0.0
  0
POLYLINE
  8
0
 66
1
 10
0.0
 20
0.0
 30
0.0
 70
0
  0
VERTEX
  8
0
 10
583.371548567
 20
483.492706683
 30
0.0
  0
VERTEX
  8
0
 10
574.994792875
 20
574.994792875
 30
0.0
  0
VERTEX
  8
0
 10
568.151089876
 20
568.151089876
 30
0.0
  0
SEQEND
  0
LINE
  8
0
 10
568.151089876
 20
481.658941991
 30
0.0
 11
560.185114415
 21
560.185114415
 31
0.0
  0
POLYLINE
  8
0
 66
1
 10
0.0
 20
0.0
 30
0.0
 70
0
  0
VERTEX
  8
0
 10
560.185114415
 20
486.258100068
 30
0.0
  0
VERTEX
  8
0
 10
556.4075168
 20
556.4075168
 30
0.0
  0
VERTEX
  8
0
 10
554.162971878
 20
554.162971878
 30
0.0
  0
VERTEX
  8
0
 10
556.106804801
 20
556.106804801
 30
0.0
  0
SEQEND
  0
LINE
  8
0
 10
556.106804801
 20
509.85531445
 30
0.0
 11
559.172910185
 21
559.172910185
 31
0.0
  0
POLYLINE
  8
0
 66
1
 10
0.0
 20
0.0
 30
0.0
 70
0
  0
VERTEX
  8
0
 10
559.172910185
 20
515.165964757
 30
0.0
  0
VERTEX
  8
0
 10
566.427393415
 20
566.427393415
 30
0.0
  0
VERTEX
  8
0
 10
574.804149107
 20
574.804149107
 30
0.0
  0
VERTEX
  8
0
 10
581.647852106
 20
581.647852106
 30
0.0
  0
SEQEND
  0
LINE
  8
0
 10
581.647852106
 20
523.432652218
 30
0.0
 11
589.613827567
 21
589.613827567
 31
0.0
  0
POLYLINE
  8
0
 66
1
 10
0.0
 20
0.0
 30
0.0
 70
0
  0
VERTEX
  8
0
 10
589.613827567
 20
518.833494141
 30
0.0
  0
VERTEX
  8
0
 10
593.391425182
 20
593.391425182
 30
0.0
  0
VERTEX
  8
0
 10
594.513697643
 20
594.513697643
 30
0.0
  0
VERTEX
  8
0
 10
594.102917412
 20
594.102917412
 30
0.0
  0
SEQEND
  0
LINE
  8
0
 10
594.102917412
 20
502.079982758
 30
0.0
 11
591.036812028
 21
591.036812028
 31
0.0
  0
LINE
  8
0
 10
591.036812028
 20
496.769332451
 30
0.0
 11
559.172910185
 21
559.172910185
 31
0.0
  0
LINE
  8
0
 10
645.375655791
 20
486.639387605
 30
0.0
 11
594.704341411
 21
594.704341411
 31
0.0
  0
LINE
  8
0
 10
616.167079102
 20
503.502967219
 30
0.0
 11
623.9129181
 21
623.9129181
 31
0.0
  0
LINE
  8
0
 10
658.652281559
 20
478.974124144
 30
0.0
 11
677.239557634
 21
677.239557634
 31
0.0
  0
POLYLINE
  8
0
 66
1
 10
0.0
 20
0.0
 30
0.0
 70
0
  0
VERTEX
  8
0
 10
677.349625865
 20
492.962242142
 30
0.0
  0
VERTEX
  8
0
 10
651.287730098
 20
651.287730098
 30
0.0
  0
VERTEX
  8
0
 10
649.343897175
 20
649.343897175
 30
0.0
  0
VERTEX
  8
0
 10
653.12149479
 20
653.12149479
 30
0.0
  0
SEQEND
  0
LINE
  8
0
 10
653.12149479
 20
432.601255841
 30
0.0
 11
658.432145097
 21
658.432145097
 31
0.0
  0
ENDSEC
  0
EOF
