  0
SECTION
  2
HEADER
  9
$ACADVER
  1
AC1024
  9
$ACADMAINTVER
 70
     6
  9
$DWGCODEPAGE
  3
ANSI_1252
  9
$INSBASE
 10
0.0
 20
0.0
 30
0.0
  9
$EXTMIN
 10
0.0
 20
0.0
 30
0.0
  9
$EXTMAX
 10
100.0
 20
100.0
 30
0.0
  9
$LIMMIN
 10
0.0
 20
0.0
  9
$LIMMAX
 10
12.0
 20
9.0
  9
$ORTHOMODE
 70
     0
  9
$REGENMODE
 70
     1
  9
$FILLMODE
 70
     1
  9
$QTEXTMODE
 70
     0
  9
$MIRRTEXT
 70
     1
  9
$LTSCALE
 40
1.0
  9
$ATTMODE
 70
     1
  9
$TEXTSIZE
 40
0.2
  9
$TRACEWID
 40
0.05
  9
$TEXTSTYLE
  7
Standard
  9
$CLAYER
  8
DESIGN
  9
$CELTYPE
  6
ByBlock
  9
$CECOLOR
 62
   256
  9
$CELTSCALE
 40
1.0
  9
$DISPSILH
 70
     0
  9
$DIMSCALE
 40
1.0
  9
$DIMASZ
 40
0.18
  9
$DIMEXO
 40
0.0625
  9
$DIMDLI
 40
0.38
  9
$DIMRND
 40
0.0
  9
$DIMDLE
 40
0.0
  9
$DIMEXE
 40
0.18
  9
$DIMTP
 40
0.0
  9
$DIMTM
 40
0.0
  9
$DIMTXT
 40
0.18
  9
$DIMCEN
 40
0.09
  9
$DIMTSZ
 40
0.0
  9
$DIMTOL
 70
     0
  9
$DIMLIM
 70
     0
  9
$DIMTIH
 70
     1
  9
$DIMTOH
 70
     1
  9
$DIMSE1
 70
     0
  9
$DIMSE2
 70
     0
  9
$DIMTAD
 70
     0
  9
$DIMZIN
 70
     0
  9
$DIMBLK
  1

  9
$DIMASO
 70
     1
  9
$DIMSHO
 70
     1
  9
$DIMPOST
  1

  9
$DIMAPOST
  1

  9
$DIMALT
 70
     0
  9
$DIMALTD
 70
     2
  9
$DIMALTF
 40
25.4
  9
$DIMLFAC
 40
1.0
  9
$DIMTOFL
 70
     0
  9
$DIMTVP
 40
0.0
  9
$DIMTIX
 70
     0
  9
$DIMSOXD
 70
     0
  9
$DIMSAH
 70
     0
  9
$DIMBLK1
  1

  9
$DIMBLK2
  1

  9
$DIMSTYLE
  2
Standard
  9
$DIMCLRD
 70
     0
  9
$DIMCLRE
 70
     0
  9
$DIMCLRT
 70
     0
  9
$DIMTFAC
 40
1.0
  9
$DIMGAP
 40
0.09
  9
$DIMJUST
 70
     0
  9
$DIMSD1
 70
     0
  9
$DIMSD2
 70
     0
  9
$DIMTOLJ
 70
     1
  9
$DIMTZIN
 70
     0
  9
$DIMALTZ
 70
     0
  9
$DIMALTTZ
 70
     0
  9
$DIMUPT
 70
     0
  9
$DIMDEC
 70
     4
  9
$DIMTDEC
 70
     4
  9
$DIMALTU
 70
     2
  9
$DIMALTTD
 70
     2
  9
$DIMTXSTY
  7
Standard
  9
$DIMAUNIT
 70
     0
  9
$DIMADEC
 70
     0
  9
$DIMALTRND
 40
0.0
  9
$DIMAZIN
 70
     0
  9
$DIMDSEP
 70
    46
  9
$DIMATFIT
 70
     3
  9
$DIMFRAC
 70
     0
  9
$DIMLDRBLK
  1

  9
$DIMLUNIT
 70
     2
  9
$DIMLWD
 70
    -2
  9
$DIMLWE
 70
    -2
  9
$DIMTMOVE
 70
     2
  9
$DIMFXL
 40
1.0
  9
$DIMFXLON
 70
     0
  9
$DIMJOGANG
 40
0.7853981633974483
  9
$DIMTFILL
 70
     0
  9
$DIMTFILLCLR
 70
     0
  9
$DIMARCSYM
 70
     0
  9
$DIMLTYPE
  6

  9
$DIMLTEX1
  6

  9
$DIMLTEX2
  6

  9
$DIMTXTDIRECTION
 70
     0
  9
$LUNITS
 70
     2
  9
$LUPREC
 70
     4
  9
$SKETCHINC
 40
0.1
  9
$FILLETRAD
 40
0.5
  9
$AUNITS
 70
     0
  9
$AUPREC
 70
     0
  9
$MENU
  1
.
  9
$ELEVATION
 40
0.0
  9
$PELEVATION
 40
0.0
  9
$THICKNESS
 40
0.0
  9
$LIMCHECK
 70
     0
  9
$CHAMFERA
 40
0.5
  9
$CHAMFERB
 40
0.5
  9
$CHAMFERC
 40
1.0
  9
$CHAMFERD
 40
0.0
  9
$SKPOLY
 70
     0
  9
$TDCREATE
 40
2456959.35811456
  9
$TDUCREATE
 40
2456959.316447894
  9
$TDUPDATE
 40
2456959.35811456
  9
$TDUUPDATE
 40
2456959.316447894
  9
$TDINDWG
 40
0.0000000116
  9
$TDUSRTIMER
 40
2456959.609952905
  9
$USRTIMER
 70
     1
  9
$ANGBASE
 50
0.0
  9
$ANGDIR
 70
     0
  9
$PDMODE
 70
     0
  9
$PDSIZE
 40
0.0
  9
$PLINEWID
 40
0.0
  9
$SPLFRAME
 70
     0
  9
$SPLINETYPE
 70
     6
  9
$SPLINESEGS
 70
     8
  9
$HANDSEED
  5
1C4ED
  9
$SURFTAB1
 70
     6
  9
$SURFTAB2
 70
     6
  9
$SURFTYPE
 70
     6
  9
$SURFU
 70
     6
  9
$SURFV
 70
     6
  9
$UCSBASE
  2

  9
$UCSNAME
  2

  9
$UCSORG
 10
0.0
 20
0.0
 30
0.0
  9
$UCSXDIR
 10
1.0
 20
0.0
 30
0.0
  9
$UCSYDIR
 10
0.0
 20
1.0
 30
0.0
  9
$UCSORTHOREF
  2

  9
$UCSORTHOVIEW
 70
     0
  9
$UCSORGTOP
 10
0.0
 20
0.0
 30
0.0
  9
$UCSORGBOTTOM
 10
0.0
 20
0.0
 30
0.0
  9
$UCSORGLEFT
 10
0.0
 20
0.0
 30
0.0
  9
$UCSORGRIGHT
 10
0.0
 20
0.0
 30
0.0
  9
$UCSORGFRONT
 10
0.0
 20
0.0
 30
0.0
  9
$UCSORGBACK
 10
0.0
 20
0.0
 30
0.0
  9
$PUCSBASE
  2

  9
$PUCSNAME
  2

  9
$PUCSORG
 10
0.0
 20
0.0
 30
0.0
  9
$PUCSXDIR
 10
1.0
 20
0.0
 30
0.0
  9
$PUCSYDIR
 10
0.0
 20
1.0
 30
0.0
  9
$PUCSORTHOREF
  2

  9
$PUCSORTHOVIEW
 70
     0
  9
$PUCSORGTOP
 10
0.0
 20
0.0
 30
0.0
  9
$PUCSORGBOTTOM
 10
0.0
 20
0.0
 30
0.0
  9
$PUCSORGLEFT
 10
0.0
 20
0.0
 30
0.0
  9
$PUCSORGRIGHT
 10
0.0
 20
0.0
 30
0.0
  9
$PUCSORGFRONT
 10
0.0
 20
0.0
 30
0.0
  9
$PUCSORGBACK
 10
0.0
 20
0.0
 30
0.0
  9
$USERI1
 70
     0
  9
$USERI2
 70
     0
  9
$USERI3
 70
     0
  9
$USERI4
 70
     0
  9
$USERI5
 70
     0
  9
$USERR1
 40
0.0
  9
$USERR2
 40
0.0
  9
$USERR3
 40
0.0
  9
$USERR4
 40
0.0
  9
$USERR5
 40
0.0
  9
$WORLDVIEW
 70
     1
  9
$SHADEDGE
 70
     3
  9
$SHADEDIF
 70
    70
  9
$TILEMODE
 70
     1
  9
$MAXACTVP
 70
    64
  9
$PINSBASE
 10
0.0
 20
0.0
 30
0.0
  9
$PLIMCHECK
 70
     0
  9
$PEXTMIN
 10
0.0
 20
0.0
 30
0.0
  9
$PEXTMAX
 10
0.0
 20
0.0
 30
0.0
  9
$PLIMMIN
 10
0.0
 20
0.0
  9
$PLIMMAX
 10
0.0
 20
0.0
  9
$UNITMODE
 70
     0
  9
$VISRETAIN
 70
     1
  9
$PLINEGEN
 70
     0
  9
$PSLTSCALE
 70
     1
  9
$TREEDEPTH
 70
  3020
  9
$CMLSTYLE
  2
Standard
  9
$CMLJUST
 70
     0
  9
$CMLSCALE
 40
1.0
  9
$PROXYGRAPHICS
 70
     1
  9
$MEASUREMENT
 70
     0
  9
$CELWEIGHT
370
    -1
  9
$ENDCAPS
280
     0
  9
$JOINSTYLE
280
     0
  9
$LWDISPLAY
290
     0
  9
$INSUNITS
 70
     0
  9
$HYPERLINKBASE
  1

  9
$STYLESHEET
  1

  9
$XEDIT
290
     1
  9
$CEPSNTYPE
380
     0
  9
$PSTYLEMODE
290
     1
  9
$FINGERPRINTGUID
  2
{E7EAB742-43F1-45B8-A93A-77A3C566AA8D}
  9
$VERSIONGUID
  2
{FAEB1C32-E019-11D5-929B-00C0DF256EC4}
  9
$EXTNAMES
290
     1
  9
$PSVPSCALE
 40
0.0
  9
$OLESTARTUP
290
     0
  9
$SORTENTS
280
   127
  9
$INDEXCTL
280
     0
  9
$HIDETEXT
280
     1
  9
$XCLIPFRAME
280
     2
  9
$HALOGAP
280
     0
  9
$OBSCOLOR
 70
   257
  9
$OBSLTYPE
280
     0
  9
$INTERSECTIONDISPLAY
280
     0
  9
$INTERSECTIONCOLOR
 70
   257
  9
$DIMASSOC
280
     2
  9
$PROJECTNAME
  1

  9
$CAMERADISPLAY
290
     0
  9
$LENSLENGTH
 40
50.0
  9
$CAMERAHEIGHT
 40
0.0
  9
$STEPSPERSEC
 40
2.0
  9
$STEPSIZE
 40
6.0
  9
$3DDWFPREC
 40
2.0
  9
$PSOLWIDTH
 40
0.25
  9
$PSOLHEIGHT
 40
4.0
  9
$LOFTANG1
 40
1.570796326794897
  9
$LOFTANG2
 40
1.570796326794897
  9
$LOFTMAG1
 40
0.0
  9
$LOFTMAG2
 40
0.0
  9
$LOFTPARAM
 70
     7
  9
$LOFTNORMALS
280
     1
  9
$LATITUDE
 40
37.795
  9
$LONGITUDE
 40
-122.394
  9
$NORTHDIRECTION
 40
0.0
  9
$TIMEZONE
 70
 -8000
  9
$LIGHTGLYPHDISPLAY
280
     1
  9
$TILEMODELIGHTSYNCH
280
     1
  9
$SOLIDHIST
280
     1
  9
$SHOWHIST
280
     1
  9
$DWFFRAME
280
     2
  9
$DGNFRAME
280
     2
  9
$REALWORLDSCALE
290
     1
  9
$INTERFERECOLOR
 62
   256
  9
$CSHADOW
280
     0
  9
$SHADOWPLANELOCATION
 40
0.0
  0
ENDSEC
  0
SECTION
  2
CLASSES
  0
CLASS
  1
ACDBDICTIONARYWDFLT
  2
AcDbDictionaryWithDefault
  3
ObjectDBX Classes
 90
        0
 91
        4
280
     0
281
     0
  0
CLASS
  1
SCALE
  2
AcDbScale
  3
ObjectDBX Classes
 90
     1153
 91
        4
280
     0
281
     0
  0
CLASS
  1
TABLESTYLE
  2
AcDbTableStyle
  3
ObjectDBX Classes
 90
     4095
 91
        4
280
     0
281
     0
  0
CLASS
  1
RASTERVARIABLES
  2
AcDbRasterVariables
  3
ISM
 90
        0
 91
        4
280
     0
281
     0
  0
CLASS
  1
DICTIONARYVAR
  2
AcDbDictionaryVar
  3
ObjectDBX Classes
 90
        0
 91
        4
280
     0
281
     0
  0
CLASS
  1
MATERIAL
  2
AcDbMaterial
  3
ObjectDBX Classes
 90
     1153
 91
        4
280
     0
281
     0
  0
CLASS
  1
CELLSTYLEMAP
  2
AcDbCellStyleMap
  3
ObjectDBX Classes
 90
     1152
 91
        4
280
     0
281
     0
  0
CLASS
  1
IMAGEDEF
  2
AcDbRasterImageDef
  3
ISM
 90
        0
 91
        4
280
     0
281
     0
  0
CLASS
  1
IMAGE
  2
AcDbRasterImage
  3
ISM
 90
      127
 91
        5
280
     0
281
     1
  0
CLASS
  1
IMAGEDEF_REACTOR
  2
AcDbRasterImageDefReactor
  3
ISM
 90
        1
 91
        4
280
     0
281
     0
  0
CLASS
  1
SORTENTSTABLE
  2
AcDbSortentsTable
  3
ObjectDBX Classes
 90
        0
 91
        4
280
     0
281
     0
  0
ENDSEC
  0
SECTION
  2
TABLES
  0
TABLE
  2
VPORT
  5
8
330
0
100
AcDbSymbolTable
 70
     1
  0
VPORT
  5
1BD0C
330
8
100
AcDbSymbolTableRecord
100
AcDbViewportTableRecord
  2
*Active
 70
     0
 10
0.0
 20
0.0
 11
1.0
 21
1.0
 12
190.6866020521575
 22
130.8922617927193
 13
0.0
 23
0.0
 14
0.5
 24
0.5
 15
0.5
 25
0.5
 16
0.0
 26
0.0
 36
1.0
 17
0.0
 27
0.0
 37
0.0
 40
377.0174037735849
 41
1.576530612244898
 42
50.0
 43
0.0
 44
0.0
 50
0.0
 51
0.0
 71
    16
 72
   100
 73
     1
 74
     3
 75
     0
 76
     0
 77
     0
 78
     0
281
     0
 65
     1
110
0.0
120
0.0
130
0.0
111
1.0
121
0.0
131
0.0
112
0.0
122
1.0
132
0.0
 79
     0
146
0.0
 60
     3
 61
     5
292
     1
282
     1
141
0.0
142
0.0
 63
   250
  0
ENDTAB
  0
TABLE
  2
LTYPE
  5
5
330
0
100
AcDbSymbolTable
 70
    19
  0
LTYPE
  5
14
330
5
100
AcDbSymbolTableRecord
100
AcDbLinetypeTableRecord
  2
ByBlock
 70
     0
  3

 72
    65
 73
     0
 40
0.0
  0
LTYPE
  5
15
330
5
100
AcDbSymbolTableRecord
100
AcDbLinetypeTableRecord
  2
ByLayer
 70
     0
  3

 72
    65
 73
     0
 40
0.0
  0
LTYPE
  5
16
330
5
100
AcDbSymbolTableRecord
100
AcDbLinetypeTableRecord
  2
CONTINUOUS
 70
     0
  3
Solid
 72
    65
 73
     0
 40
0.0
  0
LTYPE
  5
20
330
5
100
AcDbSymbolTableRecord
100
AcDbLinetypeTableRecord
  2
PHANTOM
 70
     0
  3
Phantom ______  __  __  ______  __  __  ______
 72
    65
 73
     6
 40
2.5
 49
1.25
 74
     0
 49
-0.25
 74
     0
 49
0.25
 74
     0
 49
-0.25
 74
     0
 49
0.25
 74
     0
 49
-0.25
 74
     0
  0
LTYPE
  5
21
330
5
100
AcDbSymbolTableRecord
100
AcDbLinetypeTableRecord
  2
DOT2
 70
     0
  3
Dot (.5) . . . . . . . . . . . . . . . . . . . 
 72
    65
 73
     2
 40
0.1
 49
0.0
 74
     0
 49
-0.1
 74
     0
  0
LTYPE
  5
22
330
5
100
AcDbSymbolTableRecord
100
AcDbLinetypeTableRecord
  2
DIVIDE
 70
     0
  3
Divide __ . . __ . . __ . . __ . . __ . . __
 72
    65
 73
     6
 40
1.6
 49
1.0
 74
     0
 49
-0.2
 74
     0
 49
0.0
 74
     0
 49
-0.2
 74
     0
 49
0.0
 74
     0
 49
-0.2
 74
     0
  0
LTYPE
  5
23
330
5
100
AcDbSymbolTableRecord
100
AcDbLinetypeTableRecord
  2
DIVIDEX2
 70
     0
  3
Divide (2x) ____  . .  ____  . .  ____  . .  ____
 72
    65
 73
     6
 40
2.6
 49
2.0
 74
     0
 49
-0.2
 74
     0
 49
0.0
 74
     0
 49
-0.2
 74
     0
 49
0.0
 74
     0
 49
-0.2
 74
     0
  0
LTYPE
  5
24
330
5
100
AcDbSymbolTableRecord
100
AcDbLinetypeTableRecord
  2
CENTER
 70
     0
  3
Center ____ _ ____ _ ____ _ ____ _ ____ _ ____
 72
    65
 73
     4
 40
2.0
 49
1.25
 74
     0
 49
-0.25
 74
     0
 49
0.25
 74
     0
 49
-0.25
 74
     0
  0
LTYPE
  5
25
330
5
100
AcDbSymbolTableRecord
100
AcDbLinetypeTableRecord
  2
DASHDOT
 70
     0
  3
Dash dot __ . __ . __ . __ . __ . __ . __ . __
 72
    65
 73
     4
 40
1.4
 49
1.0
 74
     0
 49
-0.2
 74
     0
 49
0.0
 74
     0
 49
-0.2
 74
     0
  0
LTYPE
  5
26
330
5
100
AcDbSymbolTableRecord
100
AcDbLinetypeTableRecord
  2
CENTERX2
 70
     0
  3
Center (2x) ________  __  ________  __  ________
 72
    65
 73
     4
 40
3.5
 49
2.5
 74
     0
 49
-0.25
 74
     0
 49
0.5
 74
     0
 49
-0.25
 74
     0
  0
LTYPE
  5
27
330
5
100
AcDbSymbolTableRecord
100
AcDbLinetypeTableRecord
  2
PHANTOMX2
 70
     0
  3
Phantom (2x)____________    ____    ____    ____________
 72
    65
 73
     6
 40
4.25
 49
2.5
 74
     0
 49
-0.25
 74
     0
 49
0.5
 74
     0
 49
-0.25
 74
     0
 49
0.5
 74
     0
 49
-0.25
 74
     0
  0
LTYPE
  5
29
330
5
100
AcDbSymbolTableRecord
100
AcDbLinetypeTableRecord
  2
PHANTOM2
 70
     0
  3
Phantom (.5x) ___ _ _ ___ _ _ ___ _ _ ___ _ _ ___
 72
    65
 73
     6
 40
1.25
 49
0.625
 74
     0
 49
-0.125
 74
     0
 49
0.125
 74
     0
 49
-0.125
 74
     0
 49
0.125
 74
     0
 49
-0.125
 74
     0
  0
LTYPE
  5
2A
330
5
100
AcDbSymbolTableRecord
100
AcDbLinetypeTableRecord
  2
DASHED
 70
     0
  3
Dashed __ __ __ __ __ __ __ __ __ __ __ __ __ _
 72
    65
 73
     2
 40
0.6
 49
0.5
 74
     0
 49
-0.1
 74
     0
  0
LTYPE
  5
2B
330
5
100
AcDbSymbolTableRecord
100
AcDbLinetypeTableRecord
  2
DASHED2
 70
     0
  3
Dashed (.5x) _ _ _ _ _ _ _ _ _ _ _ _ _ _
 72
    65
 73
     2
 40
0.3
 49
0.25
 74
     0
 49
-0.05
 74
     0
  0
LTYPE
  5
2C
330
5
100
AcDbSymbolTableRecord
100
AcDbLinetypeTableRecord
  2
DASHDOT2
 70
     0
  3
Dash dot (.5x) _ . _ . _ . _ . _ . _ . _ . _
 72
    65
 73
     4
 40
0.7
 49
0.5
 74
     0
 49
-0.1
 74
     0
 49
0.0
 74
     0
 49
-0.1
 74
     0
  0
LTYPE
  5
2D
330
5
100
AcDbSymbolTableRecord
100
AcDbLinetypeTableRecord
  2
DOTX2
 70
     0
  3
Dot (2x) .    .    .    .    .    .    .    . 
 72
    65
 73
     2
 40
0.4
 49
0.0
 74
     0
 49
-0.4
 74
     0
  0
LTYPE
  5
2E
330
5
100
AcDbSymbolTableRecord
100
AcDbLinetypeTableRecord
  2
DIVIDE2
 70
     0
  3
Divide(.5x) _ . _ . _ . _ . _ . _ . _ . _
 72
    65
 73
     6
 40
0.8
 49
0.5
 74
     0
 49
-0.1
 74
     0
 49
0.0
 74
     0
 49
-0.1
 74
     0
 49
0.0
 74
     0
 49
-0.1
 74
     0
  0
LTYPE
  5
2F
330
5
100
AcDbSymbolTableRecord
100
AcDbLinetypeTableRecord
  2
CENTER2
 70
     0
  3
Center (.5x) ____ _ ____ _ ____ _ ____ _ ____
 72
    65
 73
     4
 40
1.0
 49
0.625
 74
     0
 49
-0.125
 74
     0
 49
0.125
 74
     0
 49
-0.125
 74
     0
  0
LTYPE
  5
30
330
5
100
AcDbSymbolTableRecord
100
AcDbLinetypeTableRecord
  2
DASHDOTX2
 70
     0
  3
Dash dot (2x) ____  .  ____  .  ____  .  ____
 72
    65
 73
     4
 40
2.4
 49
2.0
 74
     0
 49
-0.2
 74
     0
 49
0.0
 74
     0
 49
-0.2
 74
     0
  0
LTYPE
  5
31
330
5
100
AcDbSymbolTableRecord
100
AcDbLinetypeTableRecord
  2
DOT
 70
     0
  3
Dot .  .  .  .  .  .  .  .  .  .  .  .  .  .  .  .
 72
    65
 73
     2
 40
0.2
 49
0.0
 74
     0
 49
-0.2
 74
     0
  0
LTYPE
  5
32
330
5
100
AcDbSymbolTableRecord
100
AcDbLinetypeTableRecord
  2
DASHEDX2
 70
     0
  3
Dashed (2x) ____  ____  ____  ____  ____  ____
 72
    65
 73
     2
 40
1.2
 49
1.0
 74
     0
 49
-0.2
 74
     0
  0
ENDTAB
  0
TABLE
  2
LAYER
  5
2
102
{ACAD_XDICTIONARY
360
1BF50
102
}
330
0
100
AcDbSymbolTable
 70
     3
  0
LAYER
  5
10
330
2
100
AcDbSymbolTableRecord
100
AcDbLayerTableRecord
  2
0
 70
     0
 62
     3
  6
CONTINUOUS
370
    -3
390
F
347
1BF56
  0
LAYER
  5
1BD0D
330
2
100
AcDbSymbolTableRecord
100
AcDbLayerTableRecord
  2
VIEWPORTS
 70
     0
 62
     7
  6
CONTINUOUS
370
    -3
390
F
347
1BF56
  0
LAYER
  5
1BF53
330
2
100
AcDbSymbolTableRecord
100
AcDbLayerTableRecord
  2
DESIGN
 70
     0
 62
     1
  6
CONTINUOUS
370
    -3
390
F
347
1BF56
1001
AcAecLayerStandard
1000

1000

  0
ENDTAB
  0
TABLE
  2
STYLE
  5
3
330
0
100
AcDbSymbolTable
 70
     1
  0
STYLE
  5
11
330
3
100
AcDbSymbolTableRecord
100
AcDbTextStyleTableRecord
  2
Standard
 70
     0
 40
0.0
 41
1.0
 50
0.0
 71
     0
 42
0.2
  3
txt
  4

  0
ENDTAB
  0
TABLE
  2
VIEW
  5
6
330
0
100
AcDbSymbolTable
 70
     0
  0
ENDTAB
  0
TABLE
  2
UCS
  5
7
330
0
100
AcDbSymbolTable
 70
     0
  0
ENDTAB
  0
TABLE
  2
APPID
  5
9
330
0
100
AcDbSymbolTable
 70
     3
  0
APPID
  5
12
330
9
100
AcDbSymbolTableRecord
100
AcDbRegAppTableRecord
  2
ACAD
 70
     0
  0
APPID
  5
33
330
9
100
AcDbSymbolTableRecord
100
AcDbRegAppTableRecord
  2
DXFWRITE
 70
     0
  0
APPID
  5
1BF54
330
9
100
AcDbSymbolTableRecord
100
AcDbRegAppTableRecord
  2
AcAecLayerStandard
 70
     0
  0
ENDTAB
  0
TABLE
  2
DIMSTYLE
  5
A
330
0
100
AcDbSymbolTable
 70
     1
100
AcDbDimStyleTable
  0
DIMSTYLE
105
34
330
A
100
AcDbSymbolTableRecord
100
AcDbDimStyleTableRecord
  2
Standard
 70
     0
340
11
  0
ENDTAB
  0
TABLE
  2
BLOCK_RECORD
  5
1
330
0
100
AcDbSymbolTable
 70
     5
  0
BLOCK_RECORD
  5
1D
102
{ACAD_XDICTIONARY
360
1C273
102
}
330
1
100
AcDbSymbolTableRecord
100
AcDbBlockTableRecord
  2
*Model_Space
340
1E
 70
     0
280
     1
281
     0
  0
BLOCK_RECORD
  5
1C4D9
330
1
100
AcDbSymbolTableRecord
100
AcDbBlockTableRecord
  2
*Paper_Space
340
1C4DA
 70
     0
280
     1
281
     0
  0
BLOCK_RECORD
  5
1C2F2
330
1
100
AcDbSymbolTableRecord
100
AcDbBlockTableRecord
  2
hand 1
340
0
102
{BLKREFS
331
1C34E
102
}
 70
     0
280
     1
281
     0
  0
BLOCK_RECORD
  5
1C34F
330
1
100
AcDbSymbolTableRecord
100
AcDbBlockTableRecord
  2
hand 2
340
0
102
{BLKREFS
331
1C3AB
102
}
 70
     0
280
     1
281
     0
  0
BLOCK_RECORD
  5
1C3AE
330
1
100
AcDbSymbolTableRecord
100
AcDbBlockTableRecord
  2
feet
340
0
102
{BLKREFS
331
1C3D2
102
}
 70
     0
280
     1
281
     0
  0
BLOCK_RECORD
  5
1C3D3
330
1
100
AcDbSymbolTableRecord
100
AcDbBlockTableRecord
  2
body
340
0
102
{BLKREFS
331
1C434
102
}
 70
     0
280
     1
281
     0
  0
BLOCK_RECORD
  5
1C435
330
1
100
AcDbSymbolTableRecord
100
AcDbBlockTableRecord
  2
head
340
0
102
{BLKREFS
331
1C4D0
102
}
 70
     0
280
     1
281
     0
  0
ENDTAB
  0
ENDSEC
  0
SECTION
  2
BLOCKS
  0
BLOCK
  5
1BD10
330
1D
100
AcDbEntity
  8
0
100
AcDbBlockBegin
  2
*Model_Space
 70
     0
 10
0.0
 20
0.0
 30
0.0
  3
*Model_Space
  1

  0
ENDBLK
  5
1BD11
330
1D
100
AcDbEntity
  8
0
100
AcDbBlockEnd
  0
BLOCK
  5
1C4DB
330
1C4D9
100
AcDbEntity
 67
     1
  8
0
100
AcDbBlockBegin
  2
*Paper_Space
 70
     0
 10
0.0
 20
0.0
 30
0.0
  3
*Paper_Space
  1

  0
ENDBLK
  5
1C4DC
330
1C4D9
100
AcDbEntity
 67
     1
  8
0
100
AcDbBlockEnd
  0
BLOCK
  5
1C2F3
330
1C2F2
100
AcDbEntity
  8
0
100
AcDbBlockBegin
  2
hand 1
 70
     0
 10
0.0
 20
0.0
 30
0.0
  3
hand 1
  1

  0
LINE
  5
1C2F5
330
1C2F2
100
AcDbEntity
  8
DESIGN
100
AcDbLine
 10
317.65235
 20
31.53025
 30
0.0
 11
317.65235
 21
23.16575
 31
0.0
  0
LINE
  5
1C2F6
330
1C2F2
100
AcDbEntity
  8
DESIGN
100
AcDbLine
 10
313.10545
 20
31.53025
 30
0.0
 11
313.10545
 21
23.16575
 31
0.0
  0
LINE
  5
1C2F7
330
1C2F2
100
AcDbEntity
  8
DESIGN
100
AcDbLine
 10
322.2002
 20
31.53025
 30
0.0
 11
322.2002
 21
23.16575
 31
0.0
  0
LINE
  5
1C2F8
330
1C2F2
100
AcDbEntity
  8
DESIGN
100
AcDbLine
 10
308.56545
 20
40.9502
 30
0.0
 11
290.70045
 21
40.9502
 31
0.0
  0
LINE
  5
1C2F9
330
1C2F2
100
AcDbEntity
  8
DESIGN
 62
     2
100
AcDbLine
 10
290.70045
 20
40.9502
 30
0.0
 11
290.70045
 21
58.7942
 31
0.0
  0
LINE
  5
1C2FA
330
1C2F2
100
AcDbEntity
  8
DESIGN
100
AcDbLine
 10
290.70045
 20
58.7942
 30
0.0
 11
280.23545
 21
58.8142
 31
0.0
  0
LINE
  5
1C2FB
330
1C2F2
100
AcDbEntity
  8
DESIGN
100
AcDbLine
 10
280.23545
 20
58.8142
 30
0.0
 11
280.28595
 21
74.5667
 31
0.0
  0
LINE
  5
1C2FC
330
1C2F2
100
AcDbEntity
  8
DESIGN
 62
     2
100
AcDbLine
 10
308.56545
 20
74.5667
 30
0.0
 11
308.56545
 21
40.9502
 31
0.0
  0
LINE
  5
1C2FD
330
1C2F2
100
AcDbEntity
  8
DESIGN
100
AcDbLine
 10
308.56545
 20
40.9502
 30
0.0
 11
308.56545
 21
40.9502
 31
0.0
  0
LINE
  5
1C2FE
330
1C2F2
100
AcDbEntity
  8
DESIGN
100
AcDbLine
 10
326.46975
 20
40.9502
 30
0.0
 11
344.33425
 21
40.9502
 31
0.0
  0
LINE
  5
1C2FF
330
1C2F2
100
AcDbEntity
  8
DESIGN
100
AcDbLine
 10
344.33425
 20
58.7942
 30
0.0
 11
354.79975
 21
58.8142
 31
0.0
  0
LINE
  5
1C300
330
1C2F2
100
AcDbEntity
  8
DESIGN
100
AcDbLine
 10
354.79975
 20
58.8142
 30
0.0
 11
354.74825
 21
74.5667
 31
0.0
  0
LINE
  5
1C301
330
1C2F2
100
AcDbEntity
  8
DESIGN
 62
     2
100
AcDbLine
 10
326.46975
 20
74.5667
 30
0.0
 11
326.46975
 21
40.9502
 31
0.0
  0
LINE
  5
1C302
330
1C2F2
100
AcDbEntity
  8
DESIGN
100
AcDbLine
 10
326.46975
 20
40.9502
 30
0.0
 11
326.46975
 21
40.9502
 31
0.0
  0
LINE
  5
1C303
330
1C2F2
100
AcDbEntity
  8
DESIGN
 62
     2
100
AcDbLine
 10
308.5945
 20
40.95
 30
0.0
 11
326.459
 21
40.95
 31
0.0
  0
LINE
  5
1C304
330
1C2F2
100
AcDbEntity
  8
DESIGN
100
AcDbLine
 10
326.459
 20
74.5665
 30
0.0
 11
308.5945
 21
74.5665
 31
0.0
  0
LINE
  5
1C305
330
1C2F2
100
AcDbEntity
  8
DESIGN
100
AcDbLine
 10
326.4495
 20
23.1055
 30
0.0
 11
326.4495
 21
40.97
 31
0.0
  0
LINE
  5
1C306
330
1C2F2
100
AcDbEntity
  8
DESIGN
100
AcDbLine
 10
308.585
 20
40.97
 30
0.0
 11
308.585
 21
23.1055
 31
0.0
  0
LINE
  5
1C307
330
1C2F2
100
AcDbEntity
  8
DESIGN
100
AcDbLine
 10
290.68
 20
58.0225
 30
0.0
 11
272.8165
 21
58.0225
 31
0.0
  0
LINE
  5
1C308
330
1C2F2
100
AcDbEntity
  8
DESIGN
100
AcDbLine
 10
313.46775
 20
14.6504
 30
0.0
 11
321.56725
 21
14.6504
 31
0.0
  0
LINE
  5
1C309
330
1C2F2
100
AcDbEntity
  8
DESIGN
100
AcDbLine
 10
321.56725
 20
14.6504
 30
0.0
 11
321.56725
 21
22.4689
 31
0.0
  0
LINE
  5
1C30A
330
1C2F2
100
AcDbEntity
  8
DESIGN
100
AcDbLine
 10
321.56725
 20
22.4689
 30
0.0
 11
320.16025
 21
22.4689
 31
0.0
  0
LINE
  5
1C30B
330
1C2F2
100
AcDbEntity
  8
DESIGN
100
AcDbLine
 10
320.16025
 20
22.4689
 30
0.0
 11
320.1700438461538
 21
23.1055
 31
0.0
  0
LINE
  5
1C30C
330
1C2F2
100
AcDbEntity
  8
DESIGN
100
AcDbLine
 10
314.8797713704994
 20
23.1055
 30
0.0
 11
314.89175
 21
22.4609
 31
0.0
  0
LINE
  5
1C30D
330
1C2F2
100
AcDbEntity
  8
DESIGN
100
AcDbLine
 10
314.89175
 20
22.4609
 30
0.0
 11
313.46775
 21
22.4609
 31
0.0
  0
LINE
  5
1C30E
330
1C2F2
100
AcDbEntity
  8
DESIGN
100
AcDbLine
 10
313.46775
 20
22.4609
 30
0.0
 11
313.46775
 21
14.6504
 31
0.0
  0
LINE
  5
1C30F
330
1C2F2
100
AcDbEntity
  8
DESIGN
100
AcDbLine
 10
273.0576
 20
34.40725
 30
0.0
 11
290.4756
 21
34.40725
 31
0.0
  0
LINE
  5
1C310
330
1C2F2
100
AcDbEntity
  8
DESIGN
100
AcDbLine
 10
290.4756
 20
34.40725
 30
0.0
 11
290.4756
 21
40.95
 31
0.0
  0
LINE
  5
1C311
330
1C2F2
100
AcDbEntity
  8
DESIGN
100
AcDbLine
 10
287.1261
 20
40.95
 30
0.0
 11
287.1261
 21
40.27425
 31
0.0
  0
LINE
  5
1C312
330
1C2F2
100
AcDbEntity
  8
DESIGN
100
AcDbLine
 10
287.1261
 20
40.27425
 30
0.0
 11
276.5666
 21
40.28225
 31
0.0
  0
LINE
  5
1C313
330
1C2F2
100
AcDbEntity
  8
DESIGN
100
AcDbLine
 10
276.5666
 20
40.28225
 30
0.0
 11
276.5705937200957
 21
40.95
 31
0.0
  0
LINE
  5
1C314
330
1C2F2
100
AcDbEntity
  8
DESIGN
100
AcDbLine
 10
273.0576
 20
40.95
 30
0.0
 11
273.0576
 21
34.40725
 31
0.0
  0
LINE
  5
1C315
330
1C2F2
100
AcDbEntity
  8
DESIGN
100
AcDbLine
 10
303.74315
 20
100.82615
 30
0.0
 11
295.64365
 21
100.82615
 31
0.0
  0
LINE
  5
1C316
330
1C2F2
100
AcDbEntity
  8
DESIGN
100
AcDbLine
 10
295.64365
 20
100.82615
 30
0.0
 11
295.64365
 21
93.00765
 31
0.0
  0
LINE
  5
1C317
330
1C2F2
100
AcDbEntity
  8
DESIGN
100
AcDbLine
 10
295.64365
 20
93.00765
 30
0.0
 11
297.05065
 21
93.00765
 31
0.0
  0
LINE
  5
1C318
330
1C2F2
100
AcDbEntity
  8
DESIGN
100
AcDbLine
 10
297.05065
 20
93.00765
 30
0.0
 11
297.0389607843138
 21
92.4115
 31
0.0
  0
LINE
  5
1C319
330
1C2F2
100
AcDbEntity
  8
DESIGN
100
AcDbLine
 10
302.3305269526248
 20
92.4115
 30
0.0
 11
302.31815
 21
93.01565
 31
0.0
  0
LINE
  5
1C31A
330
1C2F2
100
AcDbEntity
  8
DESIGN
100
AcDbLine
 10
302.31815
 20
93.01565
 30
0.0
 11
303.74315
 21
93.01565
 31
0.0
  0
LINE
  5
1C31B
330
1C2F2
100
AcDbEntity
  8
DESIGN
100
AcDbLine
 10
303.74315
 20
93.01565
 30
0.0
 11
303.74315
 21
100.82615
 31
0.0
  0
LINE
  5
1C31C
330
1C2F2
100
AcDbEntity
  8
DESIGN
100
AcDbLine
 10
350.88965
 20
40.9502
 30
0.0
 11
350.88965
 21
58.15825
 31
0.0
  0
LINE
  5
1C31D
330
1C2F2
100
AcDbEntity
  8
DESIGN
100
AcDbLine
 10
350.88965
 20
58.15825
 30
0.0
 11
344.33425
 21
58.15825
 31
0.0
  0
LINE
  5
1C31E
330
1C2F2
100
AcDbEntity
  8
DESIGN
100
AcDbLine
 10
344.33425
 20
54.80875
 30
0.0
 11
345.04315
 21
54.80875
 31
0.0
  0
LINE
  5
1C31F
330
1C2F2
100
AcDbEntity
  8
DESIGN
100
AcDbLine
 10
345.04315
 20
54.80875
 30
0.0
 11
345.03415
 21
44.25025
 31
0.0
  0
LINE
  5
1C320
330
1C2F2
100
AcDbEntity
  8
DESIGN
100
AcDbLine
 10
345.03415
 20
44.25025
 30
0.0
 11
344.33425
 21
44.25424942857143
 31
0.0
  0
LINE
  5
1C321
330
1C2F2
100
AcDbEntity
  8
DESIGN
100
AcDbLine
 10
264.3506
 20
54.11425
 30
0.0
 11
264.3506
 21
46.01475
 31
0.0
  0
LINE
  5
1C322
330
1C2F2
100
AcDbEntity
  8
DESIGN
100
AcDbLine
 10
264.3506
 20
46.01475
 30
0.0
 11
272.1691
 21
46.01475
 31
0.0
  0
LINE
  5
1C323
330
1C2F2
100
AcDbEntity
  8
DESIGN
100
AcDbLine
 10
272.1691
 20
46.01475
 30
0.0
 11
272.1691
 21
47.42175
 31
0.0
  0
LINE
  5
1C324
330
1C2F2
100
AcDbEntity
  8
DESIGN
100
AcDbLine
 10
272.1691
 20
47.42175
 30
0.0
 11
272.8165
 21
47.41013397129187
 31
0.0
  0
LINE
  5
1C325
330
1C2F2
100
AcDbEntity
  8
DESIGN
100
AcDbLine
 10
272.8165
 20
52.70101948356807
 30
0.0
 11
272.1611
 21
52.69025
 31
0.0
  0
LINE
  5
1C326
330
1C2F2
100
AcDbEntity
  8
DESIGN
100
AcDbLine
 10
272.1611
 20
52.69025
 30
0.0
 11
272.1611
 21
54.11425
 31
0.0
  0
LINE
  5
1C327
330
1C2F2
100
AcDbEntity
  8
DESIGN
100
AcDbLine
 10
272.1611
 20
54.11425
 30
0.0
 11
264.3506
 21
54.11425
 31
0.0
  0
LINE
  5
1C328
330
1C2F2
100
AcDbEntity
  8
DESIGN
100
AcDbLine
 10
344.19045
 20
81.12355
 30
0.0
 11
326.77245
 21
81.12355
 31
0.0
  0
LINE
  5
1C329
330
1C2F2
100
AcDbEntity
  8
DESIGN
100
AcDbLine
 10
326.77245
 20
81.12355
 30
0.0
 11
326.77245
 21
74.5667
 31
0.0
  0
LINE
  5
1C32A
330
1C2F2
100
AcDbEntity
  8
DESIGN
100
AcDbLine
 10
330.12195
 20
74.5667
 30
0.0
 11
330.12195
 21
75.29705
 31
0.0
  0
LINE
  5
1C32B
330
1C2F2
100
AcDbEntity
  8
DESIGN
100
AcDbLine
 10
330.12195
 20
75.29705
 30
0.0
 11
340.68045
 21
75.28905
 31
0.0
  0
LINE
  5
1C32C
330
1C2F2
100
AcDbEntity
  8
DESIGN
100
AcDbLine
 10
340.68045
 20
75.28905
 30
0.0
 11
340.6765113413304
 21
74.5667
 31
0.0
  0
LINE
  5
1C32D
330
1C2F2
100
AcDbEntity
  8
DESIGN
100
AcDbLine
 10
344.19045
 20
74.5667
 30
0.0
 11
344.19045
 21
81.12355
 31
0.0
  0
LINE
  5
1C32E
330
1C2F2
100
AcDbEntity
  8
DESIGN
100
AcDbLine
 10
308.609
 20
74.547
 30
0.0
 11
308.609
 21
92.4115
 31
0.0
  0
LINE
  5
1C32F
330
1C2F2
100
AcDbEntity
  8
DESIGN
100
AcDbLine
 10
290.744
 20
92.4115
 30
0.0
 11
290.744
 21
74.547
 31
0.0
  0
LINE
  5
1C330
330
1C2F2
100
AcDbEntity
  8
DESIGN
  6
ByBlock
100
AcDbLine
 10
344.33425
 20
40.9502
 30
0.0
 11
350.88965
 21
40.9502
 31
0.0
  0
LINE
  5
1C331
330
1C2F2
100
AcDbEntity
  8
DESIGN
  6
ByBlock
100
AcDbLine
 10
302.3305269526248
 20
92.4115
 30
0.0
 11
308.609
 21
92.4115
 31
0.0
  0
LINE
  5
1C332
330
1C2F2
100
AcDbEntity
  8
DESIGN
  6
ByBlock
100
AcDbLine
 10
290.744
 20
92.4115
 30
0.0
 11
297.0389607843138
 21
92.4115
 31
0.0
  0
LINE
  5
1C333
330
1C2F2
100
AcDbEntity
  8
DESIGN
  6
ByBlock
 62
     2
100
AcDbLine
 10
297.0389607843138
 20
92.4115
 30
0.0
 11
302.3305269526248
 21
92.4115
 31
0.0
  0
LINE
  5
1C334
330
1C2F2
100
AcDbEntity
  8
DESIGN
  6
ByBlock
100
AcDbLine
 10
326.459
 20
74.5665
 30
0.0
 11
326.77245
 21
74.5665
 31
0.0
  0
LINE
  5
1C335
330
1C2F2
100
AcDbEntity
  8
DESIGN
  6
ByBlock
 62
     2
100
AcDbLine
 10
326.77245
 20
74.5665
 30
0.0
 11
330.12195
 21
74.5665
 31
0.0
  0
LINE
  5
1C336
330
1C2F2
100
AcDbEntity
  8
DESIGN
  6
ByBlock
100
AcDbLine
 10
330.12195
 20
74.5665
 30
0.0
 11
340.6765113413304
 21
74.5667
 31
0.0
  0
LINE
  5
1C337
330
1C2F2
100
AcDbEntity
  8
DESIGN
  6
ByBlock
 62
     2
100
AcDbLine
 10
340.6765113413304
 20
74.5667
 30
0.0
 11
344.19045
 21
74.5667
 31
0.0
  0
LINE
  5
1C338
330
1C2F2
100
AcDbEntity
  8
DESIGN
  6
ByBlock
100
AcDbLine
 10
344.19045
 20
74.5667
 30
0.0
 11
354.74825
 21
74.5667
 31
0.0
  0
LINE
  5
1C339
330
1C2F2
100
AcDbEntity
  8
DESIGN
  6
ByBlock
 62
     2
100
AcDbLine
 10
344.33425
 20
44.25424942857143
 30
0.0
 11
344.33425
 21
40.9502
 31
0.0
  0
LINE
  5
1C33A
330
1C2F2
100
AcDbEntity
  8
DESIGN
  6
ByBlock
100
AcDbLine
 10
344.33425
 20
44.25424942857143
 30
0.0
 11
344.33425
 21
54.80875
 31
0.0
  0
LINE
  5
1C33B
330
1C2F2
100
AcDbEntity
  8
DESIGN
  6
ByBlock
 62
     2
100
AcDbLine
 10
344.33425
 20
54.80875
 30
0.0
 11
344.33425
 21
58.15825
 31
0.0
  0
LINE
  5
1C33C
330
1C2F2
100
AcDbEntity
  8
DESIGN
  6
ByBlock
100
AcDbLine
 10
344.33425
 20
58.15825
 30
0.0
 11
344.33425
 21
58.7942
 31
0.0
  0
LINE
  5
1C33D
330
1C2F2
100
AcDbEntity
  8
DESIGN
  6
ByBlock
 62
     2
100
AcDbLine
 10
344.33425
 20
58.7942
 30
0.0
 11
344.33425
 21
74.5667
 31
0.0
  0
LINE
  5
1C33E
330
1C2F2
100
AcDbEntity
  8
DESIGN
  6
ByBlock
100
AcDbLine
 10
308.585
 20
23.1055
 30
0.0
 11
313.10545
 21
23.1055
 31
0.0
  0
LINE
  5
1C33F
330
1C2F2
100
AcDbEntity
  8
DESIGN
  6
ByBlock
100
AcDbLine
 10
313.10545
 20
23.1055
 30
0.0
 11
314.8797713704994
 21
23.1055
 31
0.0
  0
LINE
  5
1C340
330
1C2F2
100
AcDbEntity
  8
DESIGN
  6
ByBlock
 62
     2
100
AcDbLine
 10
314.8797713704994
 20
23.1055
 30
0.0
 11
317.65235
 21
23.1055
 31
0.0
  0
LINE
  5
1C341
330
1C2F2
100
AcDbEntity
  8
DESIGN
  6
ByBlock
 62
     2
100
AcDbLine
 10
317.65235
 20
23.1055
 30
0.0
 11
320.1694480832938
 21
23.06677541410336
 31
0.0
  0
LINE
  5
1C342
330
1C2F2
100
AcDbEntity
  8
DESIGN
  6
ByBlock
100
AcDbLine
 10
320.1694480832938
 20
23.06677541410336
 30
0.0
 11
322.2002
 21
23.06677541410336
 31
0.0
  0
LINE
  5
1C343
330
1C2F2
100
AcDbEntity
  8
DESIGN
  6
ByBlock
100
AcDbLine
 10
322.2002
 20
23.06677541410336
 30
0.0
 11
326.4495
 21
23.1055
 31
0.0
  0
LINE
  5
1C344
330
1C2F2
100
AcDbEntity
  8
DESIGN
  6
ByBlock
100
AcDbLine
 10
290.70045
 20
40.9502
 30
0.0
 11
290.4756
 21
40.95
 31
0.0
  0
LINE
  5
1C345
330
1C2F2
100
AcDbEntity
  8
DESIGN
  6
ByBlock
 62
     2
100
AcDbLine
 10
290.4756
 20
40.95
 30
0.0
 11
287.1261
 21
40.95
 31
0.0
  0
LINE
  5
1C346
330
1C2F2
100
AcDbEntity
  8
DESIGN
  6
ByBlock
100
AcDbLine
 10
287.1261
 20
40.95
 30
0.0
 11
276.5705937200957
 21
40.95
 31
0.0
  0
LINE
  5
1C347
330
1C2F2
100
AcDbEntity
  8
DESIGN
  6
ByBlock
 62
     2
100
AcDbLine
 10
276.5705937200957
 20
40.95
 30
0.0
 11
273.0576
 21
40.95
 31
0.0
  0
LINE
  5
1C348
330
1C2F2
100
AcDbEntity
  8
DESIGN
  6
ByBlock
100
AcDbLine
 10
272.8165
 20
58.0225
 30
0.0
 11
272.8165
 21
52.70101948356807
 31
0.0
  0
LINE
  5
1C349
330
1C2F2
100
AcDbEntity
  8
DESIGN
  6
ByBlock
 62
     2
100
AcDbLine
 10
272.8165
 20
52.70101948356807
 30
0.0
 11
272.8165
 21
47.41013397129187
 31
0.0
  0
LINE
  5
1C34A
330
1C2F2
100
AcDbEntity
  8
DESIGN
  6
ByBlock
100
AcDbLine
 10
272.8165
 20
47.41013397129187
 30
0.0
 11
272.8165
 21
40.95
 31
0.0
  0
LINE
  5
1C34B
330
1C2F2
100
AcDbEntity
  8
DESIGN
  6
ByBlock
100
AcDbLine
 10
273.0576
 20
40.95
 30
0.0
 11
272.8165
 21
40.95
 31
0.0
  0
LINE
  5
1C34C
330
1C2F2
100
AcDbEntity
  8
DESIGN
  6
ByBlock
100
AcDbLine
 10
280.28595
 20
74.5667
 30
0.0
 11
290.744
 21
74.547
 31
0.0
  0
LINE
  5
1C34D
330
1C2F2
100
AcDbEntity
  8
DESIGN
  6
ByBlock
 62
     2
100
AcDbLine
 10
290.744
 20
74.547
 30
0.0
 11
308.609
 21
74.547
 31
0.0
  0
ENDBLK
  5
1C2F4
330
1C2F2
100
AcDbEntity
  8
0
100
AcDbBlockEnd
  0
BLOCK
  5
1C350
330
1C34F
100
AcDbEntity
  8
0
100
AcDbBlockBegin
  2
hand 2
 70
     0
 10
0.0
 20
0.0
 30
0.0
  3
hand 2
  1

  0
LINE
  5
1C352
330
1C34F
100
AcDbEntity
  8
DESIGN
100
AcDbLine
 10
52.4978
 20
215.03005
 30
0.0
 11
52.4978
 21
206.6055
 31
0.0
  0
LINE
  5
1C353
330
1C34F
100
AcDbEntity
  8
DESIGN
100
AcDbLine
 10
57.0447
 20
215.03005
 30
0.0
 11
57.0447
 21
206.6055
 31
0.0
  0
LINE
  5
1C354
330
1C34F
100
AcDbEntity
  8
DESIGN
100
AcDbLine
 10
47.95045
 20
215.03005
 30
0.0
 11
47.95045
 21
206.6055
 31
0.0
  0
LINE
  5
1C355
330
1C34F
100
AcDbEntity
  8
DESIGN
100
AcDbLine
 10
66.40745
 20
284.32615
 30
0.0
 11
74.50695
 21
284.32615
 31
0.0
  0
LINE
  5
1C356
330
1C34F
100
AcDbEntity
  8
DESIGN
100
AcDbLine
 10
74.50695
 20
284.32615
 30
0.0
 11
74.50695
 21
276.50765
 31
0.0
  0
LINE
  5
1C357
330
1C34F
100
AcDbEntity
  8
DESIGN
100
AcDbLine
 10
74.50695
 20
276.50765
 30
0.0
 11
73.09995
 21
276.50765
 31
0.0
  0
LINE
  5
1C358
330
1C34F
100
AcDbEntity
  8
DESIGN
100
AcDbLine
 10
73.09995
 20
276.50765
 30
0.0
 11
73.11163374673629
 21
275.911
 31
0.0
  0
LINE
  5
1C359
330
1C34F
100
AcDbEntity
  8
DESIGN
100
AcDbLine
 10
67.82007304737516
 20
275.911
 30
0.0
 11
67.83245
 21
276.51515
 31
0.0
  0
LINE
  5
1C35A
330
1C34F
100
AcDbEntity
  8
DESIGN
100
AcDbLine
 10
67.83245
 20
276.51515
 30
0.0
 11
66.40745
 21
276.51515
 31
0.0
  0
LINE
  5
1C35B
330
1C34F
100
AcDbEntity
  8
DESIGN
100
AcDbLine
 10
66.40745
 20
276.51515
 30
0.0
 11
66.40745
 21
284.32615
 31
0.0
  0
LINE
  5
1C35C
330
1C34F
100
AcDbEntity
  8
DESIGN
100
AcDbLine
 10
105.80005
 20
237.6145
 30
0.0
 11
105.80005
 21
229.515
 31
0.0
  0
LINE
  5
1C35D
330
1C34F
100
AcDbEntity
  8
DESIGN
100
AcDbLine
 10
105.80005
 20
229.515
 30
0.0
 11
97.98155
 21
229.515
 31
0.0
  0
LINE
  5
1C35E
330
1C34F
100
AcDbEntity
  8
DESIGN
100
AcDbLine
 10
97.98155
 20
229.515
 30
0.0
 11
97.98155
 21
230.922
 31
0.0
  0
LINE
  5
1C35F
330
1C34F
100
AcDbEntity
  8
DESIGN
100
AcDbLine
 10
97.98155
 20
230.922
 30
0.0
 11
97.334
 21
230.9103812799043
 31
0.0
  0
LINE
  5
1C360
330
1C34F
100
AcDbEntity
  8
DESIGN
100
AcDbLine
 10
97.334
 20
236.2015413732394
 30
0.0
 11
97.98955
 21
236.19
 31
0.0
  0
LINE
  5
1C361
330
1C34F
100
AcDbEntity
  8
DESIGN
100
AcDbLine
 10
97.98955
 20
236.19
 30
0.0
 11
97.98955
 21
237.6145
 31
0.0
  0
LINE
  5
1C362
330
1C34F
100
AcDbEntity
  8
DESIGN
100
AcDbLine
 10
97.98955
 20
237.6145
 30
0.0
 11
105.80005
 21
237.6145
 31
0.0
  0
LINE
  5
1C363
330
1C34F
100
AcDbEntity
  8
DESIGN
100
AcDbLine
 10
25.9602
 20
264.62355
 30
0.0
 11
43.3782
 21
264.62355
 31
0.0
  0
LINE
  5
1C364
330
1C34F
100
AcDbEntity
  8
DESIGN
100
AcDbLine
 10
43.3782
 20
264.62355
 30
0.0
 11
43.3782
 21
258.06695
 31
0.0
  0
LINE
  5
1C365
330
1C34F
100
AcDbEntity
  8
DESIGN
100
AcDbLine
 10
40.0287
 20
258.06695
 30
0.0
 11
40.0287
 21
258.79705
 31
0.0
  0
LINE
  5
1C366
330
1C34F
100
AcDbEntity
  8
DESIGN
100
AcDbLine
 10
40.0287
 20
258.79705
 30
0.0
 11
29.4702
 21
258.78905
 31
0.0
  0
LINE
  5
1C367
330
1C34F
100
AcDbEntity
  8
DESIGN
100
AcDbLine
 10
29.4702
 20
258.78905
 30
0.0
 11
29.4741372955289
 21
258.06695
 31
0.0
  0
LINE
  5
1C368
330
1C34F
100
AcDbEntity
  8
DESIGN
100
AcDbLine
 10
25.9602
 20
258.06695
 30
0.0
 11
25.9602
 21
264.62355
 31
0.0
  0
LINE
  5
1C369
330
1C34F
100
AcDbEntity
  8
DESIGN
100
AcDbLine
 10
19.261
 20
224.4482151329736
 30
0.0
 11
19.261
 21
241.6585
 31
0.0
  0
LINE
  5
1C36A
330
1C34F
100
AcDbEntity
  8
DESIGN
100
AcDbLine
 10
19.261
 20
241.6585
 30
0.0
 11
25.8164
 21
241.6585
 31
0.0
  0
LINE
  5
1C36B
330
1C34F
100
AcDbEntity
  8
DESIGN
100
AcDbLine
 10
25.8164
 20
238.309
 30
0.0
 11
25.1075
 21
238.309
 31
0.0
  0
LINE
  5
1C36C
330
1C34F
100
AcDbEntity
  8
DESIGN
100
AcDbLine
 10
25.1075
 20
238.309
 30
0.0
 11
25.116
 21
227.7505
 31
0.0
  0
LINE
  5
1C36D
330
1C34F
100
AcDbEntity
  8
DESIGN
100
AcDbLine
 10
25.116
 20
227.7505
 30
0.0
 11
25.8164
 21
227.753698173516
 31
0.0
  0
LINE
  5
1C36E
330
1C34F
100
AcDbEntity
  8
DESIGN
100
AcDbLine
 10
25.82106231382327
 20
224.4482151329736
 30
0.0
 11
19.261
 21
224.4482151329736
 31
0.0
  0
LINE
  5
1C36F
330
1C34F
100
AcDbEntity
  8
DESIGN
100
AcDbLine
 10
97.093
 20
217.90745
 30
0.0
 11
79.675
 21
217.90745
 31
0.0
  0
LINE
  5
1C370
330
1C34F
100
AcDbEntity
  8
DESIGN
100
AcDbLine
 10
79.675
 20
217.90745
 30
0.0
 11
79.675
 21
224.45
 31
0.0
  0
LINE
  5
1C371
330
1C34F
100
AcDbEntity
  8
DESIGN
100
AcDbLine
 10
83.0245
 20
224.45
 30
0.0
 11
83.0245
 21
223.77445
 31
0.0
  0
LINE
  5
1C372
330
1C34F
100
AcDbEntity
  8
DESIGN
100
AcDbLine
 10
83.0245
 20
223.77445
 30
0.0
 11
93.584
 21
223.78245
 31
0.0
  0
LINE
  5
1C373
330
1C34F
100
AcDbEntity
  8
DESIGN
100
AcDbLine
 10
93.584
 20
223.78245
 30
0.0
 11
93.58000747607656
 21
224.45
 31
0.0
  0
LINE
  5
1C374
330
1C34F
100
AcDbEntity
  8
DESIGN
100
AcDbLine
 10
97.093
 20
224.45
 30
0.0
 11
97.093
 21
217.90745
 31
0.0
  0
LINE
  5
1C375
330
1C34F
100
AcDbEntity
  8
DESIGN
 62
     2
100
AcDbLine
 10
79.47
 20
224.45
 30
0.0
 11
79.47
 21
241.5225
 31
0.0
  0
LINE
  5
1C376
330
1C34F
100
AcDbEntity
  8
DESIGN
100
AcDbLine
 10
79.47
 20
241.5225
 30
0.0
 11
97.334
 21
241.5225
 31
0.0
  0
LINE
  5
1C377
330
1C34F
100
AcDbEntity
  8
DESIGN
 62
     2
100
AcDbLine
 10
79.406
 20
258.047
 30
0.0
 11
61.5415
 21
258.047
 31
0.0
  0
LINE
  5
1C378
330
1C34F
100
AcDbEntity
  8
DESIGN
100
AcDbLine
 10
61.5415
 20
258.047
 30
0.0
 11
61.5415
 21
275.911
 31
0.0
  0
LINE
  5
1C379
330
1C34F
100
AcDbEntity
  8
DESIGN
100
AcDbLine
 10
79.406
 20
275.911
 30
0.0
 11
79.406
 21
258.047
 31
0.0
  0
LINE
  5
1C37A
330
1C34F
100
AcDbEntity
  8
DESIGN
100
AcDbLine
 10
56.68285
 20
198.15065
 30
0.0
 11
48.58335
 21
198.15065
 31
0.0
  0
LINE
  5
1C37B
330
1C34F
100
AcDbEntity
  8
DESIGN
100
AcDbLine
 10
48.58335
 20
198.15065
 30
0.0
 11
48.58335
 21
205.96915
 31
0.0
  0
LINE
  5
1C37C
330
1C34F
100
AcDbEntity
  8
DESIGN
100
AcDbLine
 10
48.58335
 20
205.96915
 30
0.0
 11
49.99035
 21
205.96915
 31
0.0
  0
LINE
  5
1C37D
330
1C34F
100
AcDbEntity
  8
DESIGN
100
AcDbLine
 10
49.99035
 20
205.96915
 30
0.0
 11
49.97980692307693
 21
206.6055
 31
0.0
  0
LINE
  5
1C37E
330
1C34F
100
AcDbEntity
  8
DESIGN
100
AcDbLine
 10
55.2700756097561
 20
206.6055
 30
0.0
 11
55.25885
 21
205.96115
 31
0.0
  0
LINE
  5
1C37F
330
1C34F
100
AcDbEntity
  8
DESIGN
100
AcDbLine
 10
55.25885
 20
205.96115
 30
0.0
 11
56.68285
 21
205.96115
 31
0.0
  0
LINE
  5
1C380
330
1C34F
100
AcDbEntity
  8
DESIGN
100
AcDbLine
 10
56.68285
 20
205.96115
 30
0.0
 11
56.68285
 21
198.15065
 31
0.0
  0
LINE
  5
1C381
330
1C34F
100
AcDbEntity
  8
DESIGN
100
AcDbLine
 10
61.5852
 20
224.45045
 30
0.0
 11
79.4497
 21
224.45045
 31
0.0
  0
LINE
  5
1C382
330
1C34F
100
AcDbEntity
  8
DESIGN
100
AcDbLine
 10
79.4497
 20
242.29445
 30
0.0
 11
89.9152
 21
242.31395
 31
0.0
  0
LINE
  5
1C383
330
1C34F
100
AcDbEntity
  8
DESIGN
100
AcDbLine
 10
89.9152
 20
242.31395
 30
0.0
 11
89.8647
 21
258.06695
 31
0.0
  0
LINE
  5
1C384
330
1C34F
100
AcDbEntity
  8
DESIGN
 62
     2
100
AcDbLine
 10
61.5852
 20
258.06695
 30
0.0
 11
61.5852
 21
224.45045
 31
0.0
  0
LINE
  5
1C385
330
1C34F
100
AcDbEntity
  8
DESIGN
100
AcDbLine
 10
61.5852
 20
224.45045
 30
0.0
 11
61.5852
 21
224.45045
 31
0.0
  0
LINE
  5
1C386
330
1C34F
100
AcDbEntity
  8
DESIGN
 62
     2
100
AcDbLine
 10
43.691
 20
224.4505
 30
0.0
 11
43.691
 21
258.067
 31
0.0
  0
LINE
  5
1C387
330
1C34F
100
AcDbEntity
  8
DESIGN
100
AcDbLine
 10
43.691
 20
258.067
 30
0.0
 11
61.5555
 21
258.067
 31
0.0
  0
LINE
  5
1C388
330
1C34F
100
AcDbEntity
  8
DESIGN
100
AcDbLine
 10
43.701
 20
206.6055
 30
0.0
 11
43.701
 21
224.47
 31
0.0
  0
LINE
  5
1C389
330
1C34F
100
AcDbEntity
  8
DESIGN
 62
     2
100
AcDbLine
 10
43.701
 20
224.47
 30
0.0
 11
61.565
 21
224.47
 31
0.0
  0
LINE
  5
1C38A
330
1C34F
100
AcDbEntity
  8
DESIGN
100
AcDbLine
 10
61.565
 20
224.47
 30
0.0
 11
61.565
 21
206.6055
 31
0.0
  0
LINE
  5
1C38B
330
1C34F
100
AcDbEntity
  8
DESIGN
100
AcDbLine
 10
43.6809
 20
224.45045
 30
0.0
 11
25.8164
 21
224.45045
 31
0.0
  0
LINE
  5
1C38C
330
1C34F
100
AcDbEntity
  8
DESIGN
100
AcDbLine
 10
25.8164
 20
242.29445
 30
0.0
 11
15.3509
 21
242.31395
 31
0.0
  0
LINE
  5
1C38D
330
1C34F
100
AcDbEntity
  8
DESIGN
100
AcDbLine
 10
15.3509
 20
242.31395
 30
0.0
 11
15.4019
 21
258.06695
 31
0.0
  0
LINE
  5
1C38E
330
1C34F
100
AcDbEntity
  8
DESIGN
100
AcDbLine
 10
43.6809
 20
224.45045
 30
0.0
 11
43.6809
 21
224.45045
 31
0.0
  0
LINE
  5
1C38F
330
1C34F
100
AcDbEntity
  8
DESIGN
  6
ByBlock
100
AcDbLine
 10
79.406
 20
258.047
 30
0.0
 11
89.8647
 21
258.06695
 31
0.0
  0
LINE
  5
1C390
330
1C34F
100
AcDbEntity
  8
DESIGN
  6
ByBlock
100
AcDbLine
 10
79.4497
 20
242.29445
 30
0.0
 11
79.4497
 21
241.5225
 31
0.0
  0
LINE
  5
1C391
330
1C34F
100
AcDbEntity
  8
DESIGN
  6
ByBlock
100
AcDbLine
 10
15.4019
 20
258.06695
 30
0.0
 11
25.9602
 21
258.06695
 31
0.0
  0
LINE
  5
1C392
330
1C34F
100
AcDbEntity
  8
DESIGN
  6
ByBlock
 62
     2
100
AcDbLine
 10
25.9602
 20
258.06695
 30
0.0
 11
29.4741372955289
 21
258.06695
 31
0.0
  0
LINE
  5
1C393
330
1C34F
100
AcDbEntity
  8
DESIGN
  6
ByBlock
100
AcDbLine
 10
29.4741372955289
 20
258.06695
 30
0.0
 11
40.0287
 21
258.06695
 31
0.0
  0
LINE
  5
1C394
330
1C34F
100
AcDbEntity
  8
DESIGN
  6
ByBlock
 62
     2
100
AcDbLine
 10
40.0287
 20
258.06695
 30
0.0
 11
43.3782
 21
258.06695
 31
0.0
  0
LINE
  5
1C395
330
1C34F
100
AcDbEntity
  8
DESIGN
  6
ByBlock
100
AcDbLine
 10
43.3782
 20
258.06695
 30
0.0
 11
43.691
 21
258.06695
 31
0.0
  0
LINE
  5
1C396
330
1C34F
100
AcDbEntity
  8
DESIGN
  6
ByBlock
100
AcDbLine
 10
25.8164
 20
242.29445
 30
0.0
 11
25.8164
 21
241.6585
 31
0.0
  0
LINE
  5
1C397
330
1C34F
100
AcDbEntity
  8
DESIGN
  6
ByBlock
 62
     2
100
AcDbLine
 10
25.8164
 20
241.6585
 30
0.0
 11
25.8164
 21
238.309
 31
0.0
  0
LINE
  5
1C398
330
1C34F
100
AcDbEntity
  8
DESIGN
  6
ByBlock
100
AcDbLine
 10
25.8164
 20
238.309
 30
0.0
 11
25.8164
 21
227.753698173516
 31
0.0
  0
LINE
  5
1C399
330
1C34F
100
AcDbEntity
  8
DESIGN
  6
ByBlock
 62
     2
100
AcDbLine
 10
25.8164
 20
227.753698173516
 30
0.0
 11
25.8164
 21
224.45045
 31
0.0
  0
LINE
  5
1C39A
330
1C34F
100
AcDbEntity
  8
DESIGN
  6
ByBlock
100
AcDbLine
 10
43.701
 20
206.6055
 30
0.0
 11
47.95045
 21
206.6055
 31
0.0
  0
LINE
  5
1C39B
330
1C34F
100
AcDbEntity
  8
DESIGN
  6
ByBlock
100
AcDbLine
 10
47.95045
 20
206.6055
 30
0.0
 11
49.97980692307693
 21
206.6055
 31
0.0
  0
LINE
  5
1C39C
330
1C34F
100
AcDbEntity
  8
DESIGN
  6
ByBlock
 62
     2
100
AcDbLine
 10
49.97980692307693
 20
206.6055
 30
0.0
 11
52.4978
 21
206.6055
 31
0.0
  0
LINE
  5
1C39D
330
1C34F
100
AcDbEntity
  8
DESIGN
  6
ByBlock
 62
     2
100
AcDbLine
 10
52.4978
 20
206.6055
 30
0.0
 11
55.2700756097561
 21
206.6055
 31
0.0
  0
LINE
  5
1C39E
330
1C34F
100
AcDbEntity
  8
DESIGN
  6
ByBlock
100
AcDbLine
 10
55.2700756097561
 20
206.6055
 30
0.0
 11
57.0447
 21
206.6055
 31
0.0
  0
LINE
  5
1C39F
330
1C34F
100
AcDbEntity
  8
DESIGN
  6
ByBlock
100
AcDbLine
 10
57.0447
 20
206.6055
 30
0.0
 11
61.565
 21
206.6055
 31
0.0
  0
LINE
  5
1C3A0
330
1C34F
100
AcDbEntity
  8
DESIGN
  6
ByBlock
100
AcDbLine
 10
79.47
 20
224.45
 30
0.0
 11
79.675
 21
224.45
 31
0.0
  0
LINE
  5
1C3A1
330
1C34F
100
AcDbEntity
  8
DESIGN
  6
ByBlock
 62
     2
100
AcDbLine
 10
79.675
 20
224.45
 30
0.0
 11
83.0245
 21
224.45
 31
0.0
  0
LINE
  5
1C3A2
330
1C34F
100
AcDbEntity
  8
DESIGN
  6
ByBlock
100
AcDbLine
 10
83.0245
 20
224.45
 30
0.0
 11
93.58000747607656
 21
224.45
 31
0.0
  0
LINE
  5
1C3A3
330
1C34F
100
AcDbEntity
  8
DESIGN
  6
ByBlock
 62
     2
100
AcDbLine
 10
93.58000747607656
 20
224.45
 30
0.0
 11
97.093
 21
224.45
 31
0.0
  0
LINE
  5
1C3A4
330
1C34F
100
AcDbEntity
  8
DESIGN
  6
ByBlock
100
AcDbLine
 10
97.093
 20
224.45
 30
0.0
 11
97.334
 21
224.45
 31
0.0
  0
LINE
  5
1C3A5
330
1C34F
100
AcDbEntity
  8
DESIGN
  6
ByBlock
100
AcDbLine
 10
97.334
 20
241.5225
 30
0.0
 11
97.334
 21
236.2015413732394
 31
0.0
  0
LINE
  5
1C3A6
330
1C34F
100
AcDbEntity
  8
DESIGN
  6
ByBlock
 62
     2
100
AcDbLine
 10
97.334
 20
236.2015413732394
 30
0.0
 11
97.334
 21
230.9103812799043
 31
0.0
  0
LINE
  5
1C3A7
330
1C34F
100
AcDbEntity
  8
DESIGN
  6
ByBlock
100
AcDbLine
 10
97.334
 20
230.9103812799043
 30
0.0
 11
97.334
 21
224.45
 31
0.0
  0
LINE
  5
1C3A8
330
1C34F
100
AcDbEntity
  8
DESIGN
  6
ByBlock
100
AcDbLine
 10
61.5415
 20
275.911
 30
0.0
 11
67.82007304737516
 21
275.911
 31
0.0
  0
LINE
  5
1C3A9
330
1C34F
100
AcDbEntity
  8
DESIGN
  6
ByBlock
 62
     2
100
AcDbLine
 10
67.82007304737516
 20
275.911
 30
0.0
 11
73.11163374673629
 21
275.911
 31
0.0
  0
LINE
  5
1C3AA
330
1C34F
100
AcDbEntity
  8
DESIGN
  6
ByBlock
100
AcDbLine
 10
73.11163374673629
 20
275.911
 30
0.0
 11
79.406
 21
275.911
 31
0.0
  0
ENDBLK
  5
1C351
330
1C34F
100
AcDbEntity
  8
0
100
AcDbBlockEnd
  0
BLOCK
  5
1C3AF
330
1C3AE
100
AcDbEntity
  8
0
100
AcDbBlockBegin
  2
feet
 70
     0
 10
0.0
 20
0.0
 30
0.0
  3
feet
  1

  0
LINE
  5
1C3B1
330
1C3AE
100
AcDbEntity
  8
DESIGN
100
AcDbLine
 10
4.0045
 20
216.6005
 30
0.0
 11
21.5885
 21
216.6005
 31
0.0
  0
LINE
  5
1C3B2
330
1C3AE
100
AcDbEntity
  8
DESIGN
100
AcDbLine
 10
21.5885
 20
216.6005
 30
0.0
 11
21.5885
 21
181.6005
 31
0.0
  0
LINE
  5
1C3B3
330
1C3AE
100
AcDbEntity
  8
DESIGN
 62
     2
100
AcDbLine
 10
21.5885
 20
181.6005
 30
0.0
 11
4.0045
 21
181.6005
 31
0.0
  0
LINE
  5
1C3B4
330
1C3AE
100
AcDbEntity
  8
DESIGN
100
AcDbLine
 10
4.0045
 20
181.6005
 30
0.0
 11
4.0045
 21
216.6005
 31
0.0
  0
LINE
  5
1C3B5
330
1C3AE
100
AcDbEntity
  8
DESIGN
100
AcDbLine
 10
8.64015
 20
225.22535
 30
0.0
 11
16.95265
 21
225.22535
 31
0.0
  0
LINE
  5
1C3B6
330
1C3AE
100
AcDbEntity
  8
DESIGN
100
AcDbLine
 10
16.95265
 20
225.22535
 30
0.0
 11
16.95265
 21
217.20185
 31
0.0
  0
LINE
  5
1C3B7
330
1C3AE
100
AcDbEntity
  8
DESIGN
100
AcDbLine
 10
16.95265
 20
217.20185
 30
0.0
 11
15.50815
 21
217.20185
 31
0.0
  0
LINE
  5
1C3B8
330
1C3AE
100
AcDbEntity
  8
DESIGN
100
AcDbLine
 10
15.50815
 20
217.20185
 30
0.0
 11
15.51615
 21
216.80835
 31
0.0
  0
LINE
  5
1C3B9
330
1C3AE
100
AcDbEntity
  8
DESIGN
100
AcDbLine
 10
15.51615
 20
216.80835
 30
0.0
 11
10.09415
 21
216.80835
 31
0.0
  0
LINE
  5
1C3BA
330
1C3AE
100
AcDbEntity
  8
DESIGN
100
AcDbLine
 10
10.09415
 20
216.80835
 30
0.0
 11
10.10215
 21
217.20985
 31
0.0
  0
LINE
  5
1C3BB
330
1C3AE
100
AcDbEntity
  8
DESIGN
100
AcDbLine
 10
10.10215
 20
217.20985
 30
0.0
 11
8.64015
 21
217.20985
 31
0.0
  0
LINE
  5
1C3BC
330
1C3AE
100
AcDbEntity
  8
DESIGN
100
AcDbLine
 10
8.64015
 20
217.20985
 30
0.0
 11
8.64015
 21
225.22535
 31
0.0
  0
LINE
  5
1C3BD
330
1C3AE
100
AcDbEntity
  8
DESIGN
100
AcDbLine
 10
29.2515
 20
111.6005
 30
0.0
 11
29.2515
 21
76.6005
 31
0.0
  0
LINE
  5
1C3BE
330
1C3AE
100
AcDbEntity
  8
DESIGN
100
AcDbLine
 10
4.0015
 20
76.6005
 30
0.0
 11
4.0015
 21
111.6005
 31
0.0
  0
LINE
  5
1C3BF
330
1C3AE
100
AcDbEntity
  8
DESIGN
100
AcDbLine
 10
4.0015
 20
69.91895
 30
0.0
 11
21.6323
 21
69.91895
 31
0.0
  0
LINE
  5
1C3C0
330
1C3AE
100
AcDbEntity
  8
DESIGN
100
AcDbLine
 10
21.6323
 20
69.91895
 30
0.0
 11
21.6323
 21
76.6005
 31
0.0
  0
LINE
  5
1C3C1
330
1C3AE
100
AcDbEntity
  8
DESIGN
100
AcDbLine
 10
18.1948
 20
76.6005
 30
0.0
 11
18.1948
 21
75.89845
 31
0.0
  0
LINE
  5
1C3C2
330
1C3AE
100
AcDbEntity
  8
DESIGN
100
AcDbLine
 10
18.1948
 20
75.89845
 30
0.0
 11
7.3588
 21
75.90645
 31
0.0
  0
LINE
  5
1C3C3
330
1C3AE
100
AcDbEntity
  8
DESIGN
100
AcDbLine
 10
7.3588
 20
75.90645
 30
0.0
 11
7.36322539851222
 21
76.6005
 31
0.0
  0
LINE
  5
1C3C4
330
1C3AE
100
AcDbEntity
  8
DESIGN
 62
     2
100
AcDbLine
 10
4.0015
 20
146.6005
 30
0.0
 11
21.5845
 21
146.6005
 31
0.0
  0
LINE
  5
1C3C5
330
1C3AE
100
AcDbEntity
  8
DESIGN
100
AcDbLine
 10
21.5845
 20
146.6005
 30
0.0
 11
21.5845
 21
111.6005
 31
0.0
  0
LINE
  5
1C3C6
330
1C3AE
100
AcDbEntity
  8
DESIGN
 62
     2
100
AcDbLine
 10
21.5845
 20
111.6005
 30
0.0
 11
4.0015
 21
111.6005
 31
0.0
  0
LINE
  5
1C3C7
330
1C3AE
100
AcDbEntity
  8
DESIGN
100
AcDbLine
 10
4.0015
 20
111.6005
 30
0.0
 11
4.0015
 21
146.6005
 31
0.0
  0
LINE
  5
1C3C8
330
1C3AE
100
AcDbEntity
  8
DESIGN
100
AcDbLine
 10
29.2515
 20
181.6005
 30
0.0
 11
29.2515
 21
146.6005
 31
0.0
  0
LINE
  5
1C3C9
330
1C3AE
100
AcDbEntity
  8
DESIGN
100
AcDbLine
 10
4.0015
 20
146.6005
 30
0.0
 11
4.0015
 21
181.6005
 31
0.0
  0
LINE
  5
1C3CA
330
1C3AE
100
AcDbEntity
  8
DESIGN
  6
ByBlock
100
AcDbLine
 10
21.5885
 20
181.6005
 30
0.0
 11
29.2515
 21
181.6005
 31
0.0
  0
LINE
  5
1C3CB
330
1C3AE
100
AcDbEntity
  8
DESIGN
  6
ByBlock
100
AcDbLine
 10
21.5845
 20
146.6005
 30
0.0
 11
29.2515
 21
146.6005
 31
0.0
  0
LINE
  5
1C3CC
330
1C3AE
100
AcDbEntity
  8
DESIGN
  6
ByBlock
100
AcDbLine
 10
21.5845
 20
111.6005
 30
0.0
 11
29.2515
 21
111.6005
 31
0.0
  0
LINE
  5
1C3CD
330
1C3AE
100
AcDbEntity
  8
DESIGN
  6
ByBlock
100
AcDbLine
 10
4.0015
 20
76.6005
 30
0.0
 11
4.0015
 21
69.91895
 31
0.0
  0
LINE
  5
1C3CE
330
1C3AE
100
AcDbEntity
  8
DESIGN
  6
ByBlock
100
AcDbLine
 10
29.2515
 20
76.6005
 30
0.0
 11
21.6323
 21
76.6005
 31
0.0
  0
LINE
  5
1C3CF
330
1C3AE
100
AcDbEntity
  8
DESIGN
  6
ByBlock
 62
     2
100
AcDbLine
 10
21.6323
 20
76.6005
 30
0.0
 11
18.1948
 21
76.6005
 31
0.0
  0
LINE
  5
1C3D0
330
1C3AE
100
AcDbEntity
  8
DESIGN
  6
ByBlock
100
AcDbLine
 10
18.1948
 20
76.6005
 30
0.0
 11
7.36322539851222
 21
76.6005
 31
0.0
  0
LINE
  5
1C3D1
330
1C3AE
100
AcDbEntity
  8
DESIGN
  6
ByBlock
 62
     2
100
AcDbLine
 10
7.36322539851222
 20
76.6005
 30
0.0
 11
4.0015
 21
76.6005
 31
0.0
  0
ENDBLK
  5
1C3B0
330
1C3AE
100
AcDbEntity
  8
0
100
AcDbBlockEnd
  0
BLOCK
  5
1C3D4
330
1C3D3
100
AcDbEntity
  8
0
100
AcDbBlockBegin
  2
body
 70
     0
 10
0.0
 20
0.0
 30
0.0
  3
body
  1

  0
LINE
  5
1C3D6
330
1C3D3
100
AcDbEntity
  8
DESIGN
100
AcDbLine
 10
69.99315
 20
105.1128
 30
0.0
 11
69.99315
 21
68.2378
 31
0.0
  0
LINE
  5
1C3D7
330
1C3D3
100
AcDbEntity
  8
DESIGN
100
AcDbLine
 10
105.11815
 20
105.1128
 30
0.0
 11
105.11815
 21
68.2378
 31
0.0
  0
LINE
  5
1C3D8
330
1C3D3
100
AcDbEntity
  8
DESIGN
100
AcDbLine
 10
134.58885
 20
17.98975
 30
0.0
 11
122.74485
 21
29.83375
 31
0.0
  0
LINE
  5
1C3D9
330
1C3D3
100
AcDbEntity
  8
DESIGN
100
AcDbLine
 10
147.0957
 20
30.4966
 30
0.0
 11
135.2517
 21
42.3406
 31
0.0
  0
LINE
  5
1C3DA
330
1C3D3
100
AcDbEntity
  8
DESIGN
100
AcDbLine
 10
40.3772
 20
17.98975
 30
0.0
 11
52.2207
 21
29.83375
 31
0.0
  0
LINE
  5
1C3DB
330
1C3D3
100
AcDbEntity
  8
DESIGN
100
AcDbLine
 10
27.87035
 20
30.4966
 30
0.0
 11
39.71435
 21
42.3406
 31
0.0
  0
LINE
  5
1C3DC
330
1C3D3
100
AcDbEntity
  8
DESIGN
100
AcDbLine
 10
168.1944956985547
 20
62.682
 30
0.0
 11
168.19035
 21
63.68595
 31
0.0
  0
LINE
  5
1C3DD
330
1C3D3
100
AcDbEntity
  8
DESIGN
100
AcDbLine
 10
168.19035
 20
63.68595
 30
0.0
 11
193.68285
 21
63.69695
 31
0.0
  0
LINE
  5
1C3DE
330
1C3D3
100
AcDbEntity
  8
DESIGN
100
AcDbLine
 10
193.68285
 20
63.69695
 30
0.0
 11
193.68285
 21
62.682
 31
0.0
  0
LINE
  5
1C3DF
330
1C3D3
100
AcDbEntity
  8
DESIGN
100
AcDbLine
 10
204.3323241218918
 20
62.68200000000001
 30
0.0
 11
192.55185
 21
74.46145
 31
0.0
  0
LINE
  5
1C3E0
330
1C3D3
100
AcDbEntity
  8
DESIGN
100
AcDbLine
 10
192.55185
 20
74.46145
 30
0.0
 11
169.42935
 21
74.46145
 31
0.0
  0
LINE
  5
1C3E1
330
1C3D3
100
AcDbEntity
  8
DESIGN
100
AcDbLine
 10
169.42935
 20
74.46145
 30
0.0
 11
157.594
 21
62.682
 31
0.0
  0
LINE
  5
1C3E2
330
1C3D3
100
AcDbEntity
  8
DESIGN
100
AcDbLine
 10
157.594
 20
3.5105
 30
0.0
 11
110.8295
 21
3.5105
 31
0.0
  0
LINE
  5
1C3E3
330
1C3D3
100
AcDbEntity
  8
DESIGN
100
AcDbLine
 10
204.358
 20
15.9175
 30
0.0
 11
157.594
 21
15.9175
 31
0.0
  0
LINE
  5
1C3E4
330
1C3D3
100
AcDbEntity
  8
DESIGN
 62
     2
100
AcDbLine
 10
64.065
 20
62.682
 30
0.0
 11
110.8295
 21
62.682
 31
0.0
  0
LINE
  5
1C3E5
330
1C3D3
100
AcDbEntity
  8
DESIGN
100
AcDbLine
 10
110.8295
 20
15.9175
 30
0.0
 11
64.065
 21
15.9175
 31
0.0
  0
LINE
  5
1C3E6
330
1C3D3
100
AcDbEntity
  8
DESIGN
100
AcDbLine
 10
63.1792
 20
98.4751
 30
0.0
 11
63.1792
 21
94.5631
 31
0.0
  0
LINE
  5
1C3E7
330
1C3D3
100
AcDbEntity
  8
DESIGN
100
AcDbLine
 10
63.1792
 20
94.5631
 30
0.0
 11
64.0725
 21
94.58478543461236
 31
0.0
  0
LINE
  5
1C3E8
330
1C3D3
100
AcDbEntity
  8
DESIGN
100
AcDbLine
 10
64.0725
 20
77.66878202247192
 30
0.0
 11
63.1947
 21
77.6716
 31
0.0
  0
LINE
  5
1C3E9
330
1C3D3
100
AcDbEntity
  8
DESIGN
100
AcDbLine
 10
63.1947
 20
77.6716
 30
0.0
 11
63.1947
 21
73.7561
 31
0.0
  0
LINE
  5
1C3EA
330
1C3D3
100
AcDbEntity
  8
DESIGN
100
AcDbLine
 10
63.1947
 20
73.7561
 30
0.0
 11
52.1897
 21
80.0161
 31
0.0
  0
LINE
  5
1C3EB
330
1C3D3
100
AcDbEntity
  8
DESIGN
100
AcDbLine
 10
52.1897
 20
80.0161
 30
0.0
 11
52.1897
 21
92.1686
 31
0.0
  0
LINE
  5
1C3EC
330
1C3D3
100
AcDbEntity
  8
DESIGN
100
AcDbLine
 10
52.1897
 20
92.1686
 30
0.0
 11
63.1792
 21
98.4751
 31
0.0
  0
LINE
  5
1C3ED
330
1C3D3
100
AcDbEntity
  8
DESIGN
100
AcDbLine
 10
99.81445
 20
110.3843
 30
0.0
 11
95.90195
 21
110.3843
 31
0.0
  0
LINE
  5
1C3EE
330
1C3D3
100
AcDbEntity
  8
DESIGN
100
AcDbLine
 10
95.90195
 20
110.3843
 30
0.0
 11
95.92345336726703
 21
109.4985
 31
0.0
  0
LINE
  5
1C3EF
330
1C3D3
100
AcDbEntity
  8
DESIGN
100
AcDbLine
 10
79.00765609951846
 20
109.4985
 30
0.0
 11
79.01045
 21
110.3688
 31
0.0
  0
LINE
  5
1C3F0
330
1C3D3
100
AcDbEntity
  8
DESIGN
100
AcDbLine
 10
79.01045
 20
110.3688
 30
0.0
 11
75.09545
 21
110.3688
 31
0.0
  0
LINE
  5
1C3F1
330
1C3D3
100
AcDbEntity
  8
DESIGN
100
AcDbLine
 10
75.09545
 20
110.3688
 30
0.0
 11
81.35595
 21
121.3738
 31
0.0
  0
LINE
  5
1C3F2
330
1C3D3
100
AcDbEntity
  8
DESIGN
100
AcDbLine
 10
81.35595
 20
121.3738
 30
0.0
 11
93.50745
 21
121.3738
 31
0.0
  0
LINE
  5
1C3F3
330
1C3D3
100
AcDbEntity
  8
DESIGN
100
AcDbLine
 10
93.50745
 20
121.3738
 30
0.0
 11
99.81445
 21
110.3843
 31
0.0
  0
LINE
  5
1C3F4
330
1C3D3
100
AcDbEntity
  8
DESIGN
100
AcDbLine
 10
111.7036
 20
73.75635
 30
0.0
 11
111.7036
 21
77.66935
 31
0.0
  0
LINE
  5
1C3F5
330
1C3D3
100
AcDbEntity
  8
DESIGN
100
AcDbLine
 10
111.7036
 20
77.66935
 30
0.0
 11
110.8375
 21
77.64832486296007
 31
0.0
  0
LINE
  5
1C3F6
330
1C3D3
100
AcDbEntity
  8
DESIGN
100
AcDbLine
 10
110.8375
 20
94.5639459871589
 30
0.0
 11
111.6881
 21
94.55985
 31
0.0
  0
LINE
  5
1C3F7
330
1C3D3
100
AcDbEntity
  8
DESIGN
100
AcDbLine
 10
111.6881
 20
94.55985
 30
0.0
 11
111.6881
 21
98.47535
 31
0.0
  0
LINE
  5
1C3F8
330
1C3D3
100
AcDbEntity
  8
DESIGN
100
AcDbLine
 10
111.6881
 20
98.47535
 30
0.0
 11
122.6931
 21
92.21535
 31
0.0
  0
LINE
  5
1C3F9
330
1C3D3
100
AcDbEntity
  8
DESIGN
100
AcDbLine
 10
122.6931
 20
92.21535
 30
0.0
 11
122.6931
 21
80.06385
 31
0.0
  0
LINE
  5
1C3FA
330
1C3D3
100
AcDbEntity
  8
DESIGN
100
AcDbLine
 10
122.6931
 20
80.06385
 30
0.0
 11
111.7036
 21
73.75635
 31
0.0
  0
LINE
  5
1C3FB
330
1C3D3
100
AcDbEntity
  8
DESIGN
100
AcDbLine
 10
17.301
 20
26.52613386097729
 30
0.0
 11
16.2757
 21
26.5219
 31
0.0
  0
LINE
  5
1C3FC
330
1C3D3
100
AcDbEntity
  8
DESIGN
100
AcDbLine
 10
16.2757
 20
26.5219
 30
0.0
 11
16.2647
 21
52.0149
 31
0.0
  0
LINE
  5
1C3FD
330
1C3D3
100
AcDbEntity
  8
DESIGN
100
AcDbLine
 10
16.2647
 20
52.0149
 30
0.0
 11
17.301
 21
52.0149
 31
0.0
  0
LINE
  5
1C3FE
330
1C3D3
100
AcDbEntity
  8
DESIGN
100
AcDbLine
 10
5.5002
 20
50.8844
 30
0.0
 11
5.5002
 21
27.7614
 31
0.0
  0
LINE
  5
1C3FF
330
1C3D3
100
AcDbEntity
  8
DESIGN
100
AcDbLine
 10
5.5002
 20
27.7614
 30
0.0
 11
17.301
 21
15.89955430359938
 31
0.0
  0
LINE
  5
1C400
330
1C3D3
100
AcDbEntity
  8
DESIGN
100
AcDbLine
 10
27.89944728148658
 20
62.688
 30
0.0
 11
27.8967
 21
63.68595
 31
0.0
  0
LINE
  5
1C401
330
1C3D3
100
AcDbEntity
  8
DESIGN
100
AcDbLine
 10
27.8967
 20
63.68595
 30
0.0
 11
53.3892
 21
63.69695
 31
0.0
  0
LINE
  5
1C402
330
1C3D3
100
AcDbEntity
  8
DESIGN
100
AcDbLine
 10
53.3892
 20
63.69695
 30
0.0
 11
53.3892
 21
62.688
 31
0.0
  0
LINE
  5
1C403
330
1C3D3
100
AcDbEntity
  8
DESIGN
100
AcDbLine
 10
64.03267360024343
 20
62.688
 30
0.0
 11
52.2582
 21
74.46145
 31
0.0
  0
LINE
  5
1C404
330
1C3D3
100
AcDbEntity
  8
DESIGN
100
AcDbLine
 10
52.2582
 20
74.46145
 30
0.0
 11
29.1362
 21
74.46145
 31
0.0
  0
LINE
  5
1C405
330
1C3D3
100
AcDbEntity
  8
DESIGN
100
AcDbLine
 10
121.5240709222299
 20
62.688
 30
0.0
 11
121.51995
 21
63.68595
 31
0.0
  0
LINE
  5
1C406
330
1C3D3
100
AcDbEntity
  8
DESIGN
100
AcDbLine
 10
121.51995
 20
63.68595
 30
0.0
 11
147.01245
 21
63.69695
 31
0.0
  0
LINE
  5
1C407
330
1C3D3
100
AcDbEntity
  8
DESIGN
100
AcDbLine
 10
147.01245
 20
63.69695
 30
0.0
 11
147.01245
 21
62.688
 31
0.0
  0
LINE
  5
1C408
330
1C3D3
100
AcDbEntity
  8
DESIGN
100
AcDbLine
 10
157.594
 20
62.682
 30
0.0
 11
145.88195
 21
74.46145
 31
0.0
  0
LINE
  5
1C409
330
1C3D3
100
AcDbEntity
  8
DESIGN
100
AcDbLine
 10
145.88195
 20
74.46145
 30
0.0
 11
122.75895
 21
74.46145
 31
0.0
  0
LINE
  5
1C40A
330
1C3D3
100
AcDbEntity
  8
DESIGN
100
AcDbLine
 10
122.75895
 20
74.46145
 30
0.0
 11
110.9245957855156
 21
62.68800000000001
 31
0.0
  0
LINE
  5
1C40B
330
1C3D3
100
AcDbEntity
  8
DESIGN
100
AcDbLine
 10
205.2324
 20
27.01905
 30
0.0
 11
205.2324
 21
30.93205
 31
0.0
  0
LINE
  5
1C40C
330
1C3D3
100
AcDbEntity
  8
DESIGN
100
AcDbLine
 10
205.2324
 20
30.93205
 30
0.0
 11
204.358
 21
30.91082337509789
 31
0.0
  0
LINE
  5
1C40D
330
1C3D3
100
AcDbEntity
  8
DESIGN
100
AcDbLine
 10
204.358
 20
47.82668595505618
 30
0.0
 11
205.2169
 21
47.82255
 31
0.0
  0
LINE
  5
1C40E
330
1C3D3
100
AcDbEntity
  8
DESIGN
100
AcDbLine
 10
205.2169
 20
47.82255
 30
0.0
 11
205.2169
 21
51.73805
 31
0.0
  0
LINE
  5
1C40F
330
1C3D3
100
AcDbEntity
  8
DESIGN
100
AcDbLine
 10
205.2169
 20
51.73805
 30
0.0
 11
216.2219
 21
45.47805
 31
0.0
  0
LINE
  5
1C410
330
1C3D3
100
AcDbEntity
  8
DESIGN
100
AcDbLine
 10
216.2219
 20
45.47805
 30
0.0
 11
216.2219
 21
33.32655
 31
0.0
  0
LINE
  5
1C411
330
1C3D3
100
AcDbEntity
  8
DESIGN
100
AcDbLine
 10
216.2219
 20
33.32655
 30
0.0
 11
205.2324
 21
27.01905
 31
0.0
  0
LINE
  5
1C412
330
1C3D3
100
AcDbEntity
  8
DESIGN
100
AcDbLine
 10
64.0655
 20
3.5105
 30
0.0
 11
17.301
 21
3.5105
 31
0.0
  0
LINE
  5
1C413
330
1C3D3
100
AcDbEntity
  8
DESIGN
  6
ByBlock
100
AcDbLine
 10
5.5002
 20
50.8844
 30
0.0
 11
17.301
 21
62.688
 31
0.0
  0
LINE
  5
1C414
330
1C3D3
100
AcDbEntity
  8
DESIGN
  6
ByBlock
100
AcDbLine
 10
17.301
 20
62.688
 30
0.0
 11
29.1362
 21
74.46145
 31
0.0
  0
LINE
  5
1C415
330
1C3D3
100
AcDbEntity
  8
DESIGN
  6
ByBlock
 62
     2
100
AcDbLine
 10
64.065
 20
62.682
 30
0.0
 11
53.3892
 21
62.682
 31
0.0
  0
LINE
  5
1C416
330
1C3D3
100
AcDbEntity
  8
DESIGN
  6
ByBlock
100
AcDbLine
 10
53.3892
 20
62.682
 30
0.0
 11
27.89944728148658
 21
62.688
 31
0.0
  0
LINE
  5
1C417
330
1C3D3
100
AcDbEntity
  8
DESIGN
  6
ByBlock
 62
     2
100
AcDbLine
 10
27.89944728148658
 20
62.688
 30
0.0
 11
17.301
 21
62.688
 31
0.0
  0
LINE
  5
1C418
330
1C3D3
100
AcDbEntity
  8
DESIGN
  6
ByBlock
 62
     2
100
AcDbLine
 10
17.30099999999999
 20
62.688
 30
0.0
 11
17.30099999999999
 21
52.0149
 31
0.0
  0
LINE
  5
1C419
330
1C3D3
100
AcDbEntity
  8
DESIGN
  6
ByBlock
100
AcDbLine
 10
17.301
 20
15.89955430359938
 30
0.0
 11
17.301
 21
3.5105
 31
0.0
  0
LINE
  5
1C41A
330
1C3D3
100
AcDbEntity
  8
DESIGN
  6
ByBlock
100
AcDbLine
 10
17.301
 20
52.0149
 30
0.0
 11
17.301
 21
26.52613386097729
 31
0.0
  0
LINE
  5
1C41B
330
1C3D3
100
AcDbEntity
  8
DESIGN
  6
ByBlock
 62
     2
100
AcDbLine
 10
17.301
 20
26.52613386097729
 30
0.0
 11
17.301
 21
15.89955430359938
 31
0.0
  0
LINE
  5
1C41C
330
1C3D3
100
AcDbEntity
  8
DESIGN
  6
ByBlock
100
AcDbLine
 10
110.8295
 20
3.5105
 30
0.0
 11
110.8295
 21
15.9175
 31
0.0
  0
LINE
  5
1C41D
330
1C3D3
100
AcDbEntity
  8
DESIGN
  6
ByBlock
 62
     2
100
AcDbLine
 10
110.8295
 20
15.9175
 30
0.0
 11
110.8295
 21
62.682
 31
0.0
  0
LINE
  5
1C41E
330
1C3D3
100
AcDbEntity
  8
DESIGN
  6
ByBlock
100
AcDbLine
 10
157.594
 20
3.5105
 30
0.0
 11
157.594
 21
15.9175
 31
0.0
  0
LINE
  5
1C41F
330
1C3D3
100
AcDbEntity
  8
DESIGN
  6
ByBlock
 62
     2
100
AcDbLine
 10
157.594
 20
15.9175
 30
0.0
 11
157.594
 21
62.682
 31
0.0
  0
LINE
  5
1C420
330
1C3D3
100
AcDbEntity
  8
DESIGN
  6
ByBlock
100
AcDbLine
 10
64.0655
 20
3.5105
 30
0.0
 11
64.06550000000001
 21
15.9175
 31
0.0
  0
LINE
  5
1C421
330
1C3D3
100
AcDbEntity
  8
DESIGN
  6
ByBlock
 62
     2
100
AcDbLine
 10
64.06550000000001
 20
15.9175
 30
0.0
 11
64.06550000000001
 21
62.682
 31
0.0
  0
LINE
  5
1C422
330
1C3D3
100
AcDbEntity
  8
DESIGN
  6
ByBlock
100
AcDbLine
 10
64.0725
 20
109.4985
 30
0.0
 11
64.0725
 21
94.58478543461236
 31
0.0
  0
LINE
  5
1C423
330
1C3D3
100
AcDbEntity
  8
DESIGN
  6
ByBlock
 62
     2
100
AcDbLine
 10
64.0725
 20
94.58478543461236
 30
0.0
 11
64.0725
 21
77.66878202247192
 31
0.0
  0
LINE
  5
1C424
330
1C3D3
100
AcDbEntity
  8
DESIGN
  6
ByBlock
100
AcDbLine
 10
64.0725
 20
77.66878202247192
 30
0.0
 11
64.03267360024343
 21
62.688
 31
0.0
  0
LINE
  5
1C425
330
1C3D3
100
AcDbEntity
  8
DESIGN
  6
ByBlock
100
AcDbLine
 10
110.8375
 20
109.4985
 30
0.0
 11
110.8375
 21
94.5639459871589
 31
0.0
  0
LINE
  5
1C426
330
1C3D3
100
AcDbEntity
  8
DESIGN
  6
ByBlock
 62
     2
100
AcDbLine
 10
110.8375
 20
94.5639459871589
 30
0.0
 11
110.8375
 21
77.64832486296007
 31
0.0
  0
LINE
  5
1C427
330
1C3D3
100
AcDbEntity
  8
DESIGN
  6
ByBlock
100
AcDbLine
 10
110.8375
 20
77.64832486296007
 30
0.0
 11
110.8295
 21
62.688
 31
0.0
  0
LINE
  5
1C428
330
1C3D3
100
AcDbEntity
  8
DESIGN
  6
ByBlock
100
AcDbLine
 10
64.0725
 20
109.4985
 30
0.0
 11
79.00765609951846
 21
109.4985
 31
0.0
  0
LINE
  5
1C429
330
1C3D3
100
AcDbEntity
  8
DESIGN
  6
ByBlock
 62
     2
100
AcDbLine
 10
79.00765609951846
 20
109.4985
 30
0.0
 11
95.92345336726703
 21
109.4985
 31
0.0
  0
LINE
  5
1C42A
330
1C3D3
100
AcDbEntity
  8
DESIGN
  6
ByBlock
100
AcDbLine
 10
95.92345336726703
 20
109.4985
 30
0.0
 11
110.8375
 21
109.4985
 31
0.0
  0
LINE
  5
1C42B
330
1C3D3
100
AcDbEntity
  8
DESIGN
  6
ByBlock
 62
     2
100
AcDbLine
 10
110.9245957855156
 20
62.68800000000001
 30
0.0
 11
121.523890184748
 21
62.73176859352751
 31
0.0
  0
LINE
  5
1C42C
330
1C3D3
100
AcDbEntity
  8
DESIGN
  6
ByBlock
100
AcDbLine
 10
121.523890184748
 20
62.73176859352751
 30
0.0
 11
147.01245
 21
62.688
 31
0.0
  0
LINE
  5
1C42D
330
1C3D3
100
AcDbEntity
  8
DESIGN
  6
ByBlock
 62
     2
100
AcDbLine
 10
147.01245
 20
62.688
 30
0.0
 11
157.594
 21
62.682
 31
0.0
  0
LINE
  5
1C42E
330
1C3D3
100
AcDbEntity
  8
DESIGN
  6
ByBlock
 62
     2
100
AcDbLine
 10
157.594
 20
62.682
 30
0.0
 11
168.1944956985547
 21
62.682
 31
0.0
  0
LINE
  5
1C42F
330
1C3D3
100
AcDbEntity
  8
DESIGN
  6
ByBlock
100
AcDbLine
 10
168.1944956985547
 20
62.682
 30
0.0
 11
193.68285
 21
62.682
 31
0.0
  0
LINE
  5
1C430
330
1C3D3
100
AcDbEntity
  8
DESIGN
  6
ByBlock
 62
     2
100
AcDbLine
 10
193.68285
 20
62.682
 30
0.0
 11
204.358
 21
62.682
 31
0.0
  0
LINE
  5
1C431
330
1C3D3
100
AcDbEntity
  8
DESIGN
  6
ByBlock
100
AcDbLine
 10
204.358
 20
15.9175
 30
0.0
 11
204.358
 21
30.91082337509789
 31
0.0
  0
LINE
  5
1C432
330
1C3D3
100
AcDbEntity
  8
DESIGN
  6
ByBlock
 62
     2
100
AcDbLine
 10
204.358
 20
30.91082337509789
 30
0.0
 11
204.4394549133605
 21
47.82629371630805
 31
0.0
  0
LINE
  5
1C433
330
1C3D3
100
AcDbEntity
  8
DESIGN
  6
ByBlock
100
AcDbLine
 10
204.4394549133605
 20
47.82629371630805
 30
0.0
 11
204.4394549133605
 21
62.682
 31
0.0
  0
ENDBLK
  5
1C3D5
330
1C3D3
100
AcDbEntity
  8
0
100
AcDbBlockEnd
  0
BLOCK
  5
1C436
330
1C435
100
AcDbEntity
  8
0
100
AcDbBlockBegin
  2
head
 70
     0
 10
0.0
 20
0.0
 30
0.0
  3
head
  1

  0
LINE
  5
1C438
330
1C435
100
AcDbEntity
  8
DESIGN
100
AcDbLine
 10
259.41795
 20
83.77
 30
0.0
 11
259.41795
 21
130.811
 31
0.0
  0
LINE
  5
1C439
330
1C435
100
AcDbEntity
  8
DESIGN
100
AcDbLine
 10
213.36085
 20
83.77
 30
0.0
 11
213.36085
 21
130.811
 31
0.0
  0
LINE
  5
1C43A
330
1C435
100
AcDbEntity
  8
DESIGN
100
AcDbLine
 10
180.3470692307692
 20
144.8415
 30
0.0
 11
180.35315
 21
143.55035
 31
0.0
  0
LINE
  5
1C43B
330
1C435
100
AcDbEntity
  8
DESIGN
100
AcDbLine
 10
180.35315
 20
143.55035
 30
0.0
 11
146.88065
 21
143.53785
 31
0.0
  0
LINE
  5
1C43C
330
1C435
100
AcDbEntity
  8
DESIGN
100
AcDbLine
 10
146.88065
 20
143.53785
 30
0.0
 11
146.88065
 21
144.8415
 31
0.0
  0
LINE
  5
1C43D
330
1C435
100
AcDbEntity
  8
DESIGN
100
AcDbLine
 10
132.9259777420957
 20
144.8415
 30
0.0
 11
148.36565
 21
129.40285
 31
0.0
  0
LINE
  5
1C43E
330
1C435
100
AcDbEntity
  8
DESIGN
100
AcDbLine
 10
148.36565
 20
129.40285
 30
0.0
 11
178.72665
 21
129.40285
 31
0.0
  0
LINE
  5
1C43F
330
1C435
100
AcDbEntity
  8
DESIGN
100
AcDbLine
 10
178.72665
 20
129.40285
 30
0.0
 11
194.2445249875849
 21
144.8415
 31
0.0
  0
LINE
  5
1C440
330
1C435
100
AcDbEntity
  8
DESIGN
100
AcDbLine
 10
344.4945
 20
184.1768274735532
 30
0.0
 11
345.5945
 21
184.18025
 31
0.0
  0
LINE
  5
1C441
330
1C435
100
AcDbEntity
  8
DESIGN
100
AcDbLine
 10
345.5945
 20
184.18025
 30
0.0
 11
345.6055
 21
156.01575
 31
0.0
  0
LINE
  5
1C442
330
1C435
100
AcDbEntity
  8
DESIGN
100
AcDbLine
 10
345.6055
 20
156.01575
 30
0.0
 11
344.4945
 21
156.01575
 31
0.0
  0
LINE
  5
1C443
330
1C435
100
AcDbEntity
  8
DESIGN
100
AcDbLine
 10
344.4945
 20
144.8315
 30
0.0
 11
357.4995
 21
157.26575
 31
0.0
  0
LINE
  5
1C444
330
1C435
100
AcDbEntity
  8
DESIGN
100
AcDbLine
 10
357.4995
 20
157.26575
 30
0.0
 11
357.4995
 21
182.81225
 31
0.0
  0
LINE
  5
1C445
330
1C435
100
AcDbEntity
  8
DESIGN
100
AcDbLine
 10
357.4995
 20
182.81225
 30
0.0
 11
344.4945
 21
195.3295
 31
0.0
  0
LINE
  5
1C446
330
1C435
100
AcDbEntity
  8
DESIGN
100
AcDbLine
 10
220.6753
 20
71.3252
 30
0.0
 11
225.4973
 21
71.3252
 31
0.0
  0
LINE
  5
1C447
330
1C435
100
AcDbEntity
  8
DESIGN
100
AcDbLine
 10
225.4973
 20
71.3252
 30
0.0
 11
225.4696303684879
 21
72.414
 31
0.0
  0
LINE
  5
1C448
330
1C435
100
AcDbEntity
  8
DESIGN
100
AcDbLine
 10
246.3132830618893
 20
72.414
 30
0.0
 11
246.3098
 21
71.3447
 31
0.0
  0
LINE
  5
1C449
330
1C435
100
AcDbEntity
  8
DESIGN
100
AcDbLine
 10
246.3098
 20
71.3447
 30
0.0
 11
251.1343
 21
71.3447
 31
0.0
  0
LINE
  5
1C44A
330
1C435
100
AcDbEntity
  8
DESIGN
100
AcDbLine
 10
251.1343
 20
71.3447
 30
0.0
 11
243.4203
 21
57.7847
 31
0.0
  0
LINE
  5
1C44B
330
1C435
100
AcDbEntity
  8
DESIGN
100
AcDbLine
 10
243.4203
 20
57.7847
 30
0.0
 11
228.4473
 21
57.7847
 31
0.0
  0
LINE
  5
1C44C
330
1C435
100
AcDbEntity
  8
DESIGN
100
AcDbLine
 10
228.4473
 20
57.7847
 30
0.0
 11
220.6753
 21
71.3252
 31
0.0
  0
LINE
  5
1C44D
330
1C435
100
AcDbEntity
  8
DESIGN
100
AcDbLine
 10
251.1968
 20
268.81715
 30
0.0
 11
246.3748
 21
268.81715
 31
0.0
  0
LINE
  5
1C44E
330
1C435
100
AcDbEntity
  8
DESIGN
100
AcDbLine
 10
246.3748
 20
268.81715
 30
0.0
 11
246.4024609523809
 21
267.728
 31
0.0
  0
LINE
  5
1C44F
330
1C435
100
AcDbEntity
  8
DESIGN
100
AcDbLine
 10
225.5578174267101
 20
267.728
 30
0.0
 11
225.5613
 21
268.79715
 31
0.0
  0
LINE
  5
1C450
330
1C435
100
AcDbEntity
  8
DESIGN
100
AcDbLine
 10
225.5613
 20
268.79715
 30
0.0
 11
220.7368
 21
268.79715
 31
0.0
  0
LINE
  5
1C451
330
1C435
100
AcDbEntity
  8
DESIGN
100
AcDbLine
 10
220.7368
 20
268.79715
 30
0.0
 11
228.4513
 21
282.35865
 31
0.0
  0
LINE
  5
1C452
330
1C435
100
AcDbEntity
  8
DESIGN
100
AcDbLine
 10
228.4513
 20
282.35865
 30
0.0
 11
243.4243
 21
282.35865
 31
0.0
  0
LINE
  5
1C453
330
1C435
100
AcDbEntity
  8
DESIGN
100
AcDbLine
 10
243.4243
 20
282.35865
 30
0.0
 11
251.1968
 21
268.81715
 31
0.0
  0
LINE
  5
1C454
330
1C435
100
AcDbEntity
  8
DESIGN
100
AcDbLine
 10
273.21485
 20
93.38035
 30
0.0
 11
273.21485
 21
98.20185
 31
0.0
  0
LINE
  5
1C455
330
1C435
100
AcDbEntity
  8
DESIGN
100
AcDbLine
 10
273.21485
 20
98.20185
 30
0.0
 11
272.1005
 21
98.1742214876033
 31
0.0
  0
LINE
  5
1C456
330
1C435
100
AcDbEntity
  8
DESIGN
100
AcDbLine
 10
272.1005
 20
119.01785
 30
0.0
 11
273.18985
 21
119.01785
 31
0.0
  0
LINE
  5
1C457
330
1C435
100
AcDbEntity
  8
DESIGN
100
AcDbLine
 10
273.18985
 20
119.01785
 30
0.0
 11
273.19735
 21
123.83785
 31
0.0
  0
LINE
  5
1C458
330
1C435
100
AcDbEntity
  8
DESIGN
100
AcDbLine
 10
273.19735
 20
123.83785
 30
0.0
 11
286.75635
 21
116.12535
 31
0.0
  0
LINE
  5
1C459
330
1C435
100
AcDbEntity
  8
DESIGN
100
AcDbLine
 10
286.75635
 20
116.12535
 30
0.0
 11
286.75635
 21
101.15235
 31
0.0
  0
LINE
  5
1C45A
330
1C435
100
AcDbEntity
  8
DESIGN
100
AcDbLine
 10
286.75635
 20
101.15235
 30
0.0
 11
273.21485
 21
93.38035
 31
0.0
  0
LINE
  5
1C45B
330
1C435
100
AcDbEntity
  8
DESIGN
 62
     2
100
AcDbLine
 10
199.709
 20
144.805
 30
0.0
 11
272.1005
 21
144.805
 31
0.0
  0
LINE
  5
1C45C
330
1C435
100
AcDbEntity
  8
DESIGN
100
AcDbLine
 10
273.21435
 20
246.76145
 30
0.0
 11
273.22485
 21
241.95995
 31
0.0
  0
LINE
  5
1C45D
330
1C435
100
AcDbEntity
  8
DESIGN
100
AcDbLine
 10
273.22485
 20
241.95995
 30
0.0
 11
272.1615
 21
241.95995
 31
0.0
  0
LINE
  5
1C45E
330
1C435
100
AcDbEntity
  8
DESIGN
100
AcDbLine
 10
272.1615
 20
221.1313780273438
 30
0.0
 11
273.19635
 21
221.10645
 31
0.0
  0
LINE
  5
1C45F
330
1C435
100
AcDbEntity
  8
DESIGN
100
AcDbLine
 10
273.19635
 20
221.10645
 30
0.0
 11
273.19635
 21
216.30445
 31
0.0
  0
LINE
  5
1C460
330
1C435
100
AcDbEntity
  8
DESIGN
100
AcDbLine
 10
273.19635
 20
216.30445
 30
0.0
 11
286.75635
 21
224.01695
 31
0.0
  0
LINE
  5
1C461
330
1C435
100
AcDbEntity
  8
DESIGN
100
AcDbLine
 10
286.75635
 20
224.01695
 30
0.0
 11
286.75635
 21
238.99045
 31
0.0
  0
LINE
  5
1C462
330
1C435
100
AcDbEntity
  8
DESIGN
100
AcDbLine
 10
286.75635
 20
238.99045
 30
0.0
 11
273.21435
 21
246.76145
 31
0.0
  0
LINE
  5
1C463
330
1C435
100
AcDbEntity
  8
DESIGN
 62
     2
100
AcDbLine
 10
199.7665
 20
144.8315
 30
0.0
 11
199.7665
 21
195.3295
 31
0.0
  0
LINE
  5
1C464
330
1C435
100
AcDbEntity
  8
DESIGN
 62
     2
100
AcDbLine
 10
199.7665
 20
195.3295
 30
0.0
 11
272.106
 21
195.3295
 31
0.0
  0
LINE
  5
1C465
330
1C435
100
AcDbEntity
  8
DESIGN
 62
     2
100
AcDbLine
 10
272.106
 20
195.3295
 30
0.0
 11
272.106
 21
144.8315
 31
0.0
  0
LINE
  5
1C466
330
1C435
100
AcDbEntity
  8
DESIGN
100
AcDbLine
 10
325.0872684031414
 20
144.8315
 30
0.0
 11
325.09335
 21
143.54085
 31
0.0
  0
LINE
  5
1C467
330
1C435
100
AcDbEntity
  8
DESIGN
100
AcDbLine
 10
325.09335
 20
143.54085
 30
0.0
 11
291.62085
 21
143.52835
 31
0.0
  0
LINE
  5
1C468
330
1C435
100
AcDbEntity
  8
DESIGN
100
AcDbLine
 10
291.62085
 20
143.52835
 30
0.0
 11
291.62085
 21
144.8315
 31
0.0
  0
LINE
  5
1C469
330
1C435
100
AcDbEntity
  8
DESIGN
100
AcDbLine
 10
277.6662
 20
144.8315
 30
0.0
 11
293.10535
 21
129.39235
 31
0.0
  0
LINE
  5
1C46A
330
1C435
100
AcDbEntity
  8
DESIGN
100
AcDbLine
 10
293.10535
 20
129.39235
 30
0.0
 11
323.46635
 21
129.39235
 31
0.0
  0
LINE
  5
1C46B
330
1C435
100
AcDbEntity
  8
DESIGN
100
AcDbLine
 10
323.46635
 20
129.39235
 30
0.0
 11
338.9847249304773
 21
144.8315
 31
0.0
  0
LINE
  5
1C46C
330
1C435
100
AcDbEntity
  8
DESIGN
100
AcDbLine
 10
198.65575
 20
246.76145
 30
0.0
 11
198.65575
 21
241.94045
 31
0.0
  0
LINE
  5
1C46D
330
1C435
100
AcDbEntity
  8
DESIGN
100
AcDbLine
 10
198.65575
 20
241.94045
 30
0.0
 11
199.7715
 21
241.9680605647208
 31
0.0
  0
LINE
  5
1C46E
330
1C435
100
AcDbEntity
  8
DESIGN
100
AcDbLine
 10
199.7715
 20
221.12495
 30
0.0
 11
198.68225
 21
221.12495
 31
0.0
  0
LINE
  5
1C46F
330
1C435
100
AcDbEntity
  8
DESIGN
100
AcDbLine
 10
198.68225
 20
221.12495
 30
0.0
 11
198.67575
 21
216.30445
 31
0.0
  0
LINE
  5
1C470
330
1C435
100
AcDbEntity
  8
DESIGN
100
AcDbLine
 10
198.67575
 20
216.30445
 30
0.0
 11
185.11525
 21
224.01695
 31
0.0
  0
LINE
  5
1C471
330
1C435
100
AcDbEntity
  8
DESIGN
100
AcDbLine
 10
185.11525
 20
224.01695
 30
0.0
 11
185.11525
 21
238.99045
 31
0.0
  0
LINE
  5
1C472
330
1C435
100
AcDbEntity
  8
DESIGN
100
AcDbLine
 10
185.11525
 20
238.99045
 30
0.0
 11
198.65575
 21
246.76145
 31
0.0
  0
LINE
  5
1C473
330
1C435
100
AcDbEntity
  8
DESIGN
100
AcDbLine
 10
291.5616851648351
 20
195.3295
 30
0.0
 11
291.55705
 21
196.5949
 31
0.0
  0
LINE
  5
1C474
330
1C435
100
AcDbEntity
  8
DESIGN
100
AcDbLine
 10
291.55705
 20
196.5949
 30
0.0
 11
325.02955
 21
196.6074
 31
0.0
  0
LINE
  5
1C475
330
1C435
100
AcDbEntity
  8
DESIGN
100
AcDbLine
 10
325.02955
 20
196.6074
 30
0.0
 11
325.02955
 21
195.3295
 31
0.0
  0
LINE
  5
1C476
330
1C435
100
AcDbEntity
  8
DESIGN
100
AcDbLine
 10
338.9574602761041
 20
195.3295
 30
0.0
 11
323.54355
 21
210.7429
 31
0.0
  0
LINE
  5
1C477
330
1C435
100
AcDbEntity
  8
DESIGN
100
AcDbLine
 10
323.54355
 20
210.7429
 30
0.0
 11
293.18255
 21
210.7429
 31
0.0
  0
LINE
  5
1C478
330
1C435
100
AcDbEntity
  8
DESIGN
100
AcDbLine
 10
293.18255
 20
210.7429
 30
0.0
 11
277.6905674799708
 21
195.3295
 31
0.0
  0
LINE
  5
1C479
330
1C435
100
AcDbEntity
  8
DESIGN
100
AcDbLine
 10
74.49183323729702
 20
195.3565
 30
0.0
 11
74.4872
 21
196.62005
 31
0.0
  0
LINE
  5
1C47A
330
1C435
100
AcDbEntity
  8
DESIGN
100
AcDbLine
 10
74.4872
 20
196.62005
 30
0.0
 11
107.9592
 21
196.63355
 31
0.0
  0
LINE
  5
1C47B
330
1C435
100
AcDbEntity
  8
DESIGN
100
AcDbLine
 10
107.9592
 20
196.63355
 30
0.0
 11
107.9592
 21
195.3565
 31
0.0
  0
LINE
  5
1C47C
330
1C435
100
AcDbEntity
  8
DESIGN
100
AcDbLine
 10
121.886239768589
 20
195.3565
 30
0.0
 11
106.4747
 21
210.76855
 31
0.0
  0
LINE
  5
1C47D
330
1C435
100
AcDbEntity
  8
DESIGN
100
AcDbLine
 10
106.4747
 20
210.76855
 30
0.0
 11
76.1137
 21
210.76855
 31
0.0
  0
LINE
  5
1C47E
330
1C435
100
AcDbEntity
  8
DESIGN
100
AcDbLine
 10
76.1137
 20
210.76855
 30
0.0
 11
60.62307436270942
 21
195.3565
 31
0.0
  0
LINE
  5
1C47F
330
1C435
100
AcDbEntity
  8
DESIGN
100
AcDbLine
 10
146.820773155416
 20
195.339
 30
0.0
 11
146.8168
 21
196.60445
 31
0.0
  0
LINE
  5
1C480
330
1C435
100
AcDbEntity
  8
DESIGN
100
AcDbLine
 10
146.8168
 20
196.60445
 30
0.0
 11
180.2888
 21
196.61745
 31
0.0
  0
LINE
  5
1C481
330
1C435
100
AcDbEntity
  8
DESIGN
100
AcDbLine
 10
180.2888
 20
196.61745
 30
0.0
 11
180.2888
 21
195.339
 31
0.0
  0
LINE
  5
1C482
330
1C435
100
AcDbEntity
  8
DESIGN
100
AcDbLine
 10
194.2177602946532
 20
195.339
 30
0.0
 11
178.8038
 21
210.75245
 31
0.0
  0
LINE
  5
1C483
330
1C435
100
AcDbEntity
  8
DESIGN
100
AcDbLine
 10
178.8038
 20
210.75245
 30
0.0
 11
148.4428
 21
210.75245
 31
0.0
  0
LINE
  5
1C484
330
1C435
100
AcDbEntity
  8
DESIGN
100
AcDbLine
 10
148.4428
 20
210.75245
 30
0.0
 11
132.9497440341003
 21
195.339
 31
0.0
  0
LINE
  5
1C485
330
1C435
100
AcDbEntity
  8
DESIGN
 62
     2
100
AcDbLine
 10
127.4155
 20
144.8415
 30
0.0
 11
127.4155
 21
195.339
 31
0.0
  0
LINE
  5
1C486
330
1C435
100
AcDbEntity
  8
DESIGN
100
AcDbLine
 10
108.0191952879581
 20
144.8575
 30
0.0
 11
108.02325
 21
143.56675
 31
0.0
  0
LINE
  5
1C487
330
1C435
100
AcDbEntity
  8
DESIGN
100
AcDbLine
 10
108.02325
 20
143.56675
 30
0.0
 11
74.55125
 21
143.55375
 31
0.0
  0
LINE
  5
1C488
330
1C435
100
AcDbEntity
  8
DESIGN
100
AcDbLine
 10
74.55125
 20
143.55375
 30
0.0
 11
74.55125
 21
144.8575
 31
0.0
  0
LINE
  5
1C489
330
1C435
100
AcDbEntity
  8
DESIGN
100
AcDbLine
 10
60.59800000000001
 20
144.8575
 30
0.0
 11
76.03625
 21
129.41925
 31
0.0
  0
LINE
  5
1C48A
330
1C435
100
AcDbEntity
  8
DESIGN
100
AcDbLine
 10
76.03625
 20
129.41925
 30
0.0
 11
106.39725
 21
129.41925
 31
0.0
  0
LINE
  5
1C48B
330
1C435
100
AcDbEntity
  8
DESIGN
100
AcDbLine
 10
106.39725
 20
129.41925
 30
0.0
 11
121.9147229349445
 21
144.8575
 31
0.0
  0
LINE
  5
1C48C
330
1C435
100
AcDbEntity
  8
DESIGN
100
AcDbLine
 10
54.0183
 20
184.74195
 30
0.0
 11
54.0183
 21
180.10045
 31
0.0
  0
LINE
  5
1C48D
330
1C435
100
AcDbEntity
  8
DESIGN
100
AcDbLine
 10
54.0183
 20
180.10045
 30
0.0
 11
55.0855
 21
180.1264621212121
 31
0.0
  0
LINE
  5
1C48E
330
1C435
100
AcDbEntity
  8
DESIGN
100
AcDbLine
 10
55.0855
 20
160.0686497974341
 30
0.0
 11
54.0368
 21
160.04245
 31
0.0
  0
LINE
  5
1C48F
330
1C435
100
AcDbEntity
  8
DESIGN
100
AcDbLine
 10
54.0368
 20
160.04245
 30
0.0
 11
54.0368
 21
155.41945
 31
0.0
  0
LINE
  5
1C490
330
1C435
100
AcDbEntity
  8
DESIGN
100
AcDbLine
 10
54.0368
 20
155.41945
 30
0.0
 11
40.9833
 21
162.84495
 31
0.0
  0
LINE
  5
1C491
330
1C435
100
AcDbEntity
  8
DESIGN
100
AcDbLine
 10
40.9833
 20
162.84495
 30
0.0
 11
40.9833
 21
177.26095
 31
0.0
  0
LINE
  5
1C492
330
1C435
100
AcDbEntity
  8
DESIGN
100
AcDbLine
 10
40.9833
 20
177.26095
 30
0.0
 11
54.0183
 21
184.74195
 31
0.0
  0
LINE
  5
1C493
330
1C435
100
AcDbEntity
  8
DESIGN
100
AcDbLine
 10
198.65675
 20
93.38035
 30
0.0
 11
198.64725
 21
98.18235
 31
0.0
  0
LINE
  5
1C494
330
1C435
100
AcDbEntity
  8
DESIGN
100
AcDbLine
 10
198.64725
 20
98.18235
 30
0.0
 11
199.709
 21
98.18235
 31
0.0
  0
LINE
  5
1C495
330
1C435
100
AcDbEntity
  8
DESIGN
100
AcDbLine
 10
199.709
 20
119.0114563517915
 30
0.0
 11
198.67625
 21
119.03635
 31
0.0
  0
LINE
  5
1C496
330
1C435
100
AcDbEntity
  8
DESIGN
100
AcDbLine
 10
198.67625
 20
119.03635
 30
0.0
 11
198.67625
 21
123.83785
 31
0.0
  0
LINE
  5
1C497
330
1C435
100
AcDbEntity
  8
DESIGN
100
AcDbLine
 10
198.67625
 20
123.83785
 30
0.0
 11
185.11475
 21
116.12535
 31
0.0
  0
LINE
  5
1C498
330
1C435
100
AcDbEntity
  8
DESIGN
100
AcDbLine
 10
185.11475
 20
116.12535
 30
0.0
 11
185.11475
 21
101.15235
 31
0.0
  0
LINE
  5
1C499
330
1C435
100
AcDbEntity
  8
DESIGN
100
AcDbLine
 10
185.11475
 20
101.15235
 30
0.0
 11
198.65675
 21
93.38035
 31
0.0
  0
LINE
  5
1C49A
330
1C435
100
AcDbEntity
  8
DESIGN
  6
ByBlock
100
AcDbLine
 10
55.0855
 20
195.3565
 30
0.0
 11
60.62307436270942
 21
195.3565
 31
0.0
  0
LINE
  5
1C49B
330
1C435
100
AcDbEntity
  8
DESIGN
  6
ByBlock
 62
     2
100
AcDbLine
 10
60.62307436270942
 20
195.3565
 30
0.0
 11
74.49183323729702
 21
195.3565
 31
0.0
  0
LINE
  5
1C49C
330
1C435
100
AcDbEntity
  8
DESIGN
  6
ByBlock
100
AcDbLine
 10
74.49183323729702
 20
195.3565
 30
0.0
 11
107.9592
 21
195.3565
 31
0.0
  0
LINE
  5
1C49D
330
1C435
100
AcDbEntity
  8
DESIGN
  6
ByBlock
 62
     2
100
AcDbLine
 10
107.9592
 20
195.3565
 30
0.0
 11
121.886239768589
 21
195.3565
 31
0.0
  0
LINE
  5
1C49E
330
1C435
100
AcDbEntity
  8
DESIGN
  6
ByBlock
100
AcDbLine
 10
121.886239768589
 20
195.3565
 30
0.0
 11
127.4155
 21
195.339
 31
0.0
  0
LINE
  5
1C49F
330
1C435
100
AcDbEntity
  8
DESIGN
  6
ByBlock
100
AcDbLine
 10
55.0855
 20
195.3565
 30
0.0
 11
55.0855
 21
180.1264621212121
 31
0.0
  0
LINE
  5
1C4A0
330
1C435
100
AcDbEntity
  8
DESIGN
  6
ByBlock
 62
     2
100
AcDbLine
 10
55.0855
 20
180.1264621212121
 30
0.0
 11
55.0855
 21
160.0686497974341
 31
0.0
  0
LINE
  5
1C4A1
330
1C435
100
AcDbEntity
  8
DESIGN
  6
ByBlock
100
AcDbLine
 10
55.0855
 20
160.0686497974341
 30
0.0
 11
55.08550000000001
 21
144.8575
 31
0.0
  0
LINE
  5
1C4A2
330
1C435
100
AcDbEntity
  8
DESIGN
  6
ByBlock
100
AcDbLine
 10
55.08550000000001
 20
144.8575
 30
0.0
 11
60.59800000000001
 21
144.8575
 31
0.0
  0
LINE
  5
1C4A3
330
1C435
100
AcDbEntity
  8
DESIGN
  6
ByBlock
 62
     2
100
AcDbLine
 10
60.59800000000001
 20
144.8575
 30
0.0
 11
74.55125
 21
144.8575
 31
0.0
  0
LINE
  5
1C4A4
330
1C435
100
AcDbEntity
  8
DESIGN
  6
ByBlock
100
AcDbLine
 10
74.55125
 20
144.8575
 30
0.0
 11
108.0191952879581
 21
144.8575
 31
0.0
  0
LINE
  5
1C4A5
330
1C435
100
AcDbEntity
  8
DESIGN
  6
ByBlock
 62
     2
100
AcDbLine
 10
108.0191952879581
 20
144.8575
 30
0.0
 11
121.9147229349445
 21
144.8575
 31
0.0
  0
LINE
  5
1C4A6
330
1C435
100
AcDbEntity
  8
DESIGN
  6
ByBlock
100
AcDbLine
 10
121.9147229349445
 20
144.8575
 30
0.0
 11
127.4155
 21
144.8575
 31
0.0
  0
LINE
  5
1C4A7
330
1C435
100
AcDbEntity
  8
DESIGN
  6
ByBlock
100
AcDbLine
 10
127.4155
 20
195.339
 30
0.0
 11
132.9497440341003
 21
195.339
 31
0.0
  0
LINE
  5
1C4A8
330
1C435
100
AcDbEntity
  8
DESIGN
  6
ByBlock
 62
     2
100
AcDbLine
 10
132.9497440341003
 20
195.339
 30
0.0
 11
146.820773155416
 21
195.339
 31
0.0
  0
LINE
  5
1C4A9
330
1C435
100
AcDbEntity
  8
DESIGN
  6
ByBlock
100
AcDbLine
 10
146.820773155416
 20
195.339
 30
0.0
 11
180.2888
 21
195.339
 31
0.0
  0
LINE
  5
1C4AA
330
1C435
100
AcDbEntity
  8
DESIGN
  6
ByBlock
 62
     2
100
AcDbLine
 10
180.2888
 20
195.339
 30
0.0
 11
194.2177602946532
 21
195.339
 31
0.0
  0
LINE
  5
1C4AB
330
1C435
100
AcDbEntity
  8
DESIGN
  6
ByBlock
100
AcDbLine
 10
194.2177602946532
 20
195.339
 30
0.0
 11
199.7715
 21
195.339
 31
0.0
  0
LINE
  5
1C4AC
330
1C435
100
AcDbEntity
  8
DESIGN
  6
ByBlock
100
AcDbLine
 10
127.4155
 20
144.8415
 30
0.0
 11
132.9259777420957
 21
144.8415
 31
0.0
  0
LINE
  5
1C4AD
330
1C435
100
AcDbEntity
  8
DESIGN
  6
ByBlock
 62
     2
100
AcDbLine
 10
132.9259777420957
 20
144.8415
 30
0.0
 11
146.88065
 21
144.8415
 31
0.0
  0
LINE
  5
1C4AE
330
1C435
100
AcDbEntity
  8
DESIGN
  6
ByBlock
100
AcDbLine
 10
146.88065
 20
144.8415
 30
0.0
 11
180.3470692307692
 21
144.8415
 31
0.0
  0
LINE
  5
1C4AF
330
1C435
100
AcDbEntity
  8
DESIGN
  6
ByBlock
 62
     2
100
AcDbLine
 10
180.3470692307692
 20
144.8415
 30
0.0
 11
194.2445249875849
 21
144.8415
 31
0.0
  0
LINE
  5
1C4B0
330
1C435
100
AcDbEntity
  8
DESIGN
  6
ByBlock
100
AcDbLine
 10
194.2445249875849
 20
144.8415
 30
0.0
 11
199.709
 21
144.8415
 31
0.0
  0
LINE
  5
1C4B1
330
1C435
100
AcDbEntity
  8
DESIGN
  6
ByBlock
100
AcDbLine
 10
272.1005
 20
144.805
 30
0.0
 11
277.6662
 21
144.8315
 31
0.0
  0
LINE
  5
1C4B2
330
1C435
100
AcDbEntity
  8
DESIGN
  6
ByBlock
 62
     2
100
AcDbLine
 10
277.6662
 20
144.8315
 30
0.0
 11
291.62085
 21
144.8315
 31
0.0
  0
LINE
  5
1C4B3
330
1C435
100
AcDbEntity
  8
DESIGN
  6
ByBlock
100
AcDbLine
 10
291.62085
 20
144.8315
 30
0.0
 11
325.0872684031414
 21
144.8315
 31
0.0
  0
LINE
  5
1C4B4
330
1C435
100
AcDbEntity
  8
DESIGN
  6
ByBlock
 62
     2
100
AcDbLine
 10
325.0872684031414
 20
144.8315
 30
0.0
 11
338.9847249304773
 21
144.8315
 31
0.0
  0
LINE
  5
1C4B5
330
1C435
100
AcDbEntity
  8
DESIGN
  6
ByBlock
100
AcDbLine
 10
338.9847249304773
 20
144.8315
 30
0.0
 11
344.4945
 21
144.8315
 31
0.0
  0
LINE
  5
1C4B6
330
1C435
100
AcDbEntity
  8
DESIGN
  6
ByBlock
 62
     2
100
AcDbLine
 10
344.4945
 20
144.8315
 30
0.0
 11
344.4945
 21
156.01575
 31
0.0
  0
LINE
  5
1C4B7
330
1C435
100
AcDbEntity
  8
DESIGN
  6
ByBlock
100
AcDbLine
 10
344.4945
 20
156.01575
 30
0.0
 11
344.406880818742
 21
184.1765548563122
 31
0.0
  0
LINE
  5
1C4B8
330
1C435
100
AcDbEntity
  8
DESIGN
  6
ByBlock
 62
     2
100
AcDbLine
 10
344.406880818742
 20
184.1765548563122
 30
0.0
 11
344.4945
 21
195.3295
 31
0.0
  0
LINE
  5
1C4B9
330
1C435
100
AcDbEntity
  8
DESIGN
  6
ByBlock
100
AcDbLine
 10
344.4945
 20
195.3295
 30
0.0
 11
338.9574602761041
 21
195.3295
 31
0.0
  0
LINE
  5
1C4BA
330
1C435
100
AcDbEntity
  8
DESIGN
  6
ByBlock
 62
     2
100
AcDbLine
 10
338.9574602761041
 20
195.3295
 30
0.0
 11
325.02955
 21
195.3295
 31
0.0
  0
LINE
  5
1C4BB
330
1C435
100
AcDbEntity
  8
DESIGN
  6
ByBlock
100
AcDbLine
 10
325.02955
 20
195.3295
 30
0.0
 11
291.5616851648351
 21
195.3295
 31
0.0
  0
LINE
  5
1C4BC
330
1C435
100
AcDbEntity
  8
DESIGN
  6
ByBlock
 62
     2
100
AcDbLine
 10
291.5616851648351
 20
195.3295
 30
0.0
 11
277.6905674799708
 21
195.3295
 31
0.0
  0
LINE
  5
1C4BD
330
1C435
100
AcDbEntity
  8
DESIGN
  6
ByBlock
100
AcDbLine
 10
277.6905674799708
 20
195.3295
 30
0.0
 11
272.1615
 21
195.3375
 31
0.0
  0
LINE
  5
1C4BE
330
1C435
100
AcDbEntity
  8
DESIGN
  6
ByBlock
100
AcDbLine
 10
199.7715
 20
267.728
 30
0.0
 11
199.7715
 21
241.9680605647208
 31
0.0
  0
LINE
  5
1C4BF
330
1C435
100
AcDbEntity
  8
DESIGN
  6
ByBlock
 62
     2
100
AcDbLine
 10
199.7715
 20
241.9680605647208
 30
0.0
 11
199.7715
 21
221.12495
 31
0.0
  0
LINE
  5
1C4C0
330
1C435
100
AcDbEntity
  8
DESIGN
  6
ByBlock
100
AcDbLine
 10
199.7715
 20
221.12495
 30
0.0
 11
199.7665
 21
195.3295
 31
0.0
  0
LINE
  5
1C4C1
330
1C435
100
AcDbEntity
  8
DESIGN
  6
ByBlock
100
AcDbLine
 10
272.1615
 20
267.728
 30
0.0
 11
272.1615
 21
241.95995
 31
0.0
  0
LINE
  5
1C4C2
330
1C435
100
AcDbEntity
  8
DESIGN
  6
ByBlock
 62
     2
100
AcDbLine
 10
272.1615
 20
241.95995
 30
0.0
 11
272.1615
 21
221.1313780273438
 31
0.0
  0
LINE
  5
1C4C3
330
1C435
100
AcDbEntity
  8
DESIGN
  6
ByBlock
100
AcDbLine
 10
272.1615
 20
221.1313780273438
 30
0.0
 11
272.1241789521073
 21
195.337553999772
 31
0.0
  0
LINE
  5
1C4C4
330
1C435
100
AcDbEntity
  8
DESIGN
  6
ByBlock
100
AcDbLine
 10
199.7715
 20
267.728
 30
0.0
 11
225.5575438318303
 21
267.6440063718837
 31
0.0
  0
LINE
  5
1C4C5
330
1C435
100
AcDbEntity
  8
DESIGN
  6
ByBlock
 62
     2
100
AcDbLine
 10
225.5575438318303
 20
267.6440063718837
 30
0.0
 11
246.4024609523809
 21
267.728
 31
0.0
  0
LINE
  5
1C4C6
330
1C435
100
AcDbEntity
  8
DESIGN
  6
ByBlock
100
AcDbLine
 10
246.4024609523809
 20
267.728
 30
0.0
 11
272.1615
 21
267.728
 31
0.0
  0
LINE
  5
1C4C7
330
1C435
100
AcDbEntity
  8
DESIGN
  6
ByBlock
100
AcDbLine
 10
199.709
 20
144.805
 30
0.0
 11
199.709
 21
119.0114563517915
 31
0.0
  0
LINE
  5
1C4C8
330
1C435
100
AcDbEntity
  8
DESIGN
  6
ByBlock
 62
     2
100
AcDbLine
 10
199.709
 20
119.0114563517915
 30
0.0
 11
199.709
 21
98.18235
 31
0.0
  0
LINE
  5
1C4C9
330
1C435
100
AcDbEntity
  8
DESIGN
  6
ByBlock
100
AcDbLine
 10
199.709
 20
98.18235
 30
0.0
 11
199.709
 21
72.414
 31
0.0
  0
LINE
  5
1C4CA
330
1C435
100
AcDbEntity
  8
DESIGN
  6
ByBlock
100
AcDbLine
 10
272.1005
 20
144.805
 30
0.0
 11
272.1005
 21
119.01785
 31
0.0
  0
LINE
  5
1C4CB
330
1C435
100
AcDbEntity
  8
DESIGN
  6
ByBlock
 62
     2
100
AcDbLine
 10
272.1005
 20
119.01785
 30
0.0
 11
272.1005
 21
98.1742214876033
 31
0.0
  0
LINE
  5
1C4CC
330
1C435
100
AcDbEntity
  8
DESIGN
  6
ByBlock
100
AcDbLine
 10
272.1005
 20
98.1742214876033
 30
0.0
 11
272.1005
 21
72.414
 31
0.0
  0
LINE
  5
1C4CD
330
1C435
100
AcDbEntity
  8
DESIGN
  6
ByBlock
100
AcDbLine
 10
199.709
 20
72.414
 30
0.0
 11
225.4696303684879
 21
72.414
 31
0.0
  0
LINE
  5
1C4CE
330
1C435
100
AcDbEntity
  8
DESIGN
  6
ByBlock
 62
     2
100
AcDbLine
 10
225.4696303684879
 20
72.414
 30
0.0
 11
246.3132830618893
 21
72.414
 31
0.0
  0
LINE
  5
1C4CF
330
1C435
100
AcDbEntity
  8
DESIGN
  6
ByBlock
100
AcDbLine
 10
246.3132830618893
 20
72.414
 30
0.0
 11
272.1005
 21
72.414
 31
0.0
  0
ENDBLK
  5
1C437
330
1C435
100
AcDbEntity
  8
0
100
AcDbBlockEnd
  0
ENDSEC
  0
SECTION
  2
ENTITIES
  0
IMAGE
  5
1C270
330
1D
100
AcDbEntity
  8
0
  6
ByBlock
160
               140
310
8C00000001000000840000000600000005000000333333333333034000E08101842F054000000000000000004CA58201F85D764000E08101842F054000000000000000004CA58201F85D7640A5AADA0412C0714000000000000000003333333333330340A5AADA0412C071400000000000000000333333333333034000E081
310
01842F05400000000000000000
100
AcDbRasterImage
 90
        0
 10
2.4
 20
2.648200999999996
 30
0.0
 11
0.2398603564881022
 21
0.0
 31
0.0
 12
0.0
 22
0.2398603564881021
 32
0.0
 13
1482.0
 23
1173.0
340
1C26F
 70
    15
280
     0
281
    50
282
    50
283
     0
360
1C271
 71
     1
 91
        2
 14
-0.5
 24
-0.5
 14
1481.5
 24
1172.5
290
     0
  0
INSERT
  5
1C34E
330
1D
100
AcDbEntity
  8
DESIGN
  6
ByBlock
100
AcDbBlockReference
  2
hand 1
 10
-1.51274770859419
 20
-6.303115452475936
 30
0.0
  0
INSERT
  5
1C3AB
330
1D
100
AcDbEntity
  8
DESIGN
  6
ByBlock
100
AcDbBlockReference
  2
hand 2
 10
-0.7072095537677967
 20
-0.1519050824046531
 30
0.0
  0
INSERT
  5
1C3D2
330
1D
100
AcDbEntity
  8
DESIGN
  6
ByBlock
100
AcDbBlockReference
  2
feet
 10
0.4475211971257949
 20
-0.0630311545247082
 30
0.0
  0
INSERT
  5
1C434
330
1D
100
AcDbEntity
  8
DESIGN
  6
ByBlock
100
AcDbBlockReference
  2
body
 10
0.0
 20
0.0
 30
0.0
  0
INSERT
  5
1C4D0
330
1D
100
AcDbEntity
  8
DESIGN
  6
ByBlock
100
AcDbBlockReference
  2
head
 10
-0.4924308947246914
 20
0.0
 30
0.0
  0
VIEWPORT
  5
1C4DD
330
1C4D9
100
AcDbEntity
 67
     1
  8
0
100
AcDbViewport
 10
0.0
 20
0.0
 30
0.0
 40
15.13469387755102
 41
9.600000000000001
 68
     1
 69
    -1
 12
5.421739094204078
 22
4.311278236734694
 13
0.0
 23
0.0
 14
0.5
 24
0.5
 15
0.0
 25
0.0
 16
0.0
 26
0.0
 36
1.0
 17
0.0
 27
0.0
 37
0.0
 42
50.0
 43
0.0
 44
0.0
 45
9.600000000000001
 50
0.0
 51
0.0
 72
   100
 90
   557168
  1

281
     0
 71
     1
 74
     0
110
0.0
120
0.0
130
0.0
111
1.0
121
0.0
131
0.0
112
0.0
122
1.0
132
0.0
 79
     0
146
0.0
170
     0
 61
     5
292
     1
282
     1
141
0.0
142
0.0
 63
   256
  0
VIEWPORT
  5
1C4DE
330
1C4D9
100
AcDbEntity
 67
     1
  8
0
100
AcDbViewport
 10
5.25
 20
4.0
 30
0.0
 40
8.4
 41
6.4
 68
     2
 69
    -1
 12
180.0165939794396
 22
143.4711880479197
 13
0.0
 23
0.0
 14
0.5
 24
0.5
 15
0.0
 25
0.0
 16
0.0
 26
0.0
 36
1.0
 17
0.0
 27
0.0
 37
0.0
 42
50.0
 43
0.0
 44
0.0
 45
287.0342360141383
 50
0.0
 51
0.0
 72
   100
 90
   557152
  1

281
     0
 71
     1
 74
     0
110
0.0
120
0.0
130
0.0
111
1.0
121
0.0
131
0.0
112
0.0
122
1.0
132
0.0
 79
     0
146
0.0
170
     0
 61
     5
292
     1
282
     1
141
0.0
142
0.0
 63
   256
  0
ENDSEC
  0
SECTION
  2
OBJECTS
  0
DICTIONARY
  5
C
330
0
100
AcDbDictionary
281
     1
  3
ACAD_GROUP
350
D
  3
ACAD_IMAGE_DICT
350
1C266
  3
ACAD_IMAGE_VARS
350
1BD37
  3
ACAD_LAYOUT
350
1A
  3
ACAD_MATERIAL
350
1BF57
  3
ACAD_MLEADERSTYLE
350
1C277
  3
ACAD_MLINESTYLE
350
17
  3
ACAD_PLOTSETTINGS
350
19
  3
ACAD_PLOTSTYLENAME
350
E
  3
ACAD_SCALELIST
350
1BD12
  3
ACAD_TABLESTYLE
350
1BD34
  3
ACDB_RECOMPOSE_DATA
350
1C26D
  3
AcDbVariableDictionary
350
1BED0
  3
APPDATA
350
1BD36
  0
DICTIONARY
  5
1BF50
330
2
100
AcDbDictionary
280
     1
281
     1
  3
ACAD_LAYERSTATES
360
1BF51
  0
DICTIONARY
  5
1C273
330
1D
100
AcDbDictionary
280
     1
281
     1
  3
ACAD_SORTENTS
360
1C274
  0
IMAGEDEF_REACTOR
  5
1C271
330
1C270
100
AcDbRasterImageDefReactor
 90
        2
330
1C270
  0
DICTIONARY
  5
D
102
{ACAD_REACTORS
330
C
102
}
330
C
100
AcDbDictionary
281
     1
  0
DICTIONARY
  5
1C266
102
{ACAD_REACTORS
330
C
102
}
330
C
100
AcDbDictionary
281
     1
  3
Homer_Simpson_by_CyberDrone
350
1C26F
  0
RASTERVARIABLES
  5
1BD37
102
{ACAD_REACTORS
330
C
102
}
330
C
100
AcDbRasterVariables
 90
        0
 70
     1
 71
     1
 72
     0
  0
DICTIONARY
  5
1A
102
{ACAD_REACTORS
330
C
102
}
330
C
100
AcDbDictionary
281
     1
  3
Model
350
1E
  3
Sheet1
350
1C4DA
  0
DICTIONARY
  5
1BF57
102
{ACAD_REACTORS
330
C
102
}
330
C
100
AcDbDictionary
281
     1
  3
Global
350
1BF56
  0
DICTIONARY
  5
1C277
102
{ACAD_REACTORS
330
C
102
}
330
C
100
AcDbDictionary
281
     1
  0
DICTIONARY
  5
17
102
{ACAD_REACTORS
330
C
102
}
330
C
100
AcDbDictionary
281
     1
  3
Standard
350
18
  0
DICTIONARY
  5
19
102
{ACAD_REACTORS
330
C
102
}
330
C
100
AcDbDictionary
281
     1
  0
ACDBDICTIONARYWDFLT
  5
E
102
{ACAD_REACTORS
330
C
102
}
330
C
100
AcDbDictionary
281
     1
  3
Normal
350
F
100
AcDbDictionaryWithDefault
340
F
  0
DICTIONARY
  5
1BD12
102
{ACAD_REACTORS
330
C
102
}
330
C
100
AcDbDictionary
281
     1
  3
A0
350
1BD13
  3
A1
350
1BD14
  3
A2
350
1BD15
  3
A3
350
1BD16
  3
A4
350
1BD17
  3
A5
350
1BD18
  3
A6
350
1BD19
  3
A7
350
1BD1A
  3
A8
350
1BD1B
  3
A9
350
1BD1C
  3
B0
350
1BD1D
  3
B1
350
1BD1E
  3
B2
350
1BD1F
  3
B3
350
1BD20
  3
B4
350
1BD21
  3
B5
350
1BD22
  3
B6
350
1BD23
  3
B7
350
1BD24
  3
B8
350
1BD25
  3
B9
350
1BD26
  3
C0
350
1BD27
  3
C1
350
1BD28
  3
C2
350
1BD29
  3
C3
350
1BD2A
  3
C4
350
1BD2B
  3
C5
350
1BD2C
  3
C6
350
1BD2D
  3
C7
350
1BD2E
  3
C8
350
1BD2F
  3
C9
350
1BD30
  3
D0
350
1BD31
  3
D1
350
1BD32
  3
D2
350
1BD33
  0
DICTIONARY
  5
1BD34
102
{ACAD_REACTORS
330
C
102
}
330
C
100
AcDbDictionary
281
     1
  3
Standard
350
1BD35
  0
XRECORD
  5
1C26D
102
{ACAD_REACTORS
330
C
102
}
330
C
100
AcDbXrecord
280
     1
 90
        1
330
1BD35
  0
DICTIONARY
  5
1BED0
102
{ACAD_REACTORS
330
C
102
}
330
C
100
AcDbDictionary
281
     1
  3
CANNOSCALE
350
1BED1
  3
CTABLESTYLE
350
1BF6B
  0
DICTIONARY
  5
1BD36
102
{ACAD_REACTORS
330
C
102
}
330
C
100
AcDbDictionary
281
     1
  0
DICTIONARY
  5
1BF51
102
{ACAD_REACTORS
330
1BF50
102
}
330
1BF50
100
AcDbDictionary
281
     1
  3
ARGON_LAYERP_1
350
1BF52
  3
ARGON_LAYERP_10
350
1BF67
  3
ARGON_LAYERP_11
350
1C272
  3
ARGON_LAYERP_12
350
1C278
  3
ARGON_LAYERP_13
350
1C279
  3
ARGON_LAYERP_14
350
1C27A
  3
ARGON_LAYERP_15
350
1C27B
  3
ARGON_LAYERP_16
350
1C27C
  3
ARGON_LAYERP_17
350
1C27D
  3
ARGON_LAYERP_18
350
1C27E
  3
ARGON_LAYERP_19
350
1C281
  3
ARGON_LAYERP_2
350
1BF59
  3
ARGON_LAYERP_20
350
1C282
  3
ARGON_LAYERP_21
350
1C283
  3
ARGON_LAYERP_22
350
1C284
  3
ARGON_LAYERP_23
350
1C2EE
  3
ARGON_LAYERP_24
350
1C2EF
  3
ARGON_LAYERP_3
350
1BF5D
  3
ARGON_LAYERP_4
350
1BF5E
  3
ARGON_LAYERP_5
350
1BF5F
  3
ARGON_LAYERP_6
350
1BF60
  3
ARGON_LAYERP_7
350
1BF61
  3
ARGON_LAYERP_8
350
1BF64
  3
ARGON_LAYERP_9
350
1BF65
  0
SORTENTSTABLE
  5
1C274
102
{ACAD_REACTORS
330
1C273
102
}
330
1C273
100
AcDbSortentsTable
330
1D
331
0
  5
B7
331
1C270
  5
B6
  0
IMAGEDEF
  5
1C26F
102
{ACAD_REACTORS
330
1C266
330
1C271
102
}
330
1C266
100
AcDbRasterImageDef
 90
        0
  1
D:/Users/guglie0p/Develop/Python/Strangles/data/A3/Homer_Simpson_by_CyberDrone.png
 10
1482.0
 20
1173.0
 11
0.0006747638326585695
 21
0.0006747638326585695
280
     1
281
     0
  0
LAYOUT
  5
1E
102
{ACAD_REACTORS
330
1A
102
}
330
1A
100
AcDbPlotSettings
  1

  2
Aucune
  4
Letter_(8.50_x_11.00_Inches)
  6

 40
6.35
 41
6.35
 42
6.35
 43
6.35
 44
215.9
 45
279.4
 46
0.0
 47
0.0
 48
0.0
 49
0.0
140
0.0
141
0.0
142
1.0
143
47.74300986318803
 70
  1712
 72
     0
 73
     1
 74
     0
  7

 75
     0
 76
     0
 77
     2
 78
   300
147
0.0209454745912667
148
0.0
149
0.0
100
AcDbLayout
  1
Model
 70
     1
 71
     0
 10
0.0
 20
0.0
 11
12.0
 21
9.0
 12
0.0
 22
0.0
 32
0.0
 14
0.0
 24
0.0
 34
0.0
 15
100.0
 25
100.0
 35
0.0
146
0.0
 13
0.0
 23
0.0
 33
0.0
 16
1.0
 26
0.0
 36
0.0
 17
0.0
 27
1.0
 37
0.0
 76
     0
330
1D
331
1BD0C
  0
LAYOUT
  5
1C4DA
102
{ACAD_REACTORS
330
1A
102
}
330
1A
100
AcDbPlotSettings
  1

  2
Aucune
  4
Letter_(8.50_x_11.00_Inches)
  6

 40
6.35
 41
6.35
 42
6.35
 43
6.35
 44
215.9
 45
279.4
 46
0.0
 47
0.0
 48
0.0
 49
0.0
140
0.0
141
0.0
142
1.0
143
1.0
 70
   688
 72
     0
 73
     1
 74
     5
  7

 75
    16
 76
     0
 77
     2
 78
   300
147
1.0
148
0.0
149
0.0
100
AcDbLayout
  1
Sheet1
 70
     1
 71
     1
 10
0.0
 20
0.0
 11
0.0
 21
0.0
 12
0.0
 22
0.0
 32
0.0
 14
0.0
 24
0.0
 34
0.0
 15
0.0
 25
0.0
 35
0.0
146
0.0
 13
0.0
 23
0.0
 33
0.0
 16
1.0
 26
0.0
 36
0.0
 17
0.0
 27
1.0
 37
0.0
 76
     0
330
1C4D9
331
1C4DD
  0
MATERIAL
  5
1BF56
102
{ACAD_REACTORS
330
1BF57
102
}
330
1BF57
100
AcDbMaterial
  1
Global
 72
     1
 94
      127
  0
MLINESTYLE
  5
18
102
{ACAD_REACTORS
330
17
102
}
330
17
100
AcDbMlineStyle
  2
Standard
 70
     0
  3

 62
   256
 51
90.0
 52
90.0
 71
     2
 49
0.5
 62
   256
  6
BYLAYER
 49
-0.5
 62
   256
  6
BYLAYER
  0
ACDBPLACEHOLDER
  5
F
102
{ACAD_REACTORS
330
E
102
}
330
E
  0
SCALE
  5
1BD13
102
{ACAD_REACTORS
330
1BD12
102
}
330
1BD12
100
AcDbScale
 70
     0
300
1:1
140
1.0
141
1.0
290
     1
  0
SCALE
  5
1BD14
102
{ACAD_REACTORS
330
1BD12
102
}
330
1BD12
100
AcDbScale
 70
     0
300
1:2
140
1.0
141
2.0
290
     0
  0
SCALE
  5
1BD15
102
{ACAD_REACTORS
330
1BD12
102
}
330
1BD12
100
AcDbScale
 70
     0
300
1:4
140
1.0
141
4.0
290
     0
  0
SCALE
  5
1BD16
102
{ACAD_REACTORS
330
1BD12
102
}
330
1BD12
100
AcDbScale
 70
     0
300
1:5
140
1.0
141
5.0
290
     0
  0
SCALE
  5
1BD17
102
{ACAD_REACTORS
330
1BD12
102
}
330
1BD12
100
AcDbScale
 70
     0
300
1:8
140
1.0
141
8.0
290
     0
  0
SCALE
  5
1BD18
102
{ACAD_REACTORS
330
1BD12
102
}
330
1BD12
100
AcDbScale
 70
     0
300
1:10
140
1.0
141
10.0
290
     0
  0
SCALE
  5
1BD19
102
{ACAD_REACTORS
330
1BD12
102
}
330
1BD12
100
AcDbScale
 70
     0
300
1:16
140
1.0
141
16.0
290
     0
  0
SCALE
  5
1BD1A
102
{ACAD_REACTORS
330
1BD12
102
}
330
1BD12
100
AcDbScale
 70
     0
300
1:20
140
1.0
141
20.0
290
     0
  0
SCALE
  5
1BD1B
102
{ACAD_REACTORS
330
1BD12
102
}
330
1BD12
100
AcDbScale
 70
     0
300
1:30
140
1.0
141
30.0
290
     0
  0
SCALE
  5
1BD1C
102
{ACAD_REACTORS
330
1BD12
102
}
330
1BD12
100
AcDbScale
 70
     0
300
1:40
140
1.0
141
40.0
290
     0
  0
SCALE
  5
1BD1D
102
{ACAD_REACTORS
330
1BD12
102
}
330
1BD12
100
AcDbScale
 70
     0
300
1:50
140
1.0
141
50.0
290
     0
  0
SCALE
  5
1BD1E
102
{ACAD_REACTORS
330
1BD12
102
}
330
1BD12
100
AcDbScale
 70
     0
300
1:100
140
1.0
141
100.0
290
     0
  0
SCALE
  5
1BD1F
102
{ACAD_REACTORS
330
1BD12
102
}
330
1BD12
100
AcDbScale
 70
     0
300
2:1
140
2.0
141
1.0
290
     0
  0
SCALE
  5
1BD20
102
{ACAD_REACTORS
330
1BD12
102
}
330
1BD12
100
AcDbScale
 70
     0
300
4:1
140
4.0
141
1.0
290
     0
  0
SCALE
  5
1BD21
102
{ACAD_REACTORS
330
1BD12
102
}
330
1BD12
100
AcDbScale
 70
     0
300
8:1
140
8.0
141
1.0
290
     0
  0
SCALE
  5
1BD22
102
{ACAD_REACTORS
330
1BD12
102
}
330
1BD12
100
AcDbScale
 70
     0
300
10:1
140
10.0
141
1.0
290
     0
  0
SCALE
  5
1BD23
102
{ACAD_REACTORS
330
1BD12
102
}
330
1BD12
100
AcDbScale
 70
     0
300
100:1
140
100.0
141
1.0
290
     0
  0
SCALE
  5
1BD24
102
{ACAD_REACTORS
330
1BD12
102
}
330
1BD12
100
AcDbScale
 70
     0
300
1/128" = 1'-0"
140
0.0078125
141
12.0
290
     0
  0
SCALE
  5
1BD25
102
{ACAD_REACTORS
330
1BD12
102
}
330
1BD12
100
AcDbScale
 70
     0
300
1/64" = 1'-0"
140
0.015625
141
12.0
290
     0
  0
SCALE
  5
1BD26
102
{ACAD_REACTORS
330
1BD12
102
}
330
1BD12
100
AcDbScale
 70
     0
300
1/32" = 1'-0"
140
0.03125
141
12.0
290
     0
  0
SCALE
  5
1BD27
102
{ACAD_REACTORS
330
1BD12
102
}
330
1BD12
100
AcDbScale
 70
     0
300
1/16" = 1'-0"
140
0.0625
141
12.0
290
     0
  0
SCALE
  5
1BD28
102
{ACAD_REACTORS
330
1BD12
102
}
330
1BD12
100
AcDbScale
 70
     0
300
3/32" = 1'-0"
140
0.09375
141
12.0
290
     0
  0
SCALE
  5
1BD29
102
{ACAD_REACTORS
330
1BD12
102
}
330
1BD12
100
AcDbScale
 70
     0
300
1/8" = 1'-0"
140
0.125
141
12.0
290
     0
  0
SCALE
  5
1BD2A
102
{ACAD_REACTORS
330
1BD12
102
}
330
1BD12
100
AcDbScale
 70
     0
300
3/16" = 1'-0"
140
0.1875
141
12.0
290
     0
  0
SCALE
  5
1BD2B
102
{ACAD_REACTORS
330
1BD12
102
}
330
1BD12
100
AcDbScale
 70
     0
300
1/4" = 1'-0"
140
0.25
141
12.0
290
     0
  0
SCALE
  5
1BD2C
102
{ACAD_REACTORS
330
1BD12
102
}
330
1BD12
100
AcDbScale
 70
     0
300
3/8" = 1'-0"
140
0.375
141
12.0
290
     0
  0
SCALE
  5
1BD2D
102
{ACAD_REACTORS
330
1BD12
102
}
330
1BD12
100
AcDbScale
 70
     0
300
1/2" = 1'-0"
140
0.5
141
12.0
290
     0
  0
SCALE
  5
1BD2E
102
{ACAD_REACTORS
330
1BD12
102
}
330
1BD12
100
AcDbScale
 70
     0
300
3/4" = 1'-0"
140
0.75
141
12.0
290
     0
  0
SCALE
  5
1BD2F
102
{ACAD_REACTORS
330
1BD12
102
}
330
1BD12
100
AcDbScale
 70
     0
300
1" = 1'-0"
140
1.0
141
12.0
290
     0
  0
SCALE
  5
1BD30
102
{ACAD_REACTORS
330
1BD12
102
}
330
1BD12
100
AcDbScale
 70
     0
300
1-1/2" = 1'-0"
140
1.5
141
12.0
290
     0
  0
SCALE
  5
1BD31
102
{ACAD_REACTORS
330
1BD12
102
}
330
1BD12
100
AcDbScale
 70
     0
300
3" = 1'-0"
140
3.0
141
12.0
290
     0
  0
SCALE
  5
1BD32
102
{ACAD_REACTORS
330
1BD12
102
}
330
1BD12
100
AcDbScale
 70
     0
300
6" = 1'-0"
140
6.0
141
12.0
290
     0
  0
SCALE
  5
1BD33
102
{ACAD_REACTORS
330
1BD12
102
}
330
1BD12
100
AcDbScale
 70
     0
300
1'-0" = 1'-0"
140
12.0
141
12.0
290
     0
  0
TABLESTYLE
  5
1BD35
102
{ACAD_REACTORS
330
1BD34
102
}
102
{ACAD_XDICTIONARY
360
1C4EB
102
}
330
1BD34
100
AcDbTableStyle
  3
Standard
 70
     0
 71
     0
 40
0.06
 41
0.06
280
     0
281
     0
  7
Standard
140
0.18
170
     2
 62
     0
 63
   257
283
     0
 90
        4
 91
        0
  1

274
    -2
284
     1
 64
     0
275
    -2
285
     1
 65
     0
276
    -2
286
     1
 66
     0
277
    -2
287
     1
 67
     0
278
    -2
288
     1
 68
     0
279
    -2
289
     1
 69
     0
  7
Standard
140
0.25
170
     5
 62
     0
 63
   257
283
     0
 90
        4
 91
        0
  1

274
    -2
284
     1
 64
     0
275
    -2
285
     1
 65
     0
276
    -2
286
     1
 66
     0
277
    -2
287
     1
 67
     0
278
    -2
288
     1
 68
     0
279
    -2
289
     1
 69
     0
  7
Standard
140
0.18
170
     5
 62
     0
 63
   257
283
     0
 90
        4
 91
        0
  1

274
    -2
284
     1
 64
     0
275
    -2
285
     1
 65
     0
276
    -2
286
     1
 66
     0
277
    -2
287
     1
 67
     0
278
    -2
288
     1
 68
     0
279
    -2
289
     1
 69
     0
  0
DICTIONARYVAR
  5
1BED1
102
{ACAD_REACTORS
330
1BED0
102
}
330
1BED0
100
DictionaryVariables
280
     0
  1
1:1
  0
DICTIONARYVAR
  5
1BF6B
102
{ACAD_REACTORS
330
1BED0
102
}
330
1BED0
100
DictionaryVariables
280
     0
  1
Standard
  0
XRECORD
  5
1BF52
102
{ACAD_REACTORS
330
1BF51
102
}
330
1BF51
100
AcDbXrecord
280
     1
 91
     1023
301

290
     0
302
0
330
10
 90
        8
 62
     7
370
    -3
331
16
  1
Color_7
330
1BD0D
 90
        8
 62
     7
370
    -3
331
16
  1
Color_7
  0
XRECORD
  5
1BF67
102
{ACAD_REACTORS
330
1BF51
102
}
330
1BF51
100
AcDbXrecord
280
     1
 91
     1023
301

290
     0
302
0
330
10
 90
        8
 62
     3
370
    -3
331
16
  1
Color_3
330
1BD0D
 90
        8
 62
     7
370
    -3
331
16
  1
Color_7
330
1BF53
 90
        8
 62
     1
370
    -3
331
16
  1
Color_1
  0
XRECORD
  5
1C272
102
{ACAD_REACTORS
330
1BF51
102
}
330
1BF51
100
AcDbXrecord
280
     1
 91
     1023
301

290
     0
302
LAYOUT
330
10
 90
        8
 62
     3
370
    -3
331
16
  1
Color_3
330
1BD0D
 90
        8
 62
     7
370
    -3
331
16
  1
Color_7
330
1BF53
 90
        8
 62
     1
370
    -3
331
16
  1
Color_1
  0
XRECORD
  5
1C278
102
{ACAD_REACTORS
330
1BF51
102
}
330
1BF51
100
AcDbXrecord
280
     1
 91
     1023
301

290
     0
302
0
330
10
 90
        8
 62
     3
370
    -3
331
16
  1
Color_3
330
1BD0D
 90
        8
 62
     7
370
    -3
331
16
  1
Color_7
330
1BF53
 90
        8
 62
     1
370
    -3
331
16
  1
Color_1
  0
XRECORD
  5
1C279
102
{ACAD_REACTORS
330
1BF51
102
}
330
1BF51
100
AcDbXrecord
280
     1
 91
     1023
301

290
     0
302
0
330
10
 90
        9
 62
     3
370
    -3
331
16
  1
Color_3
330
1BD0D
 90
        8
 62
     7
370
    -3
331
16
  1
Color_7
330
1BF53
 90
        8
 62
     1
370
    -3
331
16
  1
Color_1
  0
XRECORD
  5
1C27A
102
{ACAD_REACTORS
330
1BF51
102
}
330
1BF51
100
AcDbXrecord
280
     1
 91
     1023
301

290
     0
302
LAYOUT
330
10
 90
        9
 62
     3
370
    -3
331
16
  1
Color_3
330
1BD0D
 90
        8
 62
     7
370
    -3
331
16
  1
Color_7
330
1BF53
 90
        8
 62
     1
370
    -3
331
16
  1
Color_1
  0
XRECORD
  5
1C27B
102
{ACAD_REACTORS
330
1BF51
102
}
330
1BF51
100
AcDbXrecord
280
     1
 91
     1023
301

290
     0
302
LAYOUT
330
10
 90
        8
 62
     3
370
    -3
331
16
  1
Color_3
330
1BD0D
 90
        8
 62
     7
370
    -3
331
16
  1
Color_7
330
1BF53
 90
        8
 62
     1
370
    -3
331
16
  1
Color_1
  0
XRECORD
  5
1C27C
102
{ACAD_REACTORS
330
1BF51
102
}
330
1BF51
100
AcDbXrecord
280
     1
 91
     1023
301

290
     0
302
LAYOUT
330
10
 90
        9
 62
     3
370
    -3
331
16
  1
Color_3
330
1BD0D
 90
        8
 62
     7
370
    -3
331
16
  1
Color_7
330
1BF53
 90
        8
 62
     1
370
    -3
331
16
  1
Color_1
  0
XRECORD
  5
1C27D
102
{ACAD_REACTORS
330
1BF51
102
}
330
1BF51
100
AcDbXrecord
280
     1
 91
     1023
301

290
     0
302
0
330
10
 90
        9
 62
     3
370
    -3
331
16
  1
Color_3
330
1BD0D
 90
        8
 62
     7
370
    -3
331
16
  1
Color_7
330
1BF53
 90
        8
 62
     1
370
    -3
331
16
  1
Color_1
  0
XRECORD
  5
1C27E
102
{ACAD_REACTORS
330
1BF51
102
}
330
1BF51
100
AcDbXrecord
280
     1
 91
     1023
301

290
     0
302
0
330
10
 90
        8
 62
     3
370
    -3
331
16
  1
Color_3
330
1BD0D
 90
        8
 62
     7
370
    -3
331
16
  1
Color_7
330
1BF53
 90
        8
 62
     1
370
    -3
331
16
  1
Color_1
  0
XRECORD
  5
1C281
102
{ACAD_REACTORS
330
1BF51
102
}
330
1BF51
100
AcDbXrecord
280
     1
 91
     1023
301

290
     0
302
0
330
10
 90
        9
 62
     3
370
    -3
331
16
  1
Color_3
330
1BD0D
 90
        8
 62
     7
370
    -3
331
16
  1
Color_7
330
1BF53
 90
        8
 62
     1
370
    -3
331
16
  1
Color_1
  0
XRECORD
  5
1BF59
102
{ACAD_REACTORS
330
1BF51
102
}
330
1BF51
100
AcDbXrecord
280
     1
 91
     1023
301

290
     0
302
0
330
10
 90
        8
 62
     7
370
    -3
331
16
  1
Color_7
330
1BD0D
 90
        8
 62
     7
370
    -3
331
16
  1
Color_7
330
1BF53
 90
        8
 62
     7
370
    -3
331
16
  1
Color_7
  0
XRECORD
  5
1C282
102
{ACAD_REACTORS
330
1BF51
102
}
330
1BF51
100
AcDbXrecord
280
     1
 91
     1023
301

290
     0
302
0
330
10
 90
        8
 62
     3
370
    -3
331
16
  1
Color_3
330
1BD0D
 90
        8
 62
     7
370
    -3
331
16
  1
Color_7
330
1BF53
 90
        8
 62
     1
370
    -3
331
16
  1
Color_1
  0
XRECORD
  5
1C283
102
{ACAD_REACTORS
330
1BF51
102
}
330
1BF51
100
AcDbXrecord
280
     1
 91
     1023
301

290
     0
302
0
330
10
 90
        9
 62
     3
370
    -3
331
16
  1
Color_3
330
1BD0D
 90
        8
 62
     7
370
    -3
331
16
  1
Color_7
330
1BF53
 90
        8
 62
     1
370
    -3
331
16
  1
Color_1
  0
XRECORD
  5
1C284
102
{ACAD_REACTORS
330
1BF51
102
}
330
1BF51
100
AcDbXrecord
280
     1
 91
     1023
301

290
     0
302
0
330
10
 90
        8
 62
     3
370
    -3
331
16
  1
Color_3
330
1BD0D
 90
        8
 62
     7
370
    -3
331
16
  1
Color_7
330
1BF53
 90
        8
 62
     1
370
    -3
331
16
  1
Color_1
  0
XRECORD
  5
1C2EE
102
{ACAD_REACTORS
330
1BF51
102
}
330
1BF51
100
AcDbXrecord
280
     1
 91
     1023
301

290
     0
302
LAYOUT
330
10
 90
        8
 62
     3
370
    -3
331
16
  1
Color_3
330
1BD0D
 90
        8
 62
     7
370
    -3
331
16
  1
Color_7
330
1BF53
 90
        8
 62
     1
370
    -3
331
16
  1
Color_1
  0
XRECORD
  5
1C2EF
102
{ACAD_REACTORS
330
1BF51
102
}
330
1BF51
100
AcDbXrecord
280
     1
 91
     1023
301

290
     0
302
LAYOUT
330
10
 90
        9
 62
     3
370
    -3
331
16
  1
Color_3
330
1BD0D
 90
        8
 62
     7
370
    -3
331
16
  1
Color_7
330
1BF53
 90
        8
 62
     1
370
    -3
331
16
  1
Color_1
  0
XRECORD
  5
1BF5D
102
{ACAD_REACTORS
330
1BF51
102
}
330
1BF51
100
AcDbXrecord
280
     1
 91
     1023
301

290
     0
302
0
330
10
 90
        8
 62
     7
370
    -3
331
16
  1
Color_7
330
1BD0D
 90
        8
 62
     7
370
    -3
331
16
  1
Color_7
330
1BF53
 90
        8
 62
     1
370
    -3
331
16
  1
Color_1
  0
XRECORD
  5
1BF5E
102
{ACAD_REACTORS
330
1BF51
102
}
330
1BF51
100
AcDbXrecord
280
     1
 91
     1023
301

290
     0
302
0
330
10
 90
        8
 62
     7
370
    -3
331
16
  1
Color_7
330
1BD0D
 90
        8
 62
     7
370
    -3
331
16
  1
Color_7
330
1BF53
 90
        9
 62
     1
370
    -3
331
16
  1
Color_1
  0
XRECORD
  5
1BF5F
102
{ACAD_REACTORS
330
1BF51
102
}
330
1BF51
100
AcDbXrecord
280
     1
 91
     1023
301

290
     0
302
0
330
10
 90
        8
 62
     7
370
    -3
331
16
  1
Color_7
330
1BD0D
 90
        8
 62
     7
370
    -3
331
16
  1
Color_7
330
1BF53
 90
        8
 62
     1
370
    -3
331
16
  1
Color_1
  0
XRECORD
  5
1BF60
102
{ACAD_REACTORS
330
1BF51
102
}
330
1BF51
100
AcDbXrecord
280
     1
 91
     1023
301

290
     0
302
0
330
10
 90
        9
 62
     7
370
    -3
331
16
  1
Color_7
330
1BD0D
 90
        8
 62
     7
370
    -3
331
16
  1
Color_7
330
1BF53
 90
        8
 62
     1
370
    -3
331
16
  1
Color_1
  0
XRECORD
  5
1BF61
102
{ACAD_REACTORS
330
1BF51
102
}
330
1BF51
100
AcDbXrecord
280
     1
 91
     1023
301

290
     0
302
LAYOUT
330
10
 90
        9
 62
     7
370
    -3
331
16
  1
Color_7
330
1BD0D
 90
        8
 62
     7
370
    -3
331
16
  1
Color_7
330
1BF53
 90
        8
 62
     1
370
    -3
331
16
  1
Color_1
  0
XRECORD
  5
1BF64
102
{ACAD_REACTORS
330
1BF51
102
}
330
1BF51
100
AcDbXrecord
280
     1
 91
     1023
301

290
     0
302
LAYOUT
330
10
 90
        9
 62
     3
370
    -3
331
16
  1
Color_3
330
1BD0D
 90
        8
 62
     7
370
    -3
331
16
  1
Color_7
330
1BF53
 90
        8
 62
     1
370
    -3
331
16
  1
Color_1
  0
XRECORD
  5
1BF65
102
{ACAD_REACTORS
330
1BF51
102
}
330
1BF51
100
AcDbXrecord
280
     1
 91
     1023
301

290
     0
302
0
330
10
 90
        9
 62
     3
370
    -3
331
16
  1
Color_3
330
1BD0D
 90
        8
 62
     7
370
    -3
331
16
  1
Color_7
330
1BF53
 90
        8
 62
     1
370
    -3
331
16
  1
Color_1
  0
DICTIONARY
  5
1C4EB
330
1BD35
100
AcDbDictionary
280
     1
281
     1
  3
ACAD_ROUNDTRIP_2008_TABLESTYLE_CELLSTYLEMAP
360
1C4EC
  0
CELLSTYLEMAP
  5
1C4EC
102
{ACAD_REACTORS
330
1C4EB
102
}
330
1C4EB
100
AcDbCellStyleMap
 90
        3
300
CELLSTYLE
  1
TABLEFORMAT_BEGIN
 90
        5
170
     1
 91
        0
 92
        0
 62
   257
 93
        1
300
CONTENTFORMAT
  1
CONTENTFORMAT_BEGIN
 90
        0
 91
        0
 92
        4
 93
        0
300

 40
0.0
140
1.0
 94
        5
 62
     0
340
11
144
0.25
309
CONTENTFORMAT_END
171
     1
301
MARGIN
  1
CELLMARGIN_BEGIN
 40
0.06
 40
0.06
 40
0.06
 40
0.06
 40
0.06
 40
0.06
309
CELLMARGIN_END
 94
        6
 95
        1
302
GRIDFORMAT
  1
GRIDFORMAT_BEGIN
 90
        0
 91
        1
 62
     0
 92
       -2
340
14
 93
        0
 40
0.045
309
GRIDFORMAT_END
 95
        2
302
GRIDFORMAT
  1
GRIDFORMAT_BEGIN
 90
        0
 91
        1
 62
     0
 92
       -2
340
14
 93
        0
 40
0.045
309
GRIDFORMAT_END
 95
        4
302
GRIDFORMAT
  1
GRIDFORMAT_BEGIN
 90
        0
 91
        1
 62
     0
 92
       -2
340
14
 93
        0
 40
0.045
309
GRIDFORMAT_END
 95
        8
302
GRIDFORMAT
  1
GRIDFORMAT_BEGIN
 90
        0
 91
        1
 62
     0
 92
       -2
340
14
 93
        0
 40
0.045
309
GRIDFORMAT_END
 95
       16
302
GRIDFORMAT
  1
GRIDFORMAT_BEGIN
 90
        0
 91
        1
 62
     0
 92
       -2
340
14
 93
        0
 40
0.045
309
GRIDFORMAT_END
 95
       32
302
GRIDFORMAT
  1
GRIDFORMAT_BEGIN
 90
        0
 91
        1
 62
     0
 92
       -2
340
14
 93
        0
 40
0.045
309
GRIDFORMAT_END
309
TABLEFORMAT_END
  1
CELLSTYLE_BEGIN
 90
        1
 91
        1
300
_TITLE
309
CELLSTYLE_END
300
CELLSTYLE
  1
TABLEFORMAT_BEGIN
 90
        5
170
     1
 91
        0
 92
        0
 62
   257
 93
        1
300
CONTENTFORMAT
  1
CONTENTFORMAT_BEGIN
 90
        0
 91
        0
 92
        4
 93
        0
300

 40
0.0
140
1.0
 94
        5
 62
     0
340
11
144
0.18
309
CONTENTFORMAT_END
171
     1
301
MARGIN
  1
CELLMARGIN_BEGIN
 40
0.06
 40
0.06
 40
0.06
 40
0.06
 40
0.06
 40
0.06
309
CELLMARGIN_END
 94
        6
 95
        1
302
GRIDFORMAT
  1
GRIDFORMAT_BEGIN
 90
        0
 91
        1
 62
     0
 92
       -2
340
14
 93
        0
 40
0.045
309
GRIDFORMAT_END
 95
        2
302
GRIDFORMAT
  1
GRIDFORMAT_BEGIN
 90
        0
 91
        1
 62
     0
 92
       -2
340
14
 93
        0
 40
0.045
309
GRIDFORMAT_END
 95
        4
302
GRIDFORMAT
  1
GRIDFORMAT_BEGIN
 90
        0
 91
        1
 62
     0
 92
       -2
340
14
 93
        0
 40
0.045
309
GRIDFORMAT_END
 95
        8
302
GRIDFORMAT
  1
GRIDFORMAT_BEGIN
 90
        0
 91
        1
 62
     0
 92
       -2
340
14
 93
        0
 40
0.045
309
GRIDFORMAT_END
 95
       16
302
GRIDFORMAT
  1
GRIDFORMAT_BEGIN
 90
        0
 91
        1
 62
     0
 92
       -2
340
14
 93
        0
 40
0.045
309
GRIDFORMAT_END
 95
       32
302
GRIDFORMAT
  1
GRIDFORMAT_BEGIN
 90
        0
 91
        1
 62
     0
 92
       -2
340
14
 93
        0
 40
0.045
309
GRIDFORMAT_END
309
TABLEFORMAT_END
  1
CELLSTYLE_BEGIN
 90
        2
 91
        1
300
_HEADER
309
CELLSTYLE_END
300
CELLSTYLE
  1
TABLEFORMAT_BEGIN
 90
        5
170
     1
 91
        0
 92
        0
 62
   257
 93
        1
300
CONTENTFORMAT
  1
CONTENTFORMAT_BEGIN
 90
        0
 91
        0
 92
        4
 93
        0
300

 40
0.0
140
1.0
 94
        2
 62
     0
340
11
144
0.18
309
CONTENTFORMAT_END
171
     1
301
MARGIN
  1
CELLMARGIN_BEGIN
 40
0.06
 40
0.06
 40
0.06
 40
0.06
 40
0.06
 40
0.06
309
CELLMARGIN_END
 94
        6
 95
        1
302
GRIDFORMAT
  1
GRIDFORMAT_BEGIN
 90
        0
 91
        1
 62
     0
 92
       -2
340
14
 93
        0
 40
0.045
309
GRIDFORMAT_END
 95
        2
302
GRIDFORMAT
  1
GRIDFORMAT_BEGIN
 90
        0
 91
        1
 62
     0
 92
       -2
340
14
 93
        0
 40
0.045
309
GRIDFORMAT_END
 95
        4
302
GRIDFORMAT
  1
GRIDFORMAT_BEGIN
 90
        0
 91
        1
 62
     0
 92
       -2
340
14
 93
        0
 40
0.045
309
GRIDFORMAT_END
 95
        8
302
GRIDFORMAT
  1
GRIDFORMAT_BEGIN
 90
        0
 91
        1
 62
     0
 92
       -2
340
14
 93
        0
 40
0.045
309
GRIDFORMAT_END
 95
       16
302
GRIDFORMAT
  1
GRIDFORMAT_BEGIN
 90
        0
 91
        1
 62
     0
 92
       -2
340
14
 93
        0
 40
0.045
309
GRIDFORMAT_END
 95
       32
302
GRIDFORMAT
  1
GRIDFORMAT_BEGIN
 90
        0
 91
        1
 62
     0
 92
       -2
340
14
 93
        0
 40
0.045
309
GRIDFORMAT_END
309
TABLEFORMAT_END
  1
CELLSTYLE_BEGIN
 90
        3
 91
        2
300
_DATA
309
CELLSTYLE_END
  0
ENDSEC
  0
EOF
